<?xml version="1.0" encoding="UTF-8" standalone="no"?>
<!DOCTYPE svg PUBLIC "-//W3C//DTD SVG 1.1//EN"
 "http://www.w3.org/Graphics/SVG/1.1/DTD/svg11.dtd">
<!-- Generated by graphviz version 2.43.0 (0)
 -->
<!-- Title: tools/ra8_emulator/src/periph/board_periph_xspi.c Pages: 1 -->
<svg width="398pt" height="159pt"
 viewBox="0.00 0.00 398.46 159.00" xmlns="http://www.w3.org/2000/svg" xmlns:xlink="http://www.w3.org/1999/xlink">

<svg id="main" version="1.1" xmlns="http://www.w3.org/2000/svg" xmlns:xlink="http://www.w3.org/1999/xlink" xml:space="preserve">

<style type="text/css"><![CDATA[
.node, .edge {opacity: 0.7;}
.node.selected, .edge.selected {opacity: 1;}
.edge:hover path { stroke: red; }
.edge:hover polygon { stroke: red; fill: red; }
]]></style>
<script type="application/ecmascript" xlink:href="svg.min.js"/>
<svg id="graph" class="graph">
<g id="graph0" class="graph" transform="scale(1 1) rotate(0) translate(4 155)">
<title>tools/ra8_emulator/src/periph/board_periph_xspi.c</title>
<!-- Node1 -->
<g id="Node000001" class="node">
<title>Node1</title>
<g id="a_Node000001"><a xlink:title="Octal&#45;SPI (xSPI) manual&#45;command + NOR&#45;flash peripheral model for ra8_emulator.">
<polygon fill="#999999" stroke="#666666" points="176.96,-151 42.96,-151 42.96,-110 176.96,-110 176.96,-151"/>
<text text-anchor="start" x="50.96" y="-139" font-family="Helvetica,sans-Serif" font-size="10.00">tools/ra8_emulator</text>
<text text-anchor="start" x="50.96" y="-128" font-family="Helvetica,sans-Serif" font-size="10.00">/src/periph/board_periph</text>
<text text-anchor="middle" x="109.96" y="-117" font-family="Helvetica,sans-Serif" font-size="10.00">_xspi.c</text>
</a>
</g>
</g>
<!-- Node2 -->
<g id="Node000002" class="node">
<title>Node2</title>
<g id="a_Node000002"><a xlink:title=" ">
<polygon fill="#e0e0e0" stroke="#999999" points="229.46,-19 176.46,-19 176.46,0 229.46,0 229.46,-19"/>
<text text-anchor="middle" x="202.96" y="-7" font-family="Helvetica,sans-Serif" font-size="10.00">stdint.h</text>
</a>
</g>
</g>
<!-- Node1&#45;&gt;Node2 -->
<g id="edge1_Node000001_Node000002" class="edge">
<title>Node1&#45;&gt;Node2</title>
<g id="a_edge1_Node000001_Node000002"><a xlink:title=" ">
<path fill="none" stroke="#63b8ff" d="M47.15,-109.97C15.66,-96.85 -12.28,-77.81 5.96,-55 25.62,-30.4 114.68,-18.41 166.07,-13.45"/>
<polygon fill="#63b8ff" stroke="#63b8ff" points="166.48,-16.93 176.12,-12.52 165.84,-9.96 166.48,-16.93"/>
</a>
</g>
</g>
<!-- Node3 -->
<g id="Node000003" class="node">
<title>Node3</title>
<g id="a_Node000003"><a xlink:title=" ">
<polygon fill="#e0e0e0" stroke="#999999" points="64.96,-74 14.96,-74 14.96,-55 64.96,-55 64.96,-74"/>
<text text-anchor="middle" x="39.96" y="-62" font-family="Helvetica,sans-Serif" font-size="10.00">stdio.h</text>
</a>
</g>
</g>
<!-- Node1&#45;&gt;Node3 -->
<g id="edge2_Node000001_Node000003" class="edge">
<title>Node1&#45;&gt;Node3</title>
<g id="a_edge2_Node000001_Node000003"><a xlink:title=" ">
<path fill="none" stroke="#63b8ff" d="M88.58,-109.95C78.5,-100.74 66.64,-89.9 57.16,-81.23"/>
<polygon fill="#63b8ff" stroke="#63b8ff" points="59.28,-78.43 49.54,-74.26 54.56,-83.59 59.28,-78.43"/>
</a>
</g>
</g>
<!-- Node4 -->
<g id="Node000004" class="node">
<title>Node4</title>
<g id="a_Node000004"><a xlink:title=" ">
<polygon fill="#e0e0e0" stroke="#999999" points="136.46,-74 83.46,-74 83.46,-55 136.46,-55 136.46,-74"/>
<text text-anchor="middle" x="109.96" y="-62" font-family="Helvetica,sans-Serif" font-size="10.00">string.h</text>
</a>
</g>
</g>
<!-- Node1&#45;&gt;Node4 -->
<g id="edge3_Node000001_Node000004" class="edge">
<title>Node1&#45;&gt;Node4</title>
<g id="a_edge3_Node000001_Node000004"><a xlink:title=" ">
<path fill="none" stroke="#63b8ff" d="M109.96,-109.95C109.96,-101.85 109.96,-92.5 109.96,-84.47"/>
<polygon fill="#63b8ff" stroke="#63b8ff" points="113.46,-84.26 109.96,-74.26 106.46,-84.26 113.46,-84.26"/>
</a>
</g>
</g>
<!-- Node5 -->
<g id="Node000005" class="node">
<title>Node5</title>
<g id="a_Node000005"><a xlink:href="board__console_8h.html" target="_top" xlink:title="Multi&#45;channel console log store backing the board view&#39;s tabbed console.">
<polygon fill="white" stroke="#666666" points="250.96,-74 154.96,-74 154.96,-55 250.96,-55 250.96,-74"/>
<text text-anchor="middle" x="202.96" y="-62" font-family="Helvetica,sans-Serif" font-size="10.00">board_console.h</text>
</a>
</g>
</g>
<!-- Node1&#45;&gt;Node5 -->
<g id="edge4_Node000001_Node000005" class="edge">
<title>Node1&#45;&gt;Node5</title>
<g id="a_edge4_Node000001_Node000005"><a xlink:title=" ">
<path fill="none" stroke="#63b8ff" d="M138.37,-109.95C152.29,-100.37 168.79,-89.02 181.62,-80.19"/>
<polygon fill="#63b8ff" stroke="#63b8ff" points="183.97,-82.81 190.23,-74.26 180.01,-77.05 183.97,-82.81"/>
</a>
</g>
</g>
<!-- Node6 -->
<g id="Node000006" class="node">
<title>Node6</title>
<g id="a_Node000006"><a xlink:href="board__periph__block_8h.html" target="_top" xlink:title="Decentralized peripheral&#45;block registry for the board emulator core.">
<polygon fill="white" stroke="#666666" points="390.46,-74 269.46,-74 269.46,-55 390.46,-55 390.46,-74"/>
<text text-anchor="middle" x="329.96" y="-62" font-family="Helvetica,sans-Serif" font-size="10.00">board_periph_block.h</text>
</a>
</g>
</g>
<!-- Node1&#45;&gt;Node6 -->
<g id="edge6_Node000001_Node000006" class="edge">
<title>Node1&#45;&gt;Node6</title>
<g id="a_edge6_Node000001_Node000006"><a xlink:title=" ">
<path fill="none" stroke="#63b8ff" d="M177.16,-109.95C214.45,-99.1 259.5,-86 290.99,-76.84"/>
<polygon fill="#63b8ff" stroke="#63b8ff" points="292.09,-80.16 300.71,-74.01 290.13,-73.44 292.09,-80.16"/>
</a>
</g>
</g>
<!-- Node5&#45;&gt;Node2 -->
<g id="edge5_Node000005_Node000002" class="edge">
<title>Node5&#45;&gt;Node2</title>
<g id="a_edge5_Node000005_Node000002"><a xlink:title=" ">
<path fill="none" stroke="#63b8ff" d="M202.96,-54.75C202.96,-47.8 202.96,-37.85 202.96,-29.13"/>
<polygon fill="#63b8ff" stroke="#63b8ff" points="206.46,-29.09 202.96,-19.09 199.46,-29.09 206.46,-29.09"/>
</a>
</g>
</g>
<!-- Node6&#45;&gt;Node2 -->
<g id="edge7_Node000006_Node000002" class="edge">
<title>Node6&#45;&gt;Node2</title>
<g id="a_edge7_Node000006_Node000002"><a xlink:title=" ">
<path fill="none" stroke="#63b8ff" d="M309.55,-54.98C288.94,-46.38 256.85,-32.99 233.26,-23.15"/>
<polygon fill="#63b8ff" stroke="#63b8ff" points="234.31,-19.79 223.73,-19.17 231.61,-26.25 234.31,-19.79"/>
</a>
</g>
</g>
<!-- Node7 -->
<g id="Node000007" class="node">
<title>Node7</title>
<g id="a_Node000007"><a xlink:title=" ">
<polygon fill="#e0e0e0" stroke="#999999" points="380.46,-19 279.46,-19 279.46,0 380.46,0 380.46,-19"/>
<text text-anchor="middle" x="329.96" y="-7" font-family="Helvetica,sans-Serif" font-size="10.00">unicorn/unicorn.h</text>
</a>
</g>
</g>
<!-- Node6&#45;&gt;Node7 -->
<g id="edge8_Node000006_Node000007" class="edge">
<title>Node6&#45;&gt;Node7</title>
<g id="a_edge8_Node000006_Node000007"><a xlink:title=" ">
<path fill="none" stroke="#63b8ff" d="M329.96,-54.75C329.96,-47.8 329.96,-37.85 329.96,-29.13"/>
<polygon fill="#63b8ff" stroke="#63b8ff" points="333.46,-29.09 329.96,-19.09 326.46,-29.09 333.46,-29.09"/>
</a>
</g>
</g>
</g>
</svg>
</svg>

<style type='text/css'>
<![CDATA[
[data-mouse-over-selected='false'] { opacity: 0.7; }
[data-mouse-over-selected='true']  { opacity: 1.0; }
]]>
</style>
<script type="application/ecmascript"><![CDATA[
document.addEventListener('DOMContentLoaded', (event) => {
  highlightEdges();
  highlightAdjacentNodes();
});
]]></script>
</svg>
