<?xml version="1.0" encoding="UTF-8" standalone="no"?>
<!DOCTYPE svg PUBLIC "-//W3C//DTD SVG 1.1//EN"
 "http://www.w3.org/Graphics/SVG/1.1/DTD/svg11.dtd">
<!-- Generated by graphviz version 2.43.0 (0)
 -->
<!-- Title: tools/ra8_emulator/inc/board_periph.h Pages: 1 -->
<!--zoomable 181 -->

<svg id="main" version="1.1" xmlns="http://www.w3.org/2000/svg" xmlns:xlink="http://www.w3.org/1999/xlink" xml:space="preserve" onload="init(evt)">

<style type="text/css"><![CDATA[
.node, .edge {opacity: 0.7;}
.node.selected, .edge.selected {opacity: 1;}
.edge:hover path { stroke: red; }
.edge:hover polygon { stroke: red; fill: red; }
]]></style>

<defs>
  <circle id="rim" cx="0" cy="0" r="7"/>
  <circle id="rim2" cx="0" cy="0" r="3.5"/>
  <g id="zoomPlus">
    <use xlink:href="#rim" fill="#404040"><set attributeName="fill" to="#808080" begin="zoomplus.mouseover" end="zoomplus.mouseout"/></use>
    <path d="M-4,0h8M0,-4v8" fill="none" stroke="white" stroke-width="1.5" pointer-events="none"/>
  </g>
  <g id="zoomMin">
    <use xlink:href="#rim" fill="#404040"><set attributeName="fill" to="#808080" begin="zoomminus.mouseover" end="zoomminus.mouseout"/></use>
    <path d="M-4,0h8" fill="none" stroke="white" stroke-width="1.5" pointer-events="none"/>
  </g>
  <g id="arrowUp" transform="translate(30 24)">
    <use xlink:href="#rim"/>
    <path pointer-events="none" fill="none" stroke="white" stroke-width="1.5" d="M0,-3.0v7 M-2.5,-0.5L0,-3.0L2.5,-0.5"/>
  </g>
  <g id="arrowRight" transform="rotate(90) translate(36 -43)">
    <use xlink:href="#rim"/>
    <path pointer-events="none" fill="none" stroke="white" stroke-width="1.5" d="M0,-3.0v7 M-2.5,-0.5L0,-3.0L2.5,-0.5"/>
  </g>
  <g id="arrowDown" transform="rotate(180) translate(-30 -48)">
    <use xlink:href="#rim"/>
    <path pointer-events="none" fill="none" stroke="white" stroke-width="1.5" d="M0,-3.0v7 M-2.5,-0.5L0,-3.0L2.5,-0.5"/>
  </g>
  <g id="arrowLeft" transform="rotate(270) translate(-36 17)">
    <use xlink:href="#rim"/>
    <path pointer-events="none" fill="none" stroke="white" stroke-width="1.5" d="M0,-3.0v7 M-2.5,-0.5L0,-3.0L2.5,-0.5"/>
  </g>
  <g id="resetDef">
    <use xlink:href="#rim2" fill="#404040"><set attributeName="fill" to="#808080" begin="reset.mouseover" end="reset.mouseout"/></use>
  </g>
</defs>
<script type="application/ecmascript">
var viewWidth = 2561;
var viewHeight = 181;
var sectionId = 'dynsection-1';
</script>
<script type="application/ecmascript" xlink:href="svg.min.js"/>
<svg id="graph" class="graph">
<g id="viewport">
<title>tools/ra8_emulator/inc/board_periph.h</title>
<!-- Node1 -->
<g id="Node000001" class="node">
<title>Node1</title>
<g id="a_Node000001"><a xlink:title="Register&#45;accurate peripheral&#45;model framework for the board emulator.">
<polygon fill="#999999" stroke="#666666" points="1228.5,-173 1118.5,-173 1118.5,-143 1228.5,-143 1228.5,-173"/>
<text text-anchor="start" x="1126.5" y="-161" font-family="Helvetica,sans-Serif" font-size="10.00">tools/ra8_emulator</text>
<text text-anchor="middle" x="1173.5" y="-150" font-family="Helvetica,sans-Serif" font-size="10.00">/inc/board_periph.h</text>
</a>
</g>
</g>
<!-- Node2 -->
<g id="Node000002" class="node">
<title>Node2</title>
<g id="a_Node000002"><a xlink:href="emu__args_8h.html" target="_top" xlink:title="ra8_emulator command&#45;line parsing (usage text + option decoding)">
<polygon fill="white" stroke="#666666" points="173,-101.5 64,-101.5 64,-71.5 173,-71.5 173,-101.5"/>
<text text-anchor="start" x="72" y="-89.5" font-family="Helvetica,sans-Serif" font-size="10.00">tools/ra8_emulator</text>
<text text-anchor="middle" x="118.5" y="-78.5" font-family="Helvetica,sans-Serif" font-size="10.00">/inc/emu_args.h</text>
</a>
</g>
</g>
<!-- Node1&#45;&gt;Node2 -->
<g id="edge1_Node000001_Node000002" class="edge">
<title>Node1&#45;&gt;Node2</title>
<g id="a_edge1_Node000001_Node000002"><a xlink:title=" ">
<path fill="none" stroke="#63b8ff" d="M1108.34,-155.61C918.09,-151.23 365.61,-136.3 187.5,-107 179.39,-105.67 170.88,-103.72 162.71,-101.58"/>
<polygon fill="#63b8ff" stroke="#63b8ff" points="1108.39,-159.11 1118.47,-155.84 1108.55,-152.11 1108.39,-159.11"/>
</a>
</g>
</g>
<!-- Node4 -->
<g id="Node000004" class="node">
<title>Node4</title>
<g id="a_Node000004"><a xlink:href="tools_2ra8__emulator_2src_2main_8c.html" target="_top" xlink:title="RA8D2 board emulator – boot a real .elf on a CPU emulator, with ticks.">
<polygon fill="white" stroke="#666666" points="256,-30 147,-30 147,0 256,0 256,-30"/>
<text text-anchor="start" x="155" y="-18" font-family="Helvetica,sans-Serif" font-size="10.00">tools/ra8_emulator</text>
<text text-anchor="middle" x="201.5" y="-7" font-family="Helvetica,sans-Serif" font-size="10.00">/src/main.c</text>
</a>
</g>
</g>
<!-- Node1&#45;&gt;Node4 -->
<g id="edge11_Node000001_Node000004" class="edge">
<title>Node1&#45;&gt;Node4</title>
<g id="a_edge11_Node000001_Node000004"><a xlink:title=" ">
<path fill="none" stroke="#63b8ff" d="M1108.08,-155.74C898.3,-151.42 254.17,-135.86 220.5,-107 198.44,-88.09 198.01,-50.78 199.7,-30.3"/>
<polygon fill="#63b8ff" stroke="#63b8ff" points="1108.26,-159.25 1118.32,-155.95 1108.4,-152.25 1108.26,-159.25"/>
</a>
</g>
</g>
<!-- Node5 -->
<g id="Node000005" class="node">
<title>Node5</title>
<g id="a_Node000005"><a xlink:href="emu__elf_8c.html" target="_top" xlink:title="ELF32 image services implementation (see emu_elf.h).">
<polygon fill="white" stroke="#666666" points="349.5,-101.5 229.5,-101.5 229.5,-71.5 349.5,-71.5 349.5,-101.5"/>
<text text-anchor="start" x="237.5" y="-89.5" font-family="Helvetica,sans-Serif" font-size="10.00">tools/ra8_emulator</text>
<text text-anchor="middle" x="289.5" y="-78.5" font-family="Helvetica,sans-Serif" font-size="10.00">/src/engine/emu_elf.c</text>
</a>
</g>
</g>
<!-- Node1&#45;&gt;Node5 -->
<g id="edge4_Node000001_Node000005" class="edge">
<title>Node1&#45;&gt;Node5</title>
<g id="a_edge4_Node000001_Node000005"><a xlink:title=" ">
<path fill="none" stroke="#63b8ff" d="M1108.21,-157.62C969.38,-157.93 635,-153.3 359.5,-107 351.41,-105.64 342.92,-103.71 334.75,-101.6"/>
<polygon fill="#63b8ff" stroke="#63b8ff" points="1108.27,-161.12 1118.26,-157.59 1108.25,-154.12 1108.27,-161.12"/>
</a>
</g>
</g>
<!-- Node6 -->
<g id="Node000006" class="node">
<title>Node6</title>
<g id="a_Node000006"><a xlink:href="emu__exc_8c.html" target="_top" xlink:title="Hand&#45;modelled Cortex&#45;M exception engine (see emu_exc.h).">
<polygon fill="white" stroke="#666666" points="493,-101.5 368,-101.5 368,-71.5 493,-71.5 493,-101.5"/>
<text text-anchor="start" x="376" y="-89.5" font-family="Helvetica,sans-Serif" font-size="10.00">tools/ra8_emulator</text>
<text text-anchor="middle" x="430.5" y="-78.5" font-family="Helvetica,sans-Serif" font-size="10.00">/src/engine/emu_exc.c</text>
</a>
</g>
</g>
<!-- Node1&#45;&gt;Node6 -->
<g id="edge5_Node000001_Node000006" class="edge">
<title>Node1&#45;&gt;Node6</title>
<g id="a_edge5_Node000001_Node000006"><a xlink:title=" ">
<path fill="none" stroke="#63b8ff" d="M1108.1,-156.24C987.52,-153.93 722.35,-144.61 502.5,-107 494.33,-105.6 485.75,-103.68 477.46,-101.59"/>
<polygon fill="#63b8ff" stroke="#63b8ff" points="1108.21,-159.74 1118.27,-156.43 1108.34,-152.74 1108.21,-159.74"/>
</a>
</g>
</g>
<!-- Node7 -->
<g id="Node000007" class="node">
<title>Node7</title>
<g id="a_Node000007"><a xlink:href="emu__exc__scs_8c.html" target="_top" xlink:title="SCS write watchers + DWT time base (see emu_exc.h).">
<polygon fill="white" stroke="#666666" points="657.5,-101.5 511.5,-101.5 511.5,-71.5 657.5,-71.5 657.5,-101.5"/>
<text text-anchor="start" x="519.5" y="-89.5" font-family="Helvetica,sans-Serif" font-size="10.00">tools/ra8_emulator</text>
<text text-anchor="middle" x="584.5" y="-78.5" font-family="Helvetica,sans-Serif" font-size="10.00">/src/engine/emu_exc_scs.c</text>
</a>
</g>
</g>
<!-- Node1&#45;&gt;Node7 -->
<g id="edge6_Node000001_Node000007" class="edge">
<title>Node1&#45;&gt;Node7</title>
<g id="a_edge6_Node000001_Node000007"><a xlink:title=" ">
<path fill="none" stroke="#63b8ff" d="M1107.93,-153.3C1011.11,-147.21 824.41,-133.07 667.5,-107 658.45,-105.5 648.91,-103.58 639.66,-101.53"/>
<polygon fill="#63b8ff" stroke="#63b8ff" points="1107.96,-156.81 1118.15,-153.93 1108.39,-149.82 1107.96,-156.81"/>
</a>
</g>
</g>
<!-- Node8 -->
<g id="Node000008" class="node">
<title>Node8</title>
<g id="a_Node000008"><a xlink:href="emu__mmio_8c.html" target="_top" xlink:title="Sparse MMIO model implementation (see emu_mmio.h).">
<polygon fill="white" stroke="#666666" points="813,-101.5 676,-101.5 676,-71.5 813,-71.5 813,-101.5"/>
<text text-anchor="start" x="684" y="-89.5" font-family="Helvetica,sans-Serif" font-size="10.00">tools/ra8_emulator</text>
<text text-anchor="middle" x="744.5" y="-78.5" font-family="Helvetica,sans-Serif" font-size="10.00">/src/engine/emu_mmio.c</text>
</a>
</g>
</g>
<!-- Node1&#45;&gt;Node8 -->
<g id="edge7_Node000001_Node000008" class="edge">
<title>Node1&#45;&gt;Node8</title>
<g id="a_edge7_Node000001_Node000008"><a xlink:title=" ">
<path fill="none" stroke="#63b8ff" d="M1108.39,-149.77C1037.67,-141.44 921.53,-126.38 822.5,-107 814.42,-105.42 805.92,-103.53 797.62,-101.56"/>
<polygon fill="#63b8ff" stroke="#63b8ff" points="1108.15,-153.27 1118.49,-150.95 1108.96,-146.31 1108.15,-153.27"/>
</a>
</g>
</g>
<!-- Node9 -->
<g id="Node000009" class="node">
<title>Node9</title>
<g id="a_Node000009"><a xlink:href="emu__run_8c.html" target="_top" xlink:title="Chunked run loop + report implementation (see emu_run.h).">
<polygon fill="white" stroke="#666666" points="955.5,-101.5 831.5,-101.5 831.5,-71.5 955.5,-71.5 955.5,-101.5"/>
<text text-anchor="start" x="839.5" y="-89.5" font-family="Helvetica,sans-Serif" font-size="10.00">tools/ra8_emulator</text>
<text text-anchor="middle" x="893.5" y="-78.5" font-family="Helvetica,sans-Serif" font-size="10.00">/src/engine/emu_run.c</text>
</a>
</g>
</g>
<!-- Node1&#45;&gt;Node9 -->
<g id="edge8_Node000001_Node000009" class="edge">
<title>Node1&#45;&gt;Node9</title>
<g id="a_edge8_Node000001_Node000009"><a xlink:title=" ">
<path fill="none" stroke="#63b8ff" d="M1108.43,-142.02C1067.12,-132.36 1012.57,-119.35 964.5,-107 957.81,-105.28 950.79,-103.42 943.87,-101.56"/>
<polygon fill="#63b8ff" stroke="#63b8ff" points="1107.84,-145.48 1118.37,-144.34 1109.43,-138.66 1107.84,-145.48"/>
</a>
</g>
</g>
<!-- Node10 -->
<g id="Node000010" class="node">
<title>Node10</title>
<g id="a_Node000010"><a xlink:href="emu__run__report_8c.html" target="_top" xlink:title="Run&#45;end report + finalize (see emu_run_internal.h).">
<polygon fill="white" stroke="#666666" points="1089.5,-107 973.5,-107 973.5,-66 1089.5,-66 1089.5,-107"/>
<text text-anchor="start" x="981.5" y="-95" font-family="Helvetica,sans-Serif" font-size="10.00">tools/ra8_emulator</text>
<text text-anchor="start" x="981.5" y="-84" font-family="Helvetica,sans-Serif" font-size="10.00">/src/engine/emu_run</text>
<text text-anchor="middle" x="1031.5" y="-73" font-family="Helvetica,sans-Serif" font-size="10.00">_report.c</text>
</a>
</g>
</g>
<!-- Node1&#45;&gt;Node10 -->
<g id="edge9_Node000001_Node000010" class="edge">
<title>Node1&#45;&gt;Node10</title>
<g id="a_edge9_Node000001_Node000010"><a xlink:title=" ">
<path fill="none" stroke="#63b8ff" d="M1135.72,-138.51C1115.9,-128.81 1091.63,-116.93 1071.49,-107.07"/>
<polygon fill="#63b8ff" stroke="#63b8ff" points="1134.24,-141.68 1144.76,-142.94 1137.32,-135.4 1134.24,-141.68"/>
</a>
</g>
</g>
<!-- Node11 -->
<g id="Node000011" class="node">
<title>Node11</title>
<g id="a_Node000011"><a xlink:href="emu__view_8c.html" target="_top" xlink:title="Board&#45;view presentation implementation (see emu_view.h).">
<polygon fill="white" stroke="#666666" points="1239,-101.5 1108,-101.5 1108,-71.5 1239,-71.5 1239,-101.5"/>
<text text-anchor="start" x="1116" y="-89.5" font-family="Helvetica,sans-Serif" font-size="10.00">tools/ra8_emulator</text>
<text text-anchor="middle" x="1173.5" y="-78.5" font-family="Helvetica,sans-Serif" font-size="10.00">/src/engine/emu_view.c</text>
</a>
</g>
</g>
<!-- Node1&#45;&gt;Node11 -->
<g id="edge10_Node000001_Node000011" class="edge">
<title>Node1&#45;&gt;Node11</title>
<g id="a_edge10_Node000001_Node000011"><a xlink:title=" ">
<path fill="none" stroke="#63b8ff" d="M1173.5,-132.75C1173.5,-122.31 1173.5,-110.49 1173.5,-101.54"/>
<polygon fill="#63b8ff" stroke="#63b8ff" points="1170,-132.94 1173.5,-142.94 1177,-132.94 1170,-132.94"/>
</a>
</g>
</g>
<!-- Node12 -->
<g id="Node000012" class="node">
<title>Node12</title>
<g id="a_Node000012"><a xlink:href="board__periph_8c.html" target="_top" xlink:title="Peripheral&#45;block registry core + ICU/NVIC routing for ra8_emulator.">
<polygon fill="white" stroke="#666666" points="1400,-101.5 1257,-101.5 1257,-71.5 1400,-71.5 1400,-101.5"/>
<text text-anchor="start" x="1265" y="-89.5" font-family="Helvetica,sans-Serif" font-size="10.00">tools/ra8_emulator</text>
<text text-anchor="middle" x="1328.5" y="-78.5" font-family="Helvetica,sans-Serif" font-size="10.00">/src/periph/board_periph.c</text>
</a>
</g>
</g>
<!-- Node1&#45;&gt;Node12 -->
<g id="edge12_Node000001_Node000012" class="edge">
<title>Node1&#45;&gt;Node12</title>
<g id="a_edge12_Node000001_Node000012"><a xlink:title=" ">
<path fill="none" stroke="#63b8ff" d="M1214.08,-138.81C1240.05,-127.16 1273.24,-112.28 1297.18,-101.54"/>
<polygon fill="#63b8ff" stroke="#63b8ff" points="1212.56,-135.65 1204.87,-142.94 1215.42,-142.04 1212.56,-135.65"/>
</a>
</g>
</g>
<!-- Node13 -->
<g id="Node000013" class="node">
<title>Node13</title>
<g id="a_Node000013"><a xlink:href="board__periph__eink_8c.html" target="_top" xlink:title="IT8951 e&#45;paper SPI&#45;device model for ra8_emulator.">
<polygon fill="white" stroke="#666666" points="1552.5,-107 1418.5,-107 1418.5,-66 1552.5,-66 1552.5,-107"/>
<text text-anchor="start" x="1426.5" y="-95" font-family="Helvetica,sans-Serif" font-size="10.00">tools/ra8_emulator</text>
<text text-anchor="start" x="1426.5" y="-84" font-family="Helvetica,sans-Serif" font-size="10.00">/src/periph/board_periph</text>
<text text-anchor="middle" x="1485.5" y="-73" font-family="Helvetica,sans-Serif" font-size="10.00">_eink.c</text>
</a>
</g>
</g>
<!-- Node1&#45;&gt;Node13 -->
<g id="edge13_Node000001_Node000013" class="edge">
<title>Node1&#45;&gt;Node13</title>
<g id="a_edge13_Node000001_Node000013"><a xlink:title=" ">
<path fill="none" stroke="#63b8ff" d="M1238.8,-143.94C1286.27,-134.26 1352.01,-120.46 1409.5,-107 1412.42,-106.32 1415.4,-105.61 1418.4,-104.88"/>
<polygon fill="#63b8ff" stroke="#63b8ff" points="1238.06,-140.52 1228.96,-145.94 1239.46,-147.38 1238.06,-140.52"/>
</a>
</g>
</g>
<!-- Node14 -->
<g id="Node000014" class="node">
<title>Node14</title>
<g id="a_Node000014"><a xlink:href="board__periph__glcdc_8c.html" target="_top" xlink:title="Graphics LCD Controller (GLCDC) framebuffer&#45;descriptor model for ra8_emulator.">
<polygon fill="white" stroke="#666666" points="1704.5,-107 1570.5,-107 1570.5,-66 1704.5,-66 1704.5,-107"/>
<text text-anchor="start" x="1578.5" y="-95" font-family="Helvetica,sans-Serif" font-size="10.00">tools/ra8_emulator</text>
<text text-anchor="start" x="1578.5" y="-84" font-family="Helvetica,sans-Serif" font-size="10.00">/src/periph/board_periph</text>
<text text-anchor="middle" x="1637.5" y="-73" font-family="Helvetica,sans-Serif" font-size="10.00">_glcdc.c</text>
</a>
</g>
</g>
<!-- Node1&#45;&gt;Node14 -->
<g id="edge14_Node000001_Node000014" class="edge">
<title>Node1&#45;&gt;Node14</title>
<g id="a_edge14_Node000001_Node000014"><a xlink:title=" ">
<path fill="none" stroke="#63b8ff" d="M1238.86,-151.05C1316.3,-143.44 1448.99,-128.6 1561.5,-107 1564.44,-106.44 1567.44,-105.82 1570.46,-105.18"/>
<polygon fill="#63b8ff" stroke="#63b8ff" points="1238.39,-147.58 1228.78,-152.04 1239.07,-154.55 1238.39,-147.58"/>
</a>
</g>
</g>
<!-- Node15 -->
<g id="Node000015" class="node">
<title>Node15</title>
<g id="a_Node000015"><a xlink:href="board__periph__gpio_8c.html" target="_top" xlink:title="GPIO / PORT peripheral&#45;block model for the board emulator.">
<polygon fill="white" stroke="#666666" points="1856.5,-107 1722.5,-107 1722.5,-66 1856.5,-66 1856.5,-107"/>
<text text-anchor="start" x="1730.5" y="-95" font-family="Helvetica,sans-Serif" font-size="10.00">tools/ra8_emulator</text>
<text text-anchor="start" x="1730.5" y="-84" font-family="Helvetica,sans-Serif" font-size="10.00">/src/periph/board_periph</text>
<text text-anchor="middle" x="1789.5" y="-73" font-family="Helvetica,sans-Serif" font-size="10.00">_gpio.c</text>
</a>
</g>
</g>
<!-- Node1&#45;&gt;Node15 -->
<g id="edge15_Node000001_Node000015" class="edge">
<title>Node1&#45;&gt;Node15</title>
<g id="a_edge15_Node000001_Node000015"><a xlink:title=" ">
<path fill="none" stroke="#63b8ff" d="M1238.83,-154.3C1340.82,-149.34 1543.77,-136.44 1713.5,-107 1716.45,-106.49 1719.46,-105.92 1722.49,-105.31"/>
<polygon fill="#63b8ff" stroke="#63b8ff" points="1238.51,-150.81 1228.69,-154.79 1238.84,-157.81 1238.51,-150.81"/>
</a>
</g>
</g>
<!-- Node16 -->
<g id="Node000016" class="node">
<title>Node16</title>
<g id="a_Node000016"><a xlink:href="board__periph__i2c_8c.html" target="_top" xlink:title="I3C&#45;in&#45;I2C&#45;mode (IIC_B) controller + GT911 touch + LSM6DSO IMU models plus an external&#45;controller sti...">
<polygon fill="white" stroke="#666666" points="2036.5,-101.5 1874.5,-101.5 1874.5,-71.5 2036.5,-71.5 2036.5,-101.5"/>
<text text-anchor="start" x="1882.5" y="-89.5" font-family="Helvetica,sans-Serif" font-size="10.00">tools/ra8_emulator</text>
<text text-anchor="middle" x="1955.5" y="-78.5" font-family="Helvetica,sans-Serif" font-size="10.00">/src/periph/board_periph_i2c.c</text>
</a>
</g>
</g>
<!-- Node1&#45;&gt;Node16 -->
<g id="edge16_Node000001_Node000016" class="edge">
<title>Node1&#45;&gt;Node16</title>
<g id="a_edge16_Node000001_Node000016"><a xlink:title=" ">
<path fill="none" stroke="#63b8ff" d="M1238.51,-155.36C1361.51,-151.59 1636.47,-139.92 1865.5,-107 1875.47,-105.57 1885.98,-103.66 1896.17,-101.6"/>
<polygon fill="#63b8ff" stroke="#63b8ff" points="1238.39,-151.86 1228.5,-155.66 1238.6,-158.86 1238.39,-151.86"/>
</a>
</g>
</g>
<!-- Node17 -->
<g id="Node000017" class="node">
<title>Node17</title>
<g id="a_Node000017"><a xlink:href="board__periph__i2c__devices_8c.html" target="_top" xlink:title="LSM6DSO IMU + MAX17048 fuel&#45;gauge device models on the I2C bus.">
<polygon fill="white" stroke="#666666" points="2188.5,-107 2054.5,-107 2054.5,-66 2188.5,-66 2188.5,-107"/>
<text text-anchor="start" x="2062.5" y="-95" font-family="Helvetica,sans-Serif" font-size="10.00">tools/ra8_emulator</text>
<text text-anchor="start" x="2062.5" y="-84" font-family="Helvetica,sans-Serif" font-size="10.00">/src/periph/board_periph</text>
<text text-anchor="middle" x="2121.5" y="-73" font-family="Helvetica,sans-Serif" font-size="10.00">_i2c_devices.c</text>
</a>
</g>
</g>
<!-- Node1&#45;&gt;Node17 -->
<g id="edge17_Node000001_Node000017" class="edge">
<title>Node1&#45;&gt;Node17</title>
<g id="a_edge17_Node000001_Node000017"><a xlink:title=" ">
<path fill="none" stroke="#63b8ff" d="M1238.84,-157.56C1384.56,-157.87 1746.81,-153.43 2045.5,-107 2048.33,-106.56 2051.2,-106.06 2054.1,-105.52"/>
<polygon fill="#63b8ff" stroke="#63b8ff" points="1238.74,-154.06 1228.73,-157.53 1238.72,-161.06 1238.74,-154.06"/>
</a>
</g>
</g>
<!-- Node18 -->
<g id="Node000018" class="node">
<title>Node18</title>
<g id="a_Node000018"><a xlink:href="board__periph__sci_8c.html" target="_top" xlink:title="SCI_B UART peripheral&#45;block model for the board emulator.">
<polygon fill="white" stroke="#666666" points="2368,-101.5 2207,-101.5 2207,-71.5 2368,-71.5 2368,-101.5"/>
<text text-anchor="start" x="2215" y="-89.5" font-family="Helvetica,sans-Serif" font-size="10.00">tools/ra8_emulator</text>
<text text-anchor="middle" x="2287.5" y="-78.5" font-family="Helvetica,sans-Serif" font-size="10.00">/src/periph/board_periph_sci.c</text>
</a>
</g>
</g>
<!-- Node1&#45;&gt;Node18 -->
<g id="edge18_Node000001_Node000018" class="edge">
<title>Node1&#45;&gt;Node18</title>
<g id="a_edge18_Node000001_Node000018"><a xlink:title=" ">
<path fill="none" stroke="#63b8ff" d="M1239.06,-157.53C1401.97,-158.02 1837.91,-154.41 2197.5,-107 2207.96,-105.62 2219.01,-103.66 2229.65,-101.5"/>
<polygon fill="#63b8ff" stroke="#63b8ff" points="1238.75,-154.02 1228.73,-157.49 1238.72,-161.02 1238.75,-154.02"/>
</a>
</g>
</g>
<!-- Node19 -->
<g id="Node000019" class="node">
<title>Node19</title>
<g id="a_Node000019"><a xlink:href="board__periph__wdt_8c.html" target="_top" xlink:title="Window Watchdog Timer (WDT0 / WWDT) model for ra8_emulator.">
<polygon fill="white" stroke="#666666" points="2552.5,-101.5 2386.5,-101.5 2386.5,-71.5 2552.5,-71.5 2552.5,-101.5"/>
<text text-anchor="start" x="2394.5" y="-89.5" font-family="Helvetica,sans-Serif" font-size="10.00">tools/ra8_emulator</text>
<text text-anchor="middle" x="2469.5" y="-78.5" font-family="Helvetica,sans-Serif" font-size="10.00">/src/periph/board_periph_wdt.c</text>
</a>
</g>
</g>
<!-- Node1&#45;&gt;Node19 -->
<g id="edge19_Node000001_Node000019" class="edge">
<title>Node1&#45;&gt;Node19</title>
<g id="a_edge19_Node000001_Node000019"><a xlink:title=" ">
<path fill="none" stroke="#63b8ff" d="M1239.15,-155.72C1456.93,-151.26 2154.38,-135.08 2377.5,-107 2388.19,-105.65 2399.49,-103.71 2410.36,-101.56"/>
<polygon fill="#63b8ff" stroke="#63b8ff" points="1238.76,-152.23 1228.84,-155.93 1238.91,-159.23 1238.76,-152.23"/>
</a>
</g>
</g>
<!-- Node3 -->
<g id="Node000003" class="node">
<title>Node3</title>
<g id="a_Node000003"><a xlink:href="emu__args_8c.html" target="_top" xlink:title="CLI parsing implementation (see emu_args.h).">
<polygon fill="white" stroke="#666666" points="129,-30 0,-30 0,0 129,0 129,-30"/>
<text text-anchor="start" x="8" y="-18" font-family="Helvetica,sans-Serif" font-size="10.00">tools/ra8_emulator</text>
<text text-anchor="middle" x="64.5" y="-7" font-family="Helvetica,sans-Serif" font-size="10.00">/src/engine/emu_args.c</text>
</a>
</g>
</g>
<!-- Node2&#45;&gt;Node3 -->
<g id="edge2_Node000002_Node000003" class="edge">
<title>Node2&#45;&gt;Node3</title>
<g id="a_edge2_Node000002_Node000003"><a xlink:title=" ">
<path fill="none" stroke="#63b8ff" d="M101.43,-63.53C92.92,-52.57 82.87,-39.65 75.41,-30.04"/>
<polygon fill="#63b8ff" stroke="#63b8ff" points="98.67,-65.69 107.57,-71.44 104.2,-61.39 98.67,-65.69"/>
</a>
</g>
</g>
<!-- Node2&#45;&gt;Node4 -->
<g id="edge3_Node000002_Node000004" class="edge">
<title>Node2&#45;&gt;Node4</title>
<g id="a_edge3_Node000002_Node000004"><a xlink:title=" ">
<path fill="none" stroke="#63b8ff" d="M143.21,-64.81C156.61,-53.59 172.81,-40.02 184.73,-30.04"/>
<polygon fill="#63b8ff" stroke="#63b8ff" points="140.72,-62.33 135.3,-71.44 145.21,-67.7 140.72,-62.33"/>
</a>
</g>
</g>
</g>
</svg>

<g id="navigator" transform="translate(0 0)" fill="#404254">
  <rect fill="#f2f5e9" fill-opacity="0.5" stroke="#606060" stroke-width=".5" x="0" y="0" width="60" height="60"/>
  <use id="zoomplus" xlink:href="#zoomPlus" x="17" y="9" onmousedown="handleZoom(evt,'in')"/>
  <use id="zoomminus" xlink:href="#zoomMin" x="42" y="9" onmousedown="handleZoom(evt,'out')"/>
  <use id="reset" xlink:href="#resetDef" x="30" y="36" onmousedown="handleReset()"/>
   <use id="arrowup" xlink:href="#arrowUp" x="0" y="0" onmousedown="handlePan(0,-1)"/>
  <use id="arrowright" xlink:href="#arrowRight" x="0" y="0" onmousedown="handlePan(1,0)"/>
  <use id="arrowdown" xlink:href="#arrowDown" x="0" y="0" onmousedown="handlePan(0,1)"/>
  <use id="arrowleft" xlink:href="#arrowLeft" x="0" y="0" onmousedown="handlePan(-1,0)"/>
</g>
<svg viewBox="0 0 15 15" width="100%" height="30px" preserveAspectRatio="xMaxYMin meet">
 <g id="arrow_out" transform="scale(0.3 0.3)">
  <a xlink:href="board__periph_8h__dep__incl_org.svg" target="_base">
   <rect id="button" ry="5" rx="5" y="6" x="6" height="38" width="38"
        fill="#f2f5e9" fill-opacity="0.5" stroke="#606060" stroke-width="1.0"/>
   <path id="arrow"
     d="M 11.500037,31.436501 C 11.940474,20.09759 22.043105,11.32322 32.158766,21.979434 L 37.068811,17.246167 C 37.068811,17.246167 37.088388,32 37.088388,32 L 22.160133,31.978069 C 22.160133,31.978069 26.997745,27.140456 26.997745,27.140456 C 18.528582,18.264221 13.291696,25.230495 11.500037,31.436501 z"
     style="fill:#404040;"/>
  </a>
 </g>
</svg>

<style type='text/css'>
<![CDATA[
[data-mouse-over-selected='false'] { opacity: 0.7; }
[data-mouse-over-selected='true']  { opacity: 1.0; }
]]>
</style>
<script type="application/ecmascript"><![CDATA[
document.addEventListener('DOMContentLoaded', (event) => {
  highlightEdges();
  highlightAdjacentNodes();
});
]]></script>
</svg>
