<?xml version="1.0" encoding="UTF-8" standalone="no"?>
<!DOCTYPE svg PUBLIC "-//W3C//DTD SVG 1.1//EN"
 "http://www.w3.org/Graphics/SVG/1.1/DTD/svg11.dtd">
<!-- Generated by graphviz version 2.43.0 (0)
 -->
<!-- Title: examples/ra8p1_foundation/npu_smoke/main.c Pages: 1 -->
<!--zoomable 258 -->

<svg id="main" version="1.1" xmlns="http://www.w3.org/2000/svg" xmlns:xlink="http://www.w3.org/1999/xlink" xml:space="preserve" onload="init(evt)">

<style type="text/css"><![CDATA[
.node, .edge {opacity: 0.7;}
.node.selected, .edge.selected {opacity: 1;}
.edge:hover path { stroke: red; }
.edge:hover polygon { stroke: red; fill: red; }
]]></style>

<defs>
  <circle id="rim" cx="0" cy="0" r="7"/>
  <circle id="rim2" cx="0" cy="0" r="3.5"/>
  <g id="zoomPlus">
    <use xlink:href="#rim" fill="#404040"><set attributeName="fill" to="#808080" begin="zoomplus.mouseover" end="zoomplus.mouseout"/></use>
    <path d="M-4,0h8M0,-4v8" fill="none" stroke="white" stroke-width="1.5" pointer-events="none"/>
  </g>
  <g id="zoomMin">
    <use xlink:href="#rim" fill="#404040"><set attributeName="fill" to="#808080" begin="zoomminus.mouseover" end="zoomminus.mouseout"/></use>
    <path d="M-4,0h8" fill="none" stroke="white" stroke-width="1.5" pointer-events="none"/>
  </g>
  <g id="arrowUp" transform="translate(30 24)">
    <use xlink:href="#rim"/>
    <path pointer-events="none" fill="none" stroke="white" stroke-width="1.5" d="M0,-3.0v7 M-2.5,-0.5L0,-3.0L2.5,-0.5"/>
  </g>
  <g id="arrowRight" transform="rotate(90) translate(36 -43)">
    <use xlink:href="#rim"/>
    <path pointer-events="none" fill="none" stroke="white" stroke-width="1.5" d="M0,-3.0v7 M-2.5,-0.5L0,-3.0L2.5,-0.5"/>
  </g>
  <g id="arrowDown" transform="rotate(180) translate(-30 -48)">
    <use xlink:href="#rim"/>
    <path pointer-events="none" fill="none" stroke="white" stroke-width="1.5" d="M0,-3.0v7 M-2.5,-0.5L0,-3.0L2.5,-0.5"/>
  </g>
  <g id="arrowLeft" transform="rotate(270) translate(-36 17)">
    <use xlink:href="#rim"/>
    <path pointer-events="none" fill="none" stroke="white" stroke-width="1.5" d="M0,-3.0v7 M-2.5,-0.5L0,-3.0L2.5,-0.5"/>
  </g>
  <g id="resetDef">
    <use xlink:href="#rim2" fill="#404040"><set attributeName="fill" to="#808080" begin="reset.mouseover" end="reset.mouseout"/></use>
  </g>
</defs>
<script type="application/ecmascript">
var viewWidth = 860;
var viewHeight = 258;
var sectionId = 'dynsection-0';
</script>
<script type="application/ecmascript" xlink:href="svg.min.js"/>
<svg id="graph" class="graph">
<g id="viewport">
<title>examples/ra8p1_foundation/npu_smoke/main.c</title>
<!-- Node1 -->
<g id="Node000001" class="node">
<title>Node1</title>
<g id="a_Node000001"><a xlink:title="RA8P1 Arm Ethos&#45;U55 NPU foundation smoke – runs a checkable stand&#45;in job.">
<polygon fill="#999999" stroke="#666666" points="522.97,-250 369.97,-250 369.97,-220 522.97,-220 522.97,-250"/>
<text text-anchor="start" x="377.97" y="-238" font-family="Helvetica,sans-Serif" font-size="10.00">examples/ra8p1_foundation</text>
<text text-anchor="middle" x="446.47" y="-227" font-family="Helvetica,sans-Serif" font-size="10.00">/npu_smoke/main.c</text>
</a>
</g>
</g>
<!-- Node2 -->
<g id="Node000002" class="node">
<title>Node2</title>
<g id="a_Node000002"><a xlink:title=" ">
<polygon fill="#e0e0e0" stroke="#999999" points="378.97,-19 325.97,-19 325.97,0 378.97,0 378.97,-19"/>
<text text-anchor="middle" x="352.47" y="-7" font-family="Helvetica,sans-Serif" font-size="10.00">stdint.h</text>
</a>
</g>
</g>
<!-- Node1&#45;&gt;Node2 -->
<g id="edge1_Node000001_Node000002" class="edge">
<title>Node1&#45;&gt;Node2</title>
<g id="a_edge1_Node000001_Node000002"><a xlink:title=" ">
<path fill="none" stroke="#63b8ff" d="M522.47,-219.9C636.48,-195.61 830.69,-140.12 754.47,-55 730.31,-28.02 484.03,-15.63 389.31,-11.83"/>
<polygon fill="#63b8ff" stroke="#63b8ff" points="389.18,-8.32 379.05,-11.43 388.91,-15.32 389.18,-8.32"/>
</a>
</g>
</g>
<!-- Node3 -->
<g id="Node000003" class="node">
<title>Node3</title>
<g id="a_Node000003"><a xlink:title=" ">
<polygon fill="#e0e0e0" stroke="#999999" points="852.47,-184 802.47,-184 802.47,-165 852.47,-165 852.47,-184"/>
<text text-anchor="middle" x="827.47" y="-172" font-family="Helvetica,sans-Serif" font-size="10.00">stdio.h</text>
</a>
</g>
</g>
<!-- Node1&#45;&gt;Node3 -->
<g id="edge2_Node000001_Node000003" class="edge">
<title>Node1&#45;&gt;Node3</title>
<g id="a_edge2_Node000001_Node000003"><a xlink:title=" ">
<path fill="none" stroke="#63b8ff" d="M523.12,-224.34C592.6,-215.22 697.7,-200.51 788.47,-184 789.73,-183.77 791.02,-183.53 792.32,-183.28"/>
<polygon fill="#63b8ff" stroke="#63b8ff" points="793.24,-186.66 802.34,-181.24 791.85,-179.8 793.24,-186.66"/>
</a>
</g>
</g>
<!-- Node4 -->
<g id="Node000004" class="node">
<title>Node4</title>
<g id="a_Node000004"><a xlink:href="ra8__board__ra8p1_8h.html" target="_top" xlink:title="Board&#45;support layer for the Renesas RA8P1 (R7KA8P1KFLCAC) target board.">
<polygon fill="white" stroke="#666666" points="202.97,-184 95.97,-184 95.97,-165 202.97,-165 202.97,-184"/>
<text text-anchor="middle" x="149.47" y="-172" font-family="Helvetica,sans-Serif" font-size="10.00">ra8_board_ra8p1.h</text>
</a>
</g>
</g>
<!-- Node1&#45;&gt;Node4 -->
<g id="edge3_Node000001_Node000004" class="edge">
<title>Node1&#45;&gt;Node4</title>
<g id="a_edge3_Node000001_Node000004"><a xlink:title=" ">
<path fill="none" stroke="#63b8ff" d="M375.33,-219.99C322.3,-209.54 251,-195.5 202.81,-186.01"/>
<polygon fill="#63b8ff" stroke="#63b8ff" points="203.38,-182.55 192.89,-184.05 202.03,-189.42 203.38,-182.55"/>
</a>
</g>
</g>
<!-- Node6 -->
<g id="Node000006" class="node">
<title>Node6</title>
<g id="a_Node000006"><a xlink:href="ra8__err_8h.html" target="_top" xlink:title="Error Code Definitions for ra8&#45;firmware.">
<polygon fill="white" stroke="#666666" points="285.97,-129 226.97,-129 226.97,-110 285.97,-110 285.97,-129"/>
<text text-anchor="middle" x="256.47" y="-117" font-family="Helvetica,sans-Serif" font-size="10.00">ra8_err.h</text>
</a>
</g>
</g>
<!-- Node1&#45;&gt;Node6 -->
<g id="edge16_Node000001_Node000006" class="edge">
<title>Node1&#45;&gt;Node6</title>
<g id="a_edge16_Node000001_Node000006"><a xlink:title=" ">
<path fill="none" stroke="#63b8ff" d="M369.67,-222.13C325.76,-213.68 276.65,-200.84 262.47,-184 252.11,-171.7 251.57,-152.93 253.05,-138.98"/>
<polygon fill="#63b8ff" stroke="#63b8ff" points="256.51,-139.45 254.51,-129.04 249.59,-138.43 256.51,-139.45"/>
</a>
</g>
</g>
<!-- Node8 -->
<g id="Node000008" class="node">
<title>Node8</title>
<g id="a_Node000008"><a xlink:href="ra8__cgc_8h.html" target="_top" xlink:title="High&#45;level Clock Generation Circuit driver.">
<polygon fill="white" stroke="#666666" points="334.97,-184 271.97,-184 271.97,-165 334.97,-165 334.97,-184"/>
<text text-anchor="middle" x="303.47" y="-172" font-family="Helvetica,sans-Serif" font-size="10.00">ra8_cgc.h</text>
</a>
</g>
</g>
<!-- Node1&#45;&gt;Node8 -->
<g id="edge10_Node000001_Node000008" class="edge">
<title>Node1&#45;&gt;Node8</title>
<g id="a_edge10_Node000001_Node000008"><a xlink:title=" ">
<path fill="none" stroke="#63b8ff" d="M412.21,-219.99C388.36,-210.23 356.82,-197.33 333.85,-187.93"/>
<polygon fill="#63b8ff" stroke="#63b8ff" points="335.17,-184.69 324.58,-184.14 332.51,-191.17 335.17,-184.69"/>
</a>
</g>
</g>
<!-- Node10 -->
<g id="Node000010" class="node">
<title>Node10</title>
<g id="a_Node000010"><a xlink:href="ra8__device_8h.html" target="_top" xlink:title="Compile&#45;time device selection for the RA8 multi&#45;chip build (RA8D2 / RA8P1).">
<polygon fill="white" stroke="#666666" points="459.97,-74 380.97,-74 380.97,-55 459.97,-55 459.97,-74"/>
<text text-anchor="middle" x="420.47" y="-62" font-family="Helvetica,sans-Serif" font-size="10.00">ra8_device.h</text>
</a>
</g>
</g>
<!-- Node1&#45;&gt;Node10 -->
<g id="edge14_Node000001_Node000010" class="edge">
<title>Node1&#45;&gt;Node10</title>
<g id="a_edge14_Node000001_Node000010"><a xlink:title=" ">
<path fill="none" stroke="#63b8ff" d="M444.29,-219.92C439.62,-189.65 428.62,-118.35 423.36,-84.27"/>
<polygon fill="#63b8ff" stroke="#63b8ff" points="426.8,-83.6 421.82,-74.25 419.88,-84.67 426.8,-83.6"/>
</a>
</g>
</g>
<!-- Node11 -->
<g id="Node000011" class="node">
<title>Node11</title>
<g id="a_Node000011"><a xlink:href="ra8__npu_8h.html" target="_top" xlink:title="Arm Ethos&#45;U55 NPU command/queue driver foundation (RA8P1&#45;only).">
<polygon fill="white" stroke="#666666" points="417.97,-184 352.97,-184 352.97,-165 417.97,-165 417.97,-184"/>
<text text-anchor="middle" x="385.47" y="-172" font-family="Helvetica,sans-Serif" font-size="10.00">ra8_npu.h</text>
</a>
</g>
</g>
<!-- Node1&#45;&gt;Node11 -->
<g id="edge17_Node000001_Node000011" class="edge">
<title>Node1&#45;&gt;Node11</title>
<g id="a_edge17_Node000001_Node000011"><a xlink:title=" ">
<path fill="none" stroke="#63b8ff" d="M431.7,-219.84C422.76,-211.26 411.32,-200.3 402.07,-191.42"/>
<polygon fill="#63b8ff" stroke="#63b8ff" points="404.25,-188.66 394.61,-184.27 399.4,-193.71 404.25,-188.66"/>
</a>
</g>
</g>
<!-- Node12 -->
<g id="Node000012" class="node">
<title>Node12</title>
<g id="a_Node000012"><a xlink:href="ra8__npu__regs_8h.html" target="_top" xlink:title="Arm Ethos&#45;U55 NPU register window on the Renesas RA8P1 (RA8P1&#45;only).">
<polygon fill="white" stroke="#666666" points="561.97,-129 470.97,-129 470.97,-110 561.97,-110 561.97,-129"/>
<text text-anchor="middle" x="516.47" y="-117" font-family="Helvetica,sans-Serif" font-size="10.00">ra8_npu_regs.h</text>
</a>
</g>
</g>
<!-- Node1&#45;&gt;Node12 -->
<g id="edge27_Node000001_Node000012" class="edge">
<title>Node1&#45;&gt;Node12</title>
<g id="a_edge27_Node000001_Node000012"><a xlink:title=" ">
<path fill="none" stroke="#63b8ff" d="M455.33,-219.63C468.15,-198.84 491.84,-160.44 505.66,-138.02"/>
<polygon fill="#63b8ff" stroke="#63b8ff" points="508.81,-139.58 511.08,-129.23 502.85,-135.9 508.81,-139.58"/>
</a>
</g>
</g>
<!-- Node14 -->
<g id="Node000014" class="node">
<title>Node14</title>
<g id="a_Node000014"><a xlink:href="ra8__npu__fake__cmd_8h.html" target="_top" xlink:title="ra8_emulator / host&#45;test command&#45;stream convention for the Ethos&#45;U55 model">
<polygon fill="white" stroke="#666666" points="745.97,-74 628.97,-74 628.97,-55 745.97,-55 745.97,-74"/>
<text text-anchor="middle" x="687.47" y="-62" font-family="Helvetica,sans-Serif" font-size="10.00">ra8_npu_fake_cmd.h</text>
</a>
</g>
</g>
<!-- Node1&#45;&gt;Node14 -->
<g id="edge25_Node000001_Node000014" class="edge">
<title>Node1&#45;&gt;Node14</title>
<g id="a_edge25_Node000001_Node000014"><a xlink:title=" ">
<path fill="none" stroke="#63b8ff" d="M466.6,-219.92C511.89,-188.26 621.37,-111.71 666.99,-79.82"/>
<polygon fill="#63b8ff" stroke="#63b8ff" points="669.03,-82.66 675.22,-74.06 665.02,-76.92 669.03,-82.66"/>
</a>
</g>
</g>
<!-- Node4&#45;&gt;Node2 -->
<g id="edge5_Node000004_Node000002" class="edge">
<title>Node4&#45;&gt;Node2</title>
<g id="a_edge5_Node000004_Node000002"><a xlink:title=" ">
<path fill="none" stroke="#63b8ff" d="M95.63,-168.45C44.84,-161.46 -19.87,-145.42 6.47,-110 43.77,-59.84 234,-27.32 315.42,-15.5"/>
<polygon fill="#63b8ff" stroke="#63b8ff" points="316.3,-18.91 325.7,-14.03 315.31,-11.98 316.3,-18.91"/>
</a>
</g>
</g>
<!-- Node5 -->
<g id="Node000005" class="node">
<title>Node5</title>
<g id="a_Node000005"><a xlink:title=" ">
<polygon fill="#e0e0e0" stroke="#999999" points="71.47,-129 15.47,-129 15.47,-110 71.47,-110 71.47,-129"/>
<text text-anchor="middle" x="43.47" y="-117" font-family="Helvetica,sans-Serif" font-size="10.00">stddef.h</text>
</a>
</g>
</g>
<!-- Node4&#45;&gt;Node5 -->
<g id="edge4_Node000004_Node000005" class="edge">
<title>Node4&#45;&gt;Node5</title>
<g id="a_edge4_Node000004_Node000005"><a xlink:title=" ">
<path fill="none" stroke="#63b8ff" d="M132.44,-164.98C115.54,-156.54 89.4,-143.47 69.82,-133.68"/>
<polygon fill="#63b8ff" stroke="#63b8ff" points="71.32,-130.51 60.81,-129.17 68.19,-136.77 71.32,-130.51"/>
</a>
</g>
</g>
<!-- Node4&#45;&gt;Node6 -->
<g id="edge6_Node000004_Node000006" class="edge">
<title>Node4&#45;&gt;Node6</title>
<g id="a_edge6_Node000004_Node000006"><a xlink:title=" ">
<path fill="none" stroke="#63b8ff" d="M166.66,-164.98C183.72,-156.54 210.1,-143.47 229.86,-133.68"/>
<polygon fill="#63b8ff" stroke="#63b8ff" points="231.55,-136.75 238.96,-129.17 228.45,-130.47 231.55,-136.75"/>
</a>
</g>
</g>
<!-- Node7 -->
<g id="Node000007" class="node">
<title>Node7</title>
<g id="a_Node000007"><a xlink:href="ra8__port__constants_8h.html" target="_top" xlink:title="Typed Port / Pin Constants for the RA8D2 IOPORT Module.">
<polygon fill="white" stroke="#666666" points="208.97,-129 89.97,-129 89.97,-110 208.97,-110 208.97,-129"/>
<text text-anchor="middle" x="149.47" y="-117" font-family="Helvetica,sans-Serif" font-size="10.00">ra8_port_constants.h</text>
</a>
</g>
</g>
<!-- Node4&#45;&gt;Node7 -->
<g id="edge8_Node000004_Node000007" class="edge">
<title>Node4&#45;&gt;Node7</title>
<g id="a_edge8_Node000004_Node000007"><a xlink:title=" ">
<path fill="none" stroke="#63b8ff" d="M149.47,-164.75C149.47,-157.8 149.47,-147.85 149.47,-139.13"/>
<polygon fill="#63b8ff" stroke="#63b8ff" points="152.97,-139.09 149.47,-129.09 145.97,-139.09 152.97,-139.09"/>
</a>
</g>
</g>
<!-- Node6&#45;&gt;Node2 -->
<g id="edge7_Node000006_Node000002" class="edge">
<title>Node6&#45;&gt;Node2</title>
<g id="a_edge7_Node000006_Node000002"><a xlink:title=" ">
<path fill="none" stroke="#63b8ff" d="M246.51,-109.8C233.21,-97.09 212.69,-73.01 225.47,-55 245.78,-26.36 286.01,-16.01 315.77,-12.35"/>
<polygon fill="#63b8ff" stroke="#63b8ff" points="316.22,-15.82 325.81,-11.31 315.51,-8.86 316.22,-15.82"/>
</a>
</g>
</g>
<!-- Node7&#45;&gt;Node2 -->
<g id="edge9_Node000007_Node000002" class="edge">
<title>Node7&#45;&gt;Node2</title>
<g id="a_edge9_Node000007_Node000002"><a xlink:title=" ">
<path fill="none" stroke="#63b8ff" d="M156.51,-109.85C167.95,-96.32 191.9,-70.15 217.47,-55 248.38,-36.68 287.81,-24.81 316.06,-17.97"/>
<polygon fill="#63b8ff" stroke="#63b8ff" points="316.98,-21.35 325.92,-15.68 315.39,-14.53 316.98,-21.35"/>
</a>
</g>
</g>
<!-- Node8&#45;&gt;Node6 -->
<g id="edge13_Node000008_Node000006" class="edge">
<title>Node8&#45;&gt;Node6</title>
<g id="a_edge13_Node000008_Node000006"><a xlink:title=" ">
<path fill="none" stroke="#63b8ff" d="M295.71,-164.75C289,-157.18 279.13,-146.05 270.96,-136.84"/>
<polygon fill="#63b8ff" stroke="#63b8ff" points="273.34,-134.25 264.08,-129.09 268.1,-138.89 273.34,-134.25"/>
</a>
</g>
</g>
<!-- Node9 -->
<g id="Node000009" class="node">
<title>Node9</title>
<g id="a_Node000009"><a xlink:href="ra8__cgc__regs_8h.html" target="_top" xlink:title="Clock Generation Circuit (CGC) field layouts for the Renesas RA8D2.">
<polygon fill="white" stroke="#666666" points="323.97,-74 234.97,-74 234.97,-55 323.97,-55 323.97,-74"/>
<text text-anchor="middle" x="279.47" y="-62" font-family="Helvetica,sans-Serif" font-size="10.00">ra8_cgc_regs.h</text>
</a>
</g>
</g>
<!-- Node8&#45;&gt;Node9 -->
<g id="edge11_Node000008_Node000009" class="edge">
<title>Node8&#45;&gt;Node9</title>
<g id="a_edge11_Node000008_Node000009"><a xlink:title=" ">
<path fill="none" stroke="#63b8ff" d="M302.74,-164.78C301.61,-152.45 299.04,-129.28 294.47,-110 292.37,-101.18 289.27,-91.62 286.42,-83.63"/>
<polygon fill="#63b8ff" stroke="#63b8ff" points="289.7,-82.39 282.94,-74.23 283.13,-84.82 289.7,-82.39"/>
</a>
</g>
</g>
<!-- Node9&#45;&gt;Node2 -->
<g id="edge12_Node000009_Node000002" class="edge">
<title>Node9&#45;&gt;Node2</title>
<g id="a_edge12_Node000009_Node000002"><a xlink:title=" ">
<path fill="none" stroke="#63b8ff" d="M291.2,-54.98C302.2,-47 318.89,-34.88 332.07,-25.31"/>
<polygon fill="#63b8ff" stroke="#63b8ff" points="334.49,-27.88 340.52,-19.17 330.38,-22.21 334.49,-27.88"/>
</a>
</g>
</g>
<!-- Node10&#45;&gt;Node2 -->
<g id="edge15_Node000010_Node000002" class="edge">
<title>Node10&#45;&gt;Node2</title>
<g id="a_edge15_Node000010_Node000002"><a xlink:title=" ">
<path fill="none" stroke="#63b8ff" d="M409.54,-54.98C399.39,-47.07 384.04,-35.11 371.82,-25.58"/>
<polygon fill="#63b8ff" stroke="#63b8ff" points="373.63,-22.56 363.59,-19.17 369.33,-28.08 373.63,-22.56"/>
</a>
</g>
</g>
<!-- Node11&#45;&gt;Node2 -->
<g id="edge18_Node000011_Node000002" class="edge">
<title>Node11&#45;&gt;Node2</title>
<g id="a_edge18_Node000011_Node000002"><a xlink:title=" ">
<path fill="none" stroke="#63b8ff" d="M383.69,-164.74C378.52,-139.2 363.38,-64.43 356.26,-29.23"/>
<polygon fill="#63b8ff" stroke="#63b8ff" points="359.66,-28.41 354.25,-19.31 352.8,-29.8 359.66,-28.41"/>
</a>
</g>
</g>
<!-- Node11&#45;&gt;Node6 -->
<g id="edge20_Node000011_Node000006" class="edge">
<title>Node11&#45;&gt;Node6</title>
<g id="a_edge20_Node000011_Node000006"><a xlink:title=" ">
<path fill="none" stroke="#63b8ff" d="M364.74,-164.98C343.71,-156.34 310.92,-142.87 286.93,-133.02"/>
<polygon fill="#63b8ff" stroke="#63b8ff" points="288.15,-129.73 277.57,-129.17 285.49,-136.21 288.15,-129.73"/>
</a>
</g>
</g>
<!-- Node11&#45;&gt;Node10 -->
<g id="edge19_Node000011_Node000010" class="edge">
<title>Node11&#45;&gt;Node10</title>
<g id="a_edge19_Node000011_Node000010"><a xlink:title=" ">
<path fill="none" stroke="#63b8ff" d="M388.33,-164.66C394.02,-147.09 406.87,-107.45 414.49,-83.95"/>
<polygon fill="#63b8ff" stroke="#63b8ff" points="417.91,-84.75 417.66,-74.16 411.25,-82.59 417.91,-84.75"/>
</a>
</g>
</g>
<!-- Node11&#45;&gt;Node12 -->
<g id="edge21_Node000011_Node000012" class="edge">
<title>Node11&#45;&gt;Node12</title>
<g id="a_edge21_Node000011_Node000012"><a xlink:title=" ">
<path fill="none" stroke="#63b8ff" d="M406.51,-164.98C427.87,-156.34 461.17,-142.87 485.53,-133.02"/>
<polygon fill="#63b8ff" stroke="#63b8ff" points="487.08,-136.17 495.04,-129.17 484.45,-129.68 487.08,-136.17"/>
</a>
</g>
</g>
<!-- Node12&#45;&gt;Node2 -->
<g id="edge22_Node000012_Node000002" class="edge">
<title>Node12&#45;&gt;Node2</title>
<g id="a_edge22_Node000012_Node000002"><a xlink:title=" ">
<path fill="none" stroke="#63b8ff" d="M512.03,-109.88C504.69,-96.4 488.79,-70.29 468.47,-55 444.94,-37.3 413.52,-25.82 389.32,-18.97"/>
<polygon fill="#63b8ff" stroke="#63b8ff" points="390,-15.53 379.43,-16.31 388.18,-22.28 390,-15.53"/>
</a>
</g>
</g>
<!-- Node12&#45;&gt;Node10 -->
<g id="edge24_Node000012_Node000010" class="edge">
<title>Node12&#45;&gt;Node10</title>
<g id="a_edge24_Node000012_Node000010"><a xlink:title=" ">
<path fill="none" stroke="#63b8ff" d="M501.04,-109.98C486.02,-101.69 462.93,-88.94 445.31,-79.22"/>
<polygon fill="#63b8ff" stroke="#63b8ff" points="446.62,-75.94 436.17,-74.17 443.23,-82.07 446.62,-75.94"/>
</a>
</g>
</g>
<!-- Node13 -->
<g id="Node000013" class="node">
<title>Node13</title>
<g id="a_Node000013"><a xlink:href="ra8__attributes_8h.html" target="_top" xlink:title="Annotation&#45;attribute framework macros for ra8&#45;firmware.">
<polygon fill="white" stroke="#666666" points="610.47,-74 516.47,-74 516.47,-55 610.47,-55 610.47,-74"/>
<text text-anchor="middle" x="563.47" y="-62" font-family="Helvetica,sans-Serif" font-size="10.00">ra8_attributes.h</text>
</a>
</g>
</g>
<!-- Node12&#45;&gt;Node13 -->
<g id="edge23_Node000012_Node000013" class="edge">
<title>Node12&#45;&gt;Node13</title>
<g id="a_edge23_Node000012_Node000013"><a xlink:title=" ">
<path fill="none" stroke="#63b8ff" d="M524.23,-109.75C530.93,-102.18 540.81,-91.05 548.97,-81.84"/>
<polygon fill="#63b8ff" stroke="#63b8ff" points="551.83,-83.89 555.85,-74.09 546.6,-79.25 551.83,-83.89"/>
</a>
</g>
</g>
<!-- Node14&#45;&gt;Node2 -->
<g id="edge26_Node000014_Node000002" class="edge">
<title>Node14&#45;&gt;Node2</title>
<g id="a_edge26_Node000014_Node000002"><a xlink:title=" ">
<path fill="none" stroke="#63b8ff" d="M633.64,-54.98C565.07,-44.14 448.38,-25.67 389.21,-16.31"/>
<polygon fill="#63b8ff" stroke="#63b8ff" points="389.62,-12.83 379.19,-14.73 388.52,-19.75 389.62,-12.83"/>
</a>
</g>
</g>
</g>
</svg>

<g id="navigator" transform="translate(0 0)" fill="#404254">
  <rect fill="#f2f5e9" fill-opacity="0.5" stroke="#606060" stroke-width=".5" x="0" y="0" width="60" height="60"/>
  <use id="zoomplus" xlink:href="#zoomPlus" x="17" y="9" onmousedown="handleZoom(evt,'in')"/>
  <use id="zoomminus" xlink:href="#zoomMin" x="42" y="9" onmousedown="handleZoom(evt,'out')"/>
  <use id="reset" xlink:href="#resetDef" x="30" y="36" onmousedown="handleReset()"/>
   <use id="arrowup" xlink:href="#arrowUp" x="0" y="0" onmousedown="handlePan(0,-1)"/>
  <use id="arrowright" xlink:href="#arrowRight" x="0" y="0" onmousedown="handlePan(1,0)"/>
  <use id="arrowdown" xlink:href="#arrowDown" x="0" y="0" onmousedown="handlePan(0,1)"/>
  <use id="arrowleft" xlink:href="#arrowLeft" x="0" y="0" onmousedown="handlePan(-1,0)"/>
</g>
<svg viewBox="0 0 15 15" width="100%" height="30px" preserveAspectRatio="xMaxYMin meet">
 <g id="arrow_out" transform="scale(0.3 0.3)">
  <a xlink:href="examples_2ra8p1__foundation_2npu__smoke_2main_8c__incl_org.svg" target="_base">
   <rect id="button" ry="5" rx="5" y="6" x="6" height="38" width="38"
        fill="#f2f5e9" fill-opacity="0.5" stroke="#606060" stroke-width="1.0"/>
   <path id="arrow"
     d="M 11.500037,31.436501 C 11.940474,20.09759 22.043105,11.32322 32.158766,21.979434 L 37.068811,17.246167 C 37.068811,17.246167 37.088388,32 37.088388,32 L 22.160133,31.978069 C 22.160133,31.978069 26.997745,27.140456 26.997745,27.140456 C 18.528582,18.264221 13.291696,25.230495 11.500037,31.436501 z"
     style="fill:#404040;"/>
  </a>
 </g>
</svg>

<style type='text/css'>
<![CDATA[
[data-mouse-over-selected='false'] { opacity: 0.7; }
[data-mouse-over-selected='true']  { opacity: 1.0; }
]]>
</style>
<script type="application/ecmascript"><![CDATA[
document.addEventListener('DOMContentLoaded', (event) => {
  highlightEdges();
  highlightAdjacentNodes();
});
]]></script>
</svg>
