<?xml version="1.0" encoding="UTF-8" standalone="no"?>
<!DOCTYPE svg PUBLIC "-//W3C//DTD SVG 1.1//EN"
 "http://www.w3.org/Graphics/SVG/1.1/DTD/svg11.dtd">
<!-- Generated by graphviz version 2.43.0 (0)
 -->
<!-- Title: apps/shared_libs/jof/src/jof_png.c Pages: 1 -->
<svg width="722pt" height="368pt"
 viewBox="0.00 0.00 722.00 368.00" xmlns="http://www.w3.org/2000/svg" xmlns:xlink="http://www.w3.org/1999/xlink">
<g id="graph0" class="graph" transform="scale(1 1) rotate(0) translate(4 364)">
<title>apps/shared_libs/jof/src/jof_png.c</title>
<!-- Node1 -->
<g id="Node000001" class="node">
<title>Node1</title>
<g id="a_Node000001"><a xlink:title="Streaming PNG scanline decoder for the transcode producer (#231).">
<polygon fill="#999999" stroke="#666666" points="384,-360 270,-360 270,-330 384,-330 384,-360"/>
<text text-anchor="start" x="278" y="-348" font-family="Helvetica,sans-Serif" font-size="10.00">apps/shared_libs/jof</text>
<text text-anchor="middle" x="327" y="-337" font-family="Helvetica,sans-Serif" font-size="10.00">/src/jof_png.c</text>
</a>
</g>
</g>
<!-- Node2 -->
<g id="Node000002" class="node">
<title>Node2</title>
<g id="a_Node000002"><a xlink:title=" ">
<polygon fill="#e0e0e0" stroke="#999999" points="198,-74 142,-74 142,-55 198,-55 198,-74"/>
<text text-anchor="middle" x="170" y="-62" font-family="Helvetica,sans-Serif" font-size="10.00">stddef.h</text>
</a>
</g>
</g>
<!-- Node1&#45;&gt;Node2 -->
<g id="edge1_Node000001_Node000002" class="edge">
<title>Node1&#45;&gt;Node2</title>
<g id="a_edge1_Node000001_Node000002"><a xlink:title=" ">
<path fill="none" stroke="#63b8ff" d="M269.98,-341.28C192.85,-336.5 60.7,-324.08 24,-294 0.66,-274.88 0,-260.67 0,-230.5 0,-230.5 0,-230.5 0,-173.5 0,-111.35 81.96,-83.44 132.06,-72.18"/>
<polygon fill="#63b8ff" stroke="#63b8ff" points="132.87,-75.59 141.93,-70.09 131.42,-68.74 132.87,-75.59"/>
</a>
</g>
</g>
<!-- Node3 -->
<g id="Node000003" class="node">
<title>Node3</title>
<g id="a_Node000003"><a xlink:title=" ">
<polygon fill="#e0e0e0" stroke="#999999" points="376.5,-19 323.5,-19 323.5,0 376.5,0 376.5,-19"/>
<text text-anchor="middle" x="350" y="-7" font-family="Helvetica,sans-Serif" font-size="10.00">stdint.h</text>
</a>
</g>
</g>
<!-- Node1&#45;&gt;Node3 -->
<g id="edge2_Node000001_Node000003" class="edge">
<title>Node1&#45;&gt;Node3</title>
<g id="a_edge2_Node000001_Node000003"><a xlink:title=" ">
<path fill="none" stroke="#63b8ff" d="M269.9,-333.61C185.68,-316.63 38,-279.82 38,-230.5 38,-230.5 38,-230.5 38,-118.5 38,-73.8 75.47,-73.86 116,-55 181.18,-24.66 265.75,-15.01 313.31,-11.93"/>
<polygon fill="#63b8ff" stroke="#63b8ff" points="313.67,-15.42 323.45,-11.34 313.26,-8.43 313.67,-15.42"/>
</a>
</g>
</g>
<!-- Node4 -->
<g id="Node000004" class="node">
<title>Node4</title>
<g id="a_Node000004"><a xlink:title=" ">
<polygon fill="#e0e0e0" stroke="#999999" points="225.5,-294 172.5,-294 172.5,-275 225.5,-275 225.5,-294"/>
<text text-anchor="middle" x="199" y="-282" font-family="Helvetica,sans-Serif" font-size="10.00">string.h</text>
</a>
</g>
</g>
<!-- Node1&#45;&gt;Node4 -->
<g id="edge3_Node000001_Node000004" class="edge">
<title>Node1&#45;&gt;Node4</title>
<g id="a_edge3_Node000001_Node000004"><a xlink:title=" ">
<path fill="none" stroke="#63b8ff" d="M296.34,-329.99C275.27,-320.36 247.51,-307.67 227.03,-298.31"/>
<polygon fill="#63b8ff" stroke="#63b8ff" points="228.45,-295.11 217.9,-294.14 225.54,-301.48 228.45,-295.11"/>
</a>
</g>
</g>
<!-- Node5 -->
<g id="Node000005" class="node">
<title>Node5</title>
<g id="a_Node000005"><a xlink:href="jof__internal_8h.html" target="_top" xlink:title="Module&#45;private seams shared by the producer translation units.">
<polygon fill="white" stroke="#666666" points="263.5,-239 182.5,-239 182.5,-220 263.5,-220 263.5,-239"/>
<text text-anchor="middle" x="223" y="-227" font-family="Helvetica,sans-Serif" font-size="10.00">jof_internal.h</text>
</a>
</g>
</g>
<!-- Node1&#45;&gt;Node5 -->
<g id="edge4_Node000001_Node000005" class="edge">
<title>Node1&#45;&gt;Node5</title>
<g id="a_edge4_Node000001_Node000005"><a xlink:title=" ">
<path fill="none" stroke="#63b8ff" d="M312.61,-329.79C302.72,-319.9 289.37,-306.33 278,-294 263.71,-278.49 248.01,-260.24 237.06,-247.29"/>
<polygon fill="#63b8ff" stroke="#63b8ff" points="239.43,-244.67 230.31,-239.28 234.07,-249.18 239.43,-244.67"/>
</a>
</g>
</g>
<!-- Node8 -->
<g id="Node000008" class="node">
<title>Node8</title>
<g id="a_Node000008"><a xlink:href="ra8__err_8h.html" target="_top" xlink:title="Error Code Definitions for ra8&#45;firmware.">
<polygon fill="white" stroke="#666666" points="379.5,-74 320.5,-74 320.5,-55 379.5,-55 379.5,-74"/>
<text text-anchor="middle" x="350" y="-62" font-family="Helvetica,sans-Serif" font-size="10.00">ra8_err.h</text>
</a>
</g>
</g>
<!-- Node1&#45;&gt;Node8 -->
<g id="edge34_Node000001_Node000008" class="edge">
<title>Node1&#45;&gt;Node8</title>
<g id="a_edge34_Node000001_Node000008"><a xlink:title=" ">
<path fill="none" stroke="#63b8ff" d="M323.14,-329.95C315.37,-299.58 299.53,-225.7 311,-165 314.05,-148.88 331.49,-107.56 341.99,-83.54"/>
<polygon fill="#63b8ff" stroke="#63b8ff" points="345.3,-84.71 346.13,-74.15 338.89,-81.89 345.3,-84.71"/>
</a>
</g>
</g>
<!-- Node9 -->
<g id="Node000009" class="node">
<title>Node9</title>
<g id="a_Node000009"><a xlink:href="ra8__attributes_8h.html" target="_top" xlink:title="Annotation&#45;attribute framework macros for ra8&#45;firmware.">
<polygon fill="white" stroke="#666666" points="414,-184 320,-184 320,-165 414,-165 414,-184"/>
<text text-anchor="middle" x="367" y="-172" font-family="Helvetica,sans-Serif" font-size="10.00">ra8_attributes.h</text>
</a>
</g>
</g>
<!-- Node1&#45;&gt;Node9 -->
<g id="edge26_Node000001_Node000009" class="edge">
<title>Node1&#45;&gt;Node9</title>
<g id="a_edge26_Node000001_Node000009"><a xlink:title=" ">
<path fill="none" stroke="#63b8ff" d="M330.34,-329.92C337.53,-299.65 354.45,-228.35 362.54,-194.27"/>
<polygon fill="#63b8ff" stroke="#63b8ff" points="366.02,-194.79 364.92,-184.25 359.21,-193.18 366.02,-194.79"/>
</a>
</g>
</g>
<!-- Node10 -->
<g id="Node000010" class="node">
<title>Node10</title>
<g id="a_Node000010"><a xlink:href="jof__png__internal_8h.html" target="_top" xlink:title="Module&#45;private declarations shared by the two PNG decoder units.">
<polygon fill="white" stroke="#666666" points="494,-294 390,-294 390,-275 494,-275 494,-294"/>
<text text-anchor="middle" x="442" y="-282" font-family="Helvetica,sans-Serif" font-size="10.00">jof_png_internal.h</text>
</a>
</g>
</g>
<!-- Node1&#45;&gt;Node10 -->
<g id="edge18_Node000001_Node000010" class="edge">
<title>Node1&#45;&gt;Node10</title>
<g id="a_edge18_Node000001_Node000010"><a xlink:title=" ">
<path fill="none" stroke="#63b8ff" d="M354.55,-329.99C373.22,-320.49 397.74,-308.02 416.06,-298.69"/>
<polygon fill="#63b8ff" stroke="#63b8ff" points="417.69,-301.79 425.02,-294.14 414.52,-295.55 417.69,-301.79"/>
</a>
</g>
</g>
<!-- Node11 -->
<g id="Node000011" class="node">
<title>Node11</title>
<g id="a_Node000011"><a xlink:title=" ">
<polygon fill="#e0e0e0" stroke="#999999" points="599.5,-239 546.5,-239 546.5,-220 599.5,-220 599.5,-239"/>
<text text-anchor="middle" x="573" y="-227" font-family="Helvetica,sans-Serif" font-size="10.00">miniz.h</text>
</a>
</g>
</g>
<!-- Node1&#45;&gt;Node11 -->
<g id="edge25_Node000001_Node000011" class="edge">
<title>Node1&#45;&gt;Node11</title>
<g id="a_edge25_Node000001_Node000011"><a xlink:title=" ">
<path fill="none" stroke="#63b8ff" d="M384.27,-334.66C420,-327.2 466.06,-314.5 503,-294 525.07,-281.75 545.89,-261.3 558.99,-246.92"/>
<polygon fill="#63b8ff" stroke="#63b8ff" points="561.76,-249.07 565.77,-239.27 556.52,-244.43 561.76,-249.07"/>
</a>
</g>
</g>
<!-- Node12 -->
<g id="Node000012" class="node">
<title>Node12</title>
<g id="a_Node000012"><a xlink:href="ra8__check_8h.html" target="_top" xlink:title="Validation and Error&#45;Checking Macros for ra8&#45;firmware.">
<polygon fill="white" stroke="#666666" points="621.5,-129 546.5,-129 546.5,-110 621.5,-110 621.5,-129"/>
<text text-anchor="middle" x="584" y="-117" font-family="Helvetica,sans-Serif" font-size="10.00">ra8_check.h</text>
</a>
</g>
</g>
<!-- Node1&#45;&gt;Node12 -->
<g id="edge27_Node000001_Node000012" class="edge">
<title>Node1&#45;&gt;Node12</title>
<g id="a_edge27_Node000001_Node000012"><a xlink:title=" ">
<path fill="none" stroke="#63b8ff" d="M384.12,-343.27C453.74,-338.78 567.28,-318.88 609,-239 626.28,-205.91 607.57,-161.72 594.48,-137.75"/>
<polygon fill="#63b8ff" stroke="#63b8ff" points="597.51,-136 589.49,-129.07 591.44,-139.48 597.51,-136"/>
</a>
</g>
</g>
<!-- Node13 -->
<g id="Node000013" class="node">
<title>Node13</title>
<g id="a_Node000013"><a xlink:href="ra8__log_8h.html" target="_top" xlink:title="Lightweight Logging Interface for ra8&#45;firmware.">
<polygon fill="white" stroke="#666666" points="714,-74 652,-74 652,-55 714,-55 714,-74"/>
<text text-anchor="middle" x="683" y="-62" font-family="Helvetica,sans-Serif" font-size="10.00">ra8_log.h</text>
</a>
</g>
</g>
<!-- Node1&#45;&gt;Node13 -->
<g id="edge35_Node000001_Node000013" class="edge">
<title>Node1&#45;&gt;Node13</title>
<g id="a_edge35_Node000001_Node000013"><a xlink:title=" ">
<path fill="none" stroke="#63b8ff" d="M384.01,-337.46C483.19,-324.49 677,-291.34 677,-230.5 677,-230.5 677,-230.5 677,-173.5 677,-142.14 679.55,-105.74 681.33,-84.22"/>
<polygon fill="#63b8ff" stroke="#63b8ff" points="684.82,-84.43 682.19,-74.17 677.85,-83.83 684.82,-84.43"/>
</a>
</g>
</g>
<!-- Node5&#45;&gt;Node2 -->
<g id="edge5_Node000005_Node000002" class="edge">
<title>Node5&#45;&gt;Node2</title>
<g id="a_edge5_Node000005_Node000002"><a xlink:title=" ">
<path fill="none" stroke="#63b8ff" d="M184.99,-219.85C165.88,-213.37 144.4,-202.36 133,-184 112.63,-151.21 138.88,-106.29 156.48,-82.27"/>
<polygon fill="#63b8ff" stroke="#63b8ff" points="159.39,-84.23 162.69,-74.16 153.83,-79.97 159.39,-84.23"/>
</a>
</g>
</g>
<!-- Node5&#45;&gt;Node3 -->
<g id="edge6_Node000005_Node000003" class="edge">
<title>Node5&#45;&gt;Node3</title>
<g id="a_edge6_Node000005_Node000003"><a xlink:title=" ">
<path fill="none" stroke="#63b8ff" d="M184.99,-219.85C165.88,-213.37 144.4,-202.36 133,-184 102.75,-135.3 96.76,-99.43 133,-55 155.32,-27.63 257.31,-16.63 313.16,-12.6"/>
<polygon fill="#63b8ff" stroke="#63b8ff" points="313.61,-16.07 323.35,-11.9 313.14,-9.09 313.61,-16.07"/>
</a>
</g>
</g>
<!-- Node6 -->
<g id="Node000006" class="node">
<title>Node6</title>
<g id="a_Node000006"><a xlink:href="jof__produce_8h.html" target="_top" xlink:title="Import&#45;time transcode producer: JPEG/PNG/WebP &#45;&gt; JOF band&#45;tile atlas in bounded RAM (#231,...">
<polygon fill="white" stroke="#666666" points="225.5,-184 142.5,-184 142.5,-165 225.5,-165 225.5,-184"/>
<text text-anchor="middle" x="184" y="-172" font-family="Helvetica,sans-Serif" font-size="10.00">jof_produce.h</text>
</a>
</g>
</g>
<!-- Node5&#45;&gt;Node6 -->
<g id="edge7_Node000005_Node000006" class="edge">
<title>Node5&#45;&gt;Node6</title>
<g id="a_edge7_Node000005_Node000006"><a xlink:title=" ">
<path fill="none" stroke="#63b8ff" d="M216.56,-219.75C211.11,-212.34 203.14,-201.5 196.44,-192.41"/>
<polygon fill="#63b8ff" stroke="#63b8ff" points="199.07,-190.07 190.32,-184.09 193.43,-194.22 199.07,-190.07"/>
</a>
</g>
</g>
<!-- Node5&#45;&gt;Node8 -->
<g id="edge17_Node000005_Node000008" class="edge">
<title>Node5&#45;&gt;Node8</title>
<g id="a_edge17_Node000005_Node000008"><a xlink:title=" ">
<path fill="none" stroke="#63b8ff" d="M229.83,-219.74C250.07,-193.76 310.01,-116.83 336.8,-82.44"/>
<polygon fill="#63b8ff" stroke="#63b8ff" points="339.75,-84.35 343.14,-74.31 334.23,-80.04 339.75,-84.35"/>
</a>
</g>
</g>
<!-- Node5&#45;&gt;Node9 -->
<g id="edge16_Node000005_Node000009" class="edge">
<title>Node5&#45;&gt;Node9</title>
<g id="a_edge16_Node000005_Node000009"><a xlink:title=" ">
<path fill="none" stroke="#63b8ff" d="M246.14,-219.98C269.82,-211.27 306.87,-197.63 333.71,-187.75"/>
<polygon fill="#63b8ff" stroke="#63b8ff" points="335.27,-190.91 343.44,-184.17 332.85,-184.34 335.27,-190.91"/>
</a>
</g>
</g>
<!-- Node6&#45;&gt;Node2 -->
<g id="edge8_Node000006_Node000002" class="edge">
<title>Node6&#45;&gt;Node2</title>
<g id="a_edge8_Node000006_Node000002"><a xlink:title=" ">
<path fill="none" stroke="#63b8ff" d="M182.19,-164.67C180.4,-155.72 177.7,-141.44 176,-129 173.95,-114.05 172.39,-97.02 171.37,-84.36"/>
<polygon fill="#63b8ff" stroke="#63b8ff" points="174.84,-83.86 170.59,-74.15 167.86,-84.39 174.84,-83.86"/>
</a>
</g>
</g>
<!-- Node6&#45;&gt;Node3 -->
<g id="edge9_Node000006_Node000003" class="edge">
<title>Node6&#45;&gt;Node3</title>
<g id="a_edge9_Node000006_Node000003"><a xlink:title=" ">
<path fill="none" stroke="#63b8ff" d="M185.77,-164.94C188.79,-151.99 195.89,-127.12 209,-110 239.53,-70.11 290.55,-39.8 322.12,-23.62"/>
<polygon fill="#63b8ff" stroke="#63b8ff" points="323.87,-26.66 331.25,-19.06 320.74,-20.4 323.87,-26.66"/>
</a>
</g>
</g>
<!-- Node7 -->
<g id="Node000007" class="node">
<title>Node7</title>
<g id="a_Node000007"><a xlink:href="jof_8h.html" target="_top" xlink:title="JOF band&#45;tile atlas: the display&#45;native normalized image format (#231, shared with the longstrip scro...">
<polygon fill="white" stroke="#666666" points="256,-129 218,-129 218,-110 256,-110 256,-129"/>
<text text-anchor="middle" x="237" y="-117" font-family="Helvetica,sans-Serif" font-size="10.00">jof.h</text>
</a>
</g>
</g>
<!-- Node6&#45;&gt;Node7 -->
<g id="edge10_Node000006_Node000007" class="edge">
<title>Node6&#45;&gt;Node7</title>
<g id="a_edge10_Node000006_Node000007"><a xlink:title=" ">
<path fill="none" stroke="#63b8ff" d="M192.75,-164.75C200.47,-157.03 211.9,-145.6 221.22,-136.28"/>
<polygon fill="#63b8ff" stroke="#63b8ff" points="223.81,-138.64 228.41,-129.09 218.86,-133.69 223.81,-138.64"/>
</a>
</g>
</g>
<!-- Node6&#45;&gt;Node8 -->
<g id="edge15_Node000006_Node000008" class="edge">
<title>Node6&#45;&gt;Node8</title>
<g id="a_edge15_Node000006_Node000008"><a xlink:title=" ">
<path fill="none" stroke="#63b8ff" d="M201.15,-164.96C217.83,-156.46 243.68,-142.72 265,-129 288.87,-113.63 314.81,-93.75 331.67,-80.36"/>
<polygon fill="#63b8ff" stroke="#63b8ff" points="333.99,-82.99 339.61,-74.01 329.61,-77.53 333.99,-82.99"/>
</a>
</g>
</g>
<!-- Node7&#45;&gt;Node2 -->
<g id="edge11_Node000007_Node000002" class="edge">
<title>Node7&#45;&gt;Node2</title>
<g id="a_edge11_Node000007_Node000002"><a xlink:title=" ">
<path fill="none" stroke="#63b8ff" d="M226.24,-109.98C216.23,-102.07 201.11,-90.11 189.07,-80.58"/>
<polygon fill="#63b8ff" stroke="#63b8ff" points="190.97,-77.63 180.96,-74.17 186.63,-83.12 190.97,-77.63"/>
</a>
</g>
</g>
<!-- Node7&#45;&gt;Node3 -->
<g id="edge12_Node000007_Node000003" class="edge">
<title>Node7&#45;&gt;Node3</title>
<g id="a_edge12_Node000007_Node000003"><a xlink:title=" ">
<path fill="none" stroke="#63b8ff" d="M246.25,-109.66C265.38,-91.38 309.53,-49.18 333.61,-26.17"/>
<polygon fill="#63b8ff" stroke="#63b8ff" points="336.13,-28.6 340.94,-19.16 331.29,-23.54 336.13,-28.6"/>
</a>
</g>
</g>
<!-- Node7&#45;&gt;Node8 -->
<g id="edge13_Node000007_Node000008" class="edge">
<title>Node7&#45;&gt;Node8</title>
<g id="a_edge13_Node000007_Node000008"><a xlink:title=" ">
<path fill="none" stroke="#63b8ff" d="M255.16,-109.98C273.25,-101.5 301.28,-88.35 322.19,-78.54"/>
<polygon fill="#63b8ff" stroke="#63b8ff" points="323.95,-81.59 331.51,-74.17 320.97,-75.25 323.95,-81.59"/>
</a>
</g>
</g>
<!-- Node8&#45;&gt;Node3 -->
<g id="edge14_Node000008_Node000003" class="edge">
<title>Node8&#45;&gt;Node3</title>
<g id="a_edge14_Node000008_Node000003"><a xlink:title=" ">
<path fill="none" stroke="#63b8ff" d="M350,-54.75C350,-47.8 350,-37.85 350,-29.13"/>
<polygon fill="#63b8ff" stroke="#63b8ff" points="353.5,-29.09 350,-19.09 346.5,-29.09 353.5,-29.09"/>
</a>
</g>
</g>
<!-- Node10&#45;&gt;Node2 -->
<g id="edge19_Node000010_Node000002" class="edge">
<title>Node10&#45;&gt;Node2</title>
<g id="a_edge19_Node000010_Node000002"><a xlink:title=" ">
<path fill="none" stroke="#63b8ff" d="M443.26,-274.92C445.89,-253.7 449.65,-198.12 423,-165 369.24,-98.19 264.35,-76.09 207.99,-68.9"/>
<polygon fill="#63b8ff" stroke="#63b8ff" points="208.39,-65.42 198.05,-67.72 207.57,-72.37 208.39,-65.42"/>
</a>
</g>
</g>
<!-- Node10&#45;&gt;Node3 -->
<g id="edge20_Node000010_Node000003" class="edge">
<title>Node10&#45;&gt;Node3</title>
<g id="a_edge20_Node000010_Node000003"><a xlink:title=" ">
<path fill="none" stroke="#63b8ff" d="M446.37,-274.91C450.56,-266.14 456.6,-252.01 459,-239 460.53,-230.7 460.19,-228.36 459,-220 447.74,-140.96 432.1,-121.55 388,-55 381.35,-44.96 372.71,-34.68 365.36,-26.54"/>
<polygon fill="#63b8ff" stroke="#63b8ff" points="367.91,-24.14 358.54,-19.19 362.78,-28.9 367.91,-24.14"/>
</a>
</g>
</g>
<!-- Node10&#45;&gt;Node5 -->
<g id="edge21_Node000010_Node000005" class="edge">
<title>Node10&#45;&gt;Node5</title>
<g id="a_edge21_Node000010_Node000005"><a xlink:title=" ">
<path fill="none" stroke="#63b8ff" d="M406.81,-274.98C369.17,-265.87 309.34,-251.4 268.23,-241.45"/>
<polygon fill="#63b8ff" stroke="#63b8ff" points="269,-238.03 258.46,-239.08 267.36,-244.84 269,-238.03"/>
</a>
</g>
</g>
<!-- Node10&#45;&gt;Node8 -->
<g id="edge24_Node000010_Node000008" class="edge">
<title>Node10&#45;&gt;Node8</title>
<g id="a_edge24_Node000010_Node000008"><a xlink:title=" ">
<path fill="none" stroke="#63b8ff" d="M458.03,-274.95C470.41,-267.35 486.65,-254.97 494,-239 512.87,-198.02 518.15,-176.32 456,-110 438.48,-91.31 411.89,-80.17 389.72,-73.72"/>
<polygon fill="#63b8ff" stroke="#63b8ff" points="390.46,-70.29 379.89,-71.07 388.64,-77.05 390.46,-70.29"/>
</a>
</g>
</g>
<!-- Node10&#45;&gt;Node9 -->
<g id="edge23_Node000010_Node000009" class="edge">
<title>Node10&#45;&gt;Node9</title>
<g id="a_edge23_Node000010_Node000009"><a xlink:title=" ">
<path fill="none" stroke="#63b8ff" d="M435.86,-274.66C423.38,-256.69 394.88,-215.64 378.72,-192.38"/>
<polygon fill="#63b8ff" stroke="#63b8ff" points="381.59,-190.38 373.01,-184.16 375.84,-194.37 381.59,-190.38"/>
</a>
</g>
</g>
<!-- Node10&#45;&gt;Node11 -->
<g id="edge22_Node000010_Node000011" class="edge">
<title>Node10&#45;&gt;Node11</title>
<g id="a_edge22_Node000010_Node000011"><a xlink:title=" ">
<path fill="none" stroke="#63b8ff" d="M463.05,-274.98C484.41,-266.34 517.7,-252.87 542.06,-243.02"/>
<polygon fill="#63b8ff" stroke="#63b8ff" points="543.61,-246.17 551.57,-239.17 540.99,-239.68 543.61,-246.17"/>
</a>
</g>
</g>
<!-- Node12&#45;&gt;Node3 -->
<g id="edge28_Node000012_Node000003" class="edge">
<title>Node12&#45;&gt;Node3</title>
<g id="a_edge28_Node000012_Node000003"><a xlink:title=" ">
<path fill="none" stroke="#63b8ff" d="M570.32,-109.97C549.27,-97.07 507.45,-72.25 470,-55 442.51,-42.34 410.29,-30.55 386.17,-22.29"/>
<polygon fill="#63b8ff" stroke="#63b8ff" points="387.28,-18.97 376.69,-19.09 385.04,-25.6 387.28,-18.97"/>
</a>
</g>
</g>
<!-- Node12&#45;&gt;Node8 -->
<g id="edge29_Node000012_Node000008" class="edge">
<title>Node12&#45;&gt;Node8</title>
<g id="a_edge29_Node000012_Node000008"><a xlink:title=" ">
<path fill="none" stroke="#63b8ff" d="M546.4,-109.98C503.47,-100.26 433.51,-84.42 389.71,-74.49"/>
<polygon fill="#63b8ff" stroke="#63b8ff" points="390.23,-71.02 379.71,-72.23 388.69,-77.85 390.23,-71.02"/>
</a>
</g>
</g>
<!-- Node12&#45;&gt;Node13 -->
<g id="edge30_Node000012_Node000013" class="edge">
<title>Node12&#45;&gt;Node13</title>
<g id="a_edge30_Node000012_Node000013"><a xlink:title=" ">
<path fill="none" stroke="#63b8ff" d="M599.91,-109.98C615.55,-101.61 639.66,-88.7 657.88,-78.95"/>
<polygon fill="#63b8ff" stroke="#63b8ff" points="659.64,-81.98 666.8,-74.17 656.34,-75.8 659.64,-81.98"/>
</a>
</g>
</g>
<!-- Node14 -->
<g id="Node000014" class="node">
<title>Node14</title>
<g id="a_Node000014"><a xlink:href="ra8__error__handler_8h.html" target="_top" xlink:title="Centralised fatal&#45;error sink.">
<polygon fill="white" stroke="#666666" points="633.5,-74 522.5,-74 522.5,-55 633.5,-55 633.5,-74"/>
<text text-anchor="middle" x="578" y="-62" font-family="Helvetica,sans-Serif" font-size="10.00">ra8_error_handler.h</text>
</a>
</g>
</g>
<!-- Node12&#45;&gt;Node14 -->
<g id="edge32_Node000012_Node000014" class="edge">
<title>Node12&#45;&gt;Node14</title>
<g id="a_edge32_Node000012_Node000014"><a xlink:title=" ">
<path fill="none" stroke="#63b8ff" d="M583.01,-109.75C582.22,-102.8 581.1,-92.85 580.11,-84.13"/>
<polygon fill="#63b8ff" stroke="#63b8ff" points="583.58,-83.63 578.97,-74.09 576.62,-84.42 583.58,-83.63"/>
</a>
</g>
</g>
<!-- Node13&#45;&gt;Node3 -->
<g id="edge31_Node000013_Node000003" class="edge">
<title>Node13&#45;&gt;Node3</title>
<g id="a_edge31_Node000013_Node000003"><a xlink:title=" ">
<path fill="none" stroke="#63b8ff" d="M651.59,-56.64C648.69,-56.07 645.79,-55.51 643,-55 551.22,-38.29 442.47,-22.93 386.83,-15.39"/>
<polygon fill="#63b8ff" stroke="#63b8ff" points="387.13,-11.9 376.75,-14.03 386.19,-18.83 387.13,-11.9"/>
</a>
</g>
</g>
<!-- Node14&#45;&gt;Node3 -->
<g id="edge33_Node000014_Node000003" class="edge">
<title>Node14&#45;&gt;Node3</title>
<g id="a_edge33_Node000014_Node000003"><a xlink:title=" ">
<path fill="none" stroke="#63b8ff" d="M541.37,-54.98C498.81,-45.09 429,-28.86 386.5,-18.98"/>
<polygon fill="#63b8ff" stroke="#63b8ff" points="387.1,-15.53 376.57,-16.68 385.52,-22.35 387.1,-15.53"/>
</a>
</g>
</g>
</g>
</svg>
