<?xml version="1.0" encoding="UTF-8" standalone="no"?>
<!DOCTYPE svg PUBLIC "-//W3C//DTD SVG 1.1//EN"
 "http://www.w3.org/Graphics/SVG/1.1/DTD/svg11.dtd">
<!-- Generated by graphviz version 2.43.0 (0)
 -->
<!-- Title: libs/ra8_hal/src/ra8_isr.c Pages: 1 -->
<!--zoomable 203 -->

<svg id="main" version="1.1" xmlns="http://www.w3.org/2000/svg" xmlns:xlink="http://www.w3.org/1999/xlink" xml:space="preserve" onload="init(evt)">

<style type="text/css"><![CDATA[
.node, .edge {opacity: 0.7;}
.node.selected, .edge.selected {opacity: 1;}
.edge:hover path { stroke: red; }
.edge:hover polygon { stroke: red; fill: red; }
]]></style>

<defs>
  <circle id="rim" cx="0" cy="0" r="7"/>
  <circle id="rim2" cx="0" cy="0" r="3.5"/>
  <g id="zoomPlus">
    <use xlink:href="#rim" fill="#404040"><set attributeName="fill" to="#808080" begin="zoomplus.mouseover" end="zoomplus.mouseout"/></use>
    <path d="M-4,0h8M0,-4v8" fill="none" stroke="white" stroke-width="1.5" pointer-events="none"/>
  </g>
  <g id="zoomMin">
    <use xlink:href="#rim" fill="#404040"><set attributeName="fill" to="#808080" begin="zoomminus.mouseover" end="zoomminus.mouseout"/></use>
    <path d="M-4,0h8" fill="none" stroke="white" stroke-width="1.5" pointer-events="none"/>
  </g>
  <g id="arrowUp" transform="translate(30 24)">
    <use xlink:href="#rim"/>
    <path pointer-events="none" fill="none" stroke="white" stroke-width="1.5" d="M0,-3.0v7 M-2.5,-0.5L0,-3.0L2.5,-0.5"/>
  </g>
  <g id="arrowRight" transform="rotate(90) translate(36 -43)">
    <use xlink:href="#rim"/>
    <path pointer-events="none" fill="none" stroke="white" stroke-width="1.5" d="M0,-3.0v7 M-2.5,-0.5L0,-3.0L2.5,-0.5"/>
  </g>
  <g id="arrowDown" transform="rotate(180) translate(-30 -48)">
    <use xlink:href="#rim"/>
    <path pointer-events="none" fill="none" stroke="white" stroke-width="1.5" d="M0,-3.0v7 M-2.5,-0.5L0,-3.0L2.5,-0.5"/>
  </g>
  <g id="arrowLeft" transform="rotate(270) translate(-36 17)">
    <use xlink:href="#rim"/>
    <path pointer-events="none" fill="none" stroke="white" stroke-width="1.5" d="M0,-3.0v7 M-2.5,-0.5L0,-3.0L2.5,-0.5"/>
  </g>
  <g id="resetDef">
    <use xlink:href="#rim2" fill="#404040"><set attributeName="fill" to="#808080" begin="reset.mouseover" end="reset.mouseout"/></use>
  </g>
</defs>
<script type="application/ecmascript">
var viewWidth = 618;
var viewHeight = 203;
var sectionId = 'dynsection-0';
</script>
<script type="application/ecmascript" xlink:href="svg.min.js"/>
<svg id="graph" class="graph">
<g id="viewport">
<title>libs/ra8_hal/src/ra8_isr.c</title>
<!-- Node1 -->
<g id="Node000001" class="node">
<title>Node1</title>
<g id="a_Node000001"><a xlink:title="NVIC + ICU IELSR allocator implementation.">
<polygon fill="#999999" stroke="#666666" points="365.81,-195 256.81,-195 256.81,-165 365.81,-165 365.81,-195"/>
<text text-anchor="start" x="264.81" y="-183" font-family="Helvetica,sans-Serif" font-size="10.00">libs/ra8_hal/src/ra8</text>
<text text-anchor="middle" x="311.31" y="-172" font-family="Helvetica,sans-Serif" font-size="10.00">_isr.c</text>
</a>
</g>
</g>
<!-- Node2 -->
<g id="Node000002" class="node">
<title>Node2</title>
<g id="a_Node000002"><a xlink:href="ra8__isr_8h.html" target="_top" xlink:title="NVIC + ICU IELSR allocator.">
<polygon fill="white" stroke="#666666" points="110.31,-129 52.31,-129 52.31,-110 110.31,-110 110.31,-129"/>
<text text-anchor="middle" x="81.31" y="-117" font-family="Helvetica,sans-Serif" font-size="10.00">ra8_isr.h</text>
</a>
</g>
</g>
<!-- Node1&#45;&gt;Node2 -->
<g id="edge1_Node000001_Node000002" class="edge">
<title>Node1&#45;&gt;Node2</title>
<g id="a_edge1_Node000001_Node000002"><a xlink:title=" ">
<path fill="none" stroke="#63b8ff" d="M256.8,-165.14C214.91,-154.48 158.05,-140.02 120.55,-130.48"/>
<polygon fill="#63b8ff" stroke="#63b8ff" points="121.07,-127 110.52,-127.93 119.34,-133.79 121.07,-127"/>
</a>
</g>
</g>
<!-- Node3 -->
<g id="Node000003" class="node">
<title>Node3</title>
<g id="a_Node000003"><a xlink:title=" ">
<polygon fill="#e0e0e0" stroke="#999999" points="239.81,-19 186.81,-19 186.81,0 239.81,0 239.81,-19"/>
<text text-anchor="middle" x="213.31" y="-7" font-family="Helvetica,sans-Serif" font-size="10.00">stdint.h</text>
</a>
</g>
</g>
<!-- Node1&#45;&gt;Node3 -->
<g id="edge7_Node000001_Node000003" class="edge">
<title>Node1&#45;&gt;Node3</title>
<g id="a_edge7_Node000001_Node000003"><a xlink:title=" ">
<path fill="none" stroke="#63b8ff" d="M256.57,-173.6C188.79,-166.1 78.03,-150.92 43.31,-129 17.75,-112.86 12.66,-102.74 3.31,-74 0.7,-65.97 -2.01,-61.56 3.31,-55 24.7,-28.6 122.16,-17.23 176.47,-12.88"/>
<polygon fill="#63b8ff" stroke="#63b8ff" points="177.02,-16.34 186.73,-12.1 176.49,-9.36 177.02,-16.34"/>
</a>
</g>
</g>
<!-- Node5 -->
<g id="Node000005" class="node">
<title>Node5</title>
<g id="a_Node000005"><a xlink:href="ra8__err_8h.html" target="_top" xlink:title="Error Code Definitions for ra8&#45;firmware.">
<polygon fill="white" stroke="#666666" points="184.81,-74 125.81,-74 125.81,-55 184.81,-55 184.81,-74"/>
<text text-anchor="middle" x="155.31" y="-62" font-family="Helvetica,sans-Serif" font-size="10.00">ra8_err.h</text>
</a>
</g>
</g>
<!-- Node1&#45;&gt;Node5 -->
<g id="edge16_Node000001_Node000005" class="edge">
<title>Node1&#45;&gt;Node5</title>
<g id="a_edge16_Node000001_Node000005"><a xlink:title=" ">
<path fill="none" stroke="#63b8ff" d="M287.29,-164.88C271.37,-155.25 250.19,-141.95 232.31,-129 211,-113.56 187.87,-94.09 172.59,-80.81"/>
<polygon fill="#63b8ff" stroke="#63b8ff" points="174.79,-78.08 164.96,-74.13 170.18,-83.35 174.79,-78.08"/>
</a>
</g>
</g>
<!-- Node6 -->
<g id="Node000006" class="node">
<title>Node6</title>
<g id="a_Node000006"><a xlink:href="ra8__attributes_8h.html" target="_top" xlink:title="Annotation&#45;attribute framework macros for ra8&#45;firmware.">
<polygon fill="white" stroke="#666666" points="610.31,-129 516.31,-129 516.31,-110 610.31,-110 610.31,-129"/>
<text text-anchor="middle" x="563.31" y="-117" font-family="Helvetica,sans-Serif" font-size="10.00">ra8_attributes.h</text>
</a>
</g>
</g>
<!-- Node1&#45;&gt;Node6 -->
<g id="edge8_Node000001_Node000006" class="edge">
<title>Node1&#45;&gt;Node6</title>
<g id="a_edge8_Node000001_Node000006"><a xlink:title=" ">
<path fill="none" stroke="#63b8ff" d="M365.99,-166.31C411.02,-155.85 474.17,-141.19 516.8,-131.3"/>
<polygon fill="#63b8ff" stroke="#63b8ff" points="517.68,-134.68 526.63,-129.01 516.1,-127.87 517.68,-134.68"/>
</a>
</g>
</g>
<!-- Node7 -->
<g id="Node000007" class="node">
<title>Node7</title>
<g id="a_Node000007"><a xlink:href="ra8__check_8h.html" target="_top" xlink:title="Validation and Error&#45;Checking Macros for ra8&#45;firmware.">
<polygon fill="white" stroke="#666666" points="315.81,-129 240.81,-129 240.81,-110 315.81,-110 315.81,-129"/>
<text text-anchor="middle" x="278.31" y="-117" font-family="Helvetica,sans-Serif" font-size="10.00">ra8_check.h</text>
</a>
</g>
</g>
<!-- Node1&#45;&gt;Node7 -->
<g id="edge9_Node000001_Node000007" class="edge">
<title>Node1&#45;&gt;Node7</title>
<g id="a_edge9_Node000001_Node000007"><a xlink:title=" ">
<path fill="none" stroke="#63b8ff" d="M303.32,-164.84C298.78,-156.78 293.04,-146.62 288.21,-138.06"/>
<polygon fill="#63b8ff" stroke="#63b8ff" points="291.22,-136.26 283.26,-129.27 285.12,-139.7 291.22,-136.26"/>
</a>
</g>
</g>
<!-- Node8 -->
<g id="Node000008" class="node">
<title>Node8</title>
<g id="a_Node000008"><a xlink:href="ra8__log_8h.html" target="_top" xlink:title="Lightweight Logging Interface for ra8&#45;firmware.">
<polygon fill="white" stroke="#666666" points="433.31,-74 371.31,-74 371.31,-55 433.31,-55 433.31,-74"/>
<text text-anchor="middle" x="402.31" y="-62" font-family="Helvetica,sans-Serif" font-size="10.00">ra8_log.h</text>
</a>
</g>
</g>
<!-- Node1&#45;&gt;Node8 -->
<g id="edge21_Node000001_Node000008" class="edge">
<title>Node1&#45;&gt;Node8</title>
<g id="a_edge21_Node000001_Node000008"><a xlink:title=" ">
<path fill="none" stroke="#63b8ff" d="M322.84,-164.63C339.72,-143.56 371.12,-104.4 388.98,-82.13"/>
<polygon fill="#63b8ff" stroke="#63b8ff" points="391.79,-84.22 395.31,-74.23 386.33,-79.84 391.79,-84.22"/>
</a>
</g>
</g>
<!-- Node10 -->
<g id="Node000010" class="node">
<title>Node10</title>
<g id="a_Node000010"><a xlink:href="ra8__hw__intrinsics_8h.html" target="_top" xlink:title="Shared CPU&#45;intrinsic seam for the HAL drivers (host/target split).">
<polygon fill="white" stroke="#666666" points="561.31,-74 451.31,-74 451.31,-55 561.31,-55 561.31,-74"/>
<text text-anchor="middle" x="506.31" y="-62" font-family="Helvetica,sans-Serif" font-size="10.00">ra8_hw_intrinsics.h</text>
</a>
</g>
</g>
<!-- Node1&#45;&gt;Node10 -->
<g id="edge17_Node000001_Node000010" class="edge">
<title>Node1&#45;&gt;Node10</title>
<g id="a_edge17_Node000001_Node000010"><a xlink:title=" ">
<path fill="none" stroke="#63b8ff" d="M327.55,-164.73C345.12,-149.77 374.37,-126.24 402.31,-110 424.59,-97.05 451.35,-85.68 472.15,-77.68"/>
<polygon fill="#63b8ff" stroke="#63b8ff" points="473.42,-80.94 481.54,-74.14 470.95,-74.39 473.42,-80.94"/>
</a>
</g>
</g>
<!-- Node11 -->
<g id="Node000011" class="node">
<title>Node11</title>
<g id="a_Node000011"><a xlink:href="ra8__icu__regs_8h.html" target="_top" xlink:title="Interrupt Control Unit (ICU) register layout for the Renesas RA8D2.">
<polygon fill="white" stroke="#666666" points="497.81,-129 410.81,-129 410.81,-110 497.81,-110 497.81,-129"/>
<text text-anchor="middle" x="454.31" y="-117" font-family="Helvetica,sans-Serif" font-size="10.00">ra8_icu_regs.h</text>
</a>
</g>
</g>
<!-- Node1&#45;&gt;Node11 -->
<g id="edge19_Node000001_Node000011" class="edge">
<title>Node1&#45;&gt;Node11</title>
<g id="a_edge19_Node000001_Node000011"><a xlink:title=" ">
<path fill="none" stroke="#63b8ff" d="M345.56,-164.99C369.42,-155.23 400.96,-142.33 423.92,-132.93"/>
<polygon fill="#63b8ff" stroke="#63b8ff" points="425.26,-136.17 433.19,-129.14 422.61,-129.69 425.26,-136.17"/>
</a>
</g>
</g>
<!-- Node2&#45;&gt;Node3 -->
<g id="edge2_Node000002_Node000003" class="edge">
<title>Node2&#45;&gt;Node3</title>
<g id="a_edge2_Node000002_Node000003"><a xlink:title=" ">
<path fill="none" stroke="#63b8ff" d="M58.86,-109.98C32.19,-98.59 -6.57,-77.25 11.31,-55 31.62,-29.73 123.77,-17.97 176.32,-13.23"/>
<polygon fill="#63b8ff" stroke="#63b8ff" points="176.91,-16.69 186.58,-12.35 176.31,-9.72 176.91,-16.69"/>
</a>
</g>
</g>
<!-- Node4 -->
<g id="Node000004" class="node">
<title>Node4</title>
<g id="a_Node000004"><a xlink:href="ra8__elc__regs_8h.html" target="_top" xlink:title="Event Link Controller (ELC) register layout for the Renesas RA8D2.">
<polygon fill="white" stroke="#666666" points="107.81,-74 20.81,-74 20.81,-55 107.81,-55 107.81,-74"/>
<text text-anchor="middle" x="64.31" y="-62" font-family="Helvetica,sans-Serif" font-size="10.00">ra8_elc_regs.h</text>
</a>
</g>
</g>
<!-- Node2&#45;&gt;Node4 -->
<g id="edge3_Node000002_Node000004" class="edge">
<title>Node2&#45;&gt;Node4</title>
<g id="a_edge3_Node000002_Node000004"><a xlink:title=" ">
<path fill="none" stroke="#63b8ff" d="M78.5,-109.75C76.25,-102.72 73.01,-92.62 70.2,-83.84"/>
<polygon fill="#63b8ff" stroke="#63b8ff" points="73.45,-82.54 67.07,-74.09 66.79,-84.68 73.45,-82.54"/>
</a>
</g>
</g>
<!-- Node2&#45;&gt;Node5 -->
<g id="edge5_Node000002_Node000005" class="edge">
<title>Node2&#45;&gt;Node5</title>
<g id="a_edge5_Node000002_Node000005"><a xlink:title=" ">
<path fill="none" stroke="#63b8ff" d="M93.2,-109.98C104.46,-101.92 121.6,-89.65 135.02,-80.03"/>
<polygon fill="#63b8ff" stroke="#63b8ff" points="137.11,-82.84 143.21,-74.17 133.04,-77.15 137.11,-82.84"/>
</a>
</g>
</g>
<!-- Node4&#45;&gt;Node3 -->
<g id="edge4_Node000004_Node000003" class="edge">
<title>Node4&#45;&gt;Node3</title>
<g id="a_edge4_Node000004_Node000003"><a xlink:title=" ">
<path fill="none" stroke="#63b8ff" d="M88.25,-54.98C112.87,-46.23 151.43,-32.51 179.23,-22.62"/>
<polygon fill="#63b8ff" stroke="#63b8ff" points="180.69,-25.82 188.94,-19.17 178.34,-19.22 180.69,-25.82"/>
</a>
</g>
</g>
<!-- Node5&#45;&gt;Node3 -->
<g id="edge6_Node000005_Node000003" class="edge">
<title>Node5&#45;&gt;Node3</title>
<g id="a_edge6_Node000005_Node000003"><a xlink:title=" ">
<path fill="none" stroke="#63b8ff" d="M164.63,-54.98C173.12,-47.23 185.87,-35.58 196.19,-26.14"/>
<polygon fill="#63b8ff" stroke="#63b8ff" points="198.8,-28.5 203.82,-19.17 194.08,-23.33 198.8,-28.5"/>
</a>
</g>
</g>
<!-- Node7&#45;&gt;Node3 -->
<g id="edge10_Node000007_Node000003" class="edge">
<title>Node7&#45;&gt;Node3</title>
<g id="a_edge10_Node000007_Node000003"><a xlink:title=" ">
<path fill="none" stroke="#63b8ff" d="M266.77,-109.81C256.62,-101.61 242.13,-88.44 233.31,-74 224.84,-60.13 219.64,-42.33 216.68,-29.11"/>
<polygon fill="#63b8ff" stroke="#63b8ff" points="220.1,-28.38 214.69,-19.27 213.24,-29.77 220.1,-28.38"/>
</a>
</g>
</g>
<!-- Node7&#45;&gt;Node5 -->
<g id="edge11_Node000007_Node000005" class="edge">
<title>Node7&#45;&gt;Node5</title>
<g id="a_edge11_Node000007_Node000005"><a xlink:title=" ">
<path fill="none" stroke="#63b8ff" d="M258.55,-109.98C238.58,-101.38 207.51,-87.99 184.66,-78.15"/>
<polygon fill="#63b8ff" stroke="#63b8ff" points="186,-74.91 175.43,-74.17 183.23,-81.34 186,-74.91"/>
</a>
</g>
</g>
<!-- Node7&#45;&gt;Node8 -->
<g id="edge12_Node000007_Node000008" class="edge">
<title>Node7&#45;&gt;Node8</title>
<g id="a_edge12_Node000007_Node000008"><a xlink:title=" ">
<path fill="none" stroke="#63b8ff" d="M298.23,-109.98C318.36,-101.38 349.69,-87.99 372.72,-78.15"/>
<polygon fill="#63b8ff" stroke="#63b8ff" points="374.21,-81.32 382.03,-74.17 371.45,-74.88 374.21,-81.32"/>
</a>
</g>
</g>
<!-- Node9 -->
<g id="Node000009" class="node">
<title>Node9</title>
<g id="a_Node000009"><a xlink:href="ra8__error__handler_8h.html" target="_top" xlink:title="Centralised fatal&#45;error sink.">
<polygon fill="white" stroke="#666666" points="352.81,-74 241.81,-74 241.81,-55 352.81,-55 352.81,-74"/>
<text text-anchor="middle" x="297.31" y="-62" font-family="Helvetica,sans-Serif" font-size="10.00">ra8_error_handler.h</text>
</a>
</g>
</g>
<!-- Node7&#45;&gt;Node9 -->
<g id="edge14_Node000007_Node000009" class="edge">
<title>Node7&#45;&gt;Node9</title>
<g id="a_edge14_Node000007_Node000009"><a xlink:title=" ">
<path fill="none" stroke="#63b8ff" d="M281.45,-109.75C283.99,-102.65 287.67,-92.4 290.84,-83.56"/>
<polygon fill="#63b8ff" stroke="#63b8ff" points="294.15,-84.68 294.23,-74.09 287.56,-82.32 294.15,-84.68"/>
</a>
</g>
</g>
<!-- Node8&#45;&gt;Node3 -->
<g id="edge13_Node000008_Node000003" class="edge">
<title>Node8&#45;&gt;Node3</title>
<g id="a_edge13_Node000008_Node000003"><a xlink:title=" ">
<path fill="none" stroke="#63b8ff" d="M371.94,-54.98C338.7,-45.66 285.42,-30.72 249.9,-20.76"/>
<polygon fill="#63b8ff" stroke="#63b8ff" points="250.51,-17.3 239.94,-17.97 248.62,-24.04 250.51,-17.3"/>
</a>
</g>
</g>
<!-- Node9&#45;&gt;Node3 -->
<g id="edge15_Node000009_Node000003" class="edge">
<title>Node9&#45;&gt;Node3</title>
<g id="a_edge15_Node000009_Node000003"><a xlink:title=" ">
<path fill="none" stroke="#63b8ff" d="M283.81,-54.98C270.91,-46.84 251.21,-34.41 235.91,-24.76"/>
<polygon fill="#63b8ff" stroke="#63b8ff" points="237.38,-21.55 227.05,-19.17 233.64,-27.47 237.38,-21.55"/>
</a>
</g>
</g>
<!-- Node10&#45;&gt;Node3 -->
<g id="edge18_Node000010_Node000003" class="edge">
<title>Node10&#45;&gt;Node3</title>
<g id="a_edge18_Node000010_Node000003"><a xlink:title=" ">
<path fill="none" stroke="#63b8ff" d="M459.24,-54.98C401,-44.45 303.08,-26.74 250.07,-17.15"/>
<polygon fill="#63b8ff" stroke="#63b8ff" points="250.55,-13.68 240.09,-15.34 249.31,-20.57 250.55,-13.68"/>
</a>
</g>
</g>
<!-- Node11&#45;&gt;Node3 -->
<g id="edge20_Node000011_Node000003" class="edge">
<title>Node11&#45;&gt;Node3</title>
<g id="a_edge20_Node000011_Node000003"><a xlink:title=" ">
<path fill="none" stroke="#63b8ff" d="M498.14,-110.73C540.62,-101.35 595.23,-83.22 570.31,-55 549.33,-31.24 337.08,-17.18 250.14,-12.37"/>
<polygon fill="#63b8ff" stroke="#63b8ff" points="250.12,-8.87 239.94,-11.82 249.74,-15.86 250.12,-8.87"/>
</a>
</g>
</g>
</g>
</svg>

<g id="navigator" transform="translate(0 0)" fill="#404254">
  <rect fill="#f2f5e9" fill-opacity="0.5" stroke="#606060" stroke-width=".5" x="0" y="0" width="60" height="60"/>
  <use id="zoomplus" xlink:href="#zoomPlus" x="17" y="9" onmousedown="handleZoom(evt,'in')"/>
  <use id="zoomminus" xlink:href="#zoomMin" x="42" y="9" onmousedown="handleZoom(evt,'out')"/>
  <use id="reset" xlink:href="#resetDef" x="30" y="36" onmousedown="handleReset()"/>
   <use id="arrowup" xlink:href="#arrowUp" x="0" y="0" onmousedown="handlePan(0,-1)"/>
  <use id="arrowright" xlink:href="#arrowRight" x="0" y="0" onmousedown="handlePan(1,0)"/>
  <use id="arrowdown" xlink:href="#arrowDown" x="0" y="0" onmousedown="handlePan(0,1)"/>
  <use id="arrowleft" xlink:href="#arrowLeft" x="0" y="0" onmousedown="handlePan(-1,0)"/>
</g>
<svg viewBox="0 0 15 15" width="100%" height="30px" preserveAspectRatio="xMaxYMin meet">
 <g id="arrow_out" transform="scale(0.3 0.3)">
  <a xlink:href="ra8__isr_8c__incl_org.svg" target="_base">
   <rect id="button" ry="5" rx="5" y="6" x="6" height="38" width="38"
        fill="#f2f5e9" fill-opacity="0.5" stroke="#606060" stroke-width="1.0"/>
   <path id="arrow"
     d="M 11.500037,31.436501 C 11.940474,20.09759 22.043105,11.32322 32.158766,21.979434 L 37.068811,17.246167 C 37.068811,17.246167 37.088388,32 37.088388,32 L 22.160133,31.978069 C 22.160133,31.978069 26.997745,27.140456 26.997745,27.140456 C 18.528582,18.264221 13.291696,25.230495 11.500037,31.436501 z"
     style="fill:#404040;"/>
  </a>
 </g>
</svg>

<style type='text/css'>
<![CDATA[
[data-mouse-over-selected='false'] { opacity: 0.7; }
[data-mouse-over-selected='true']  { opacity: 1.0; }
]]>
</style>
<script type="application/ecmascript"><![CDATA[
document.addEventListener('DOMContentLoaded', (event) => {
  highlightEdges();
  highlightAdjacentNodes();
});
]]></script>
</svg>
