<?xml version="1.0" encoding="UTF-8" standalone="no"?>
<!DOCTYPE svg PUBLIC "-//W3C//DTD SVG 1.1//EN"
 "http://www.w3.org/Graphics/SVG/1.1/DTD/svg11.dtd">
<!-- Generated by graphviz version 2.43.0 (0)
 -->
<!-- Title: libs/ra8_c6link/src/ra8_c6link_mdl.c Pages: 1 -->
<!--zoomable 368 -->

<svg id="main" version="1.1" xmlns="http://www.w3.org/2000/svg" xmlns:xlink="http://www.w3.org/1999/xlink" xml:space="preserve" onload="init(evt)">

<style type="text/css"><![CDATA[
.node, .edge {opacity: 0.7;}
.node.selected, .edge.selected {opacity: 1;}
.edge:hover path { stroke: red; }
.edge:hover polygon { stroke: red; fill: red; }
]]></style>

<defs>
  <circle id="rim" cx="0" cy="0" r="7"/>
  <circle id="rim2" cx="0" cy="0" r="3.5"/>
  <g id="zoomPlus">
    <use xlink:href="#rim" fill="#404040"><set attributeName="fill" to="#808080" begin="zoomplus.mouseover" end="zoomplus.mouseout"/></use>
    <path d="M-4,0h8M0,-4v8" fill="none" stroke="white" stroke-width="1.5" pointer-events="none"/>
  </g>
  <g id="zoomMin">
    <use xlink:href="#rim" fill="#404040"><set attributeName="fill" to="#808080" begin="zoomminus.mouseover" end="zoomminus.mouseout"/></use>
    <path d="M-4,0h8" fill="none" stroke="white" stroke-width="1.5" pointer-events="none"/>
  </g>
  <g id="arrowUp" transform="translate(30 24)">
    <use xlink:href="#rim"/>
    <path pointer-events="none" fill="none" stroke="white" stroke-width="1.5" d="M0,-3.0v7 M-2.5,-0.5L0,-3.0L2.5,-0.5"/>
  </g>
  <g id="arrowRight" transform="rotate(90) translate(36 -43)">
    <use xlink:href="#rim"/>
    <path pointer-events="none" fill="none" stroke="white" stroke-width="1.5" d="M0,-3.0v7 M-2.5,-0.5L0,-3.0L2.5,-0.5"/>
  </g>
  <g id="arrowDown" transform="rotate(180) translate(-30 -48)">
    <use xlink:href="#rim"/>
    <path pointer-events="none" fill="none" stroke="white" stroke-width="1.5" d="M0,-3.0v7 M-2.5,-0.5L0,-3.0L2.5,-0.5"/>
  </g>
  <g id="arrowLeft" transform="rotate(270) translate(-36 17)">
    <use xlink:href="#rim"/>
    <path pointer-events="none" fill="none" stroke="white" stroke-width="1.5" d="M0,-3.0v7 M-2.5,-0.5L0,-3.0L2.5,-0.5"/>
  </g>
  <g id="resetDef">
    <use xlink:href="#rim2" fill="#404040"><set attributeName="fill" to="#808080" begin="reset.mouseover" end="reset.mouseout"/></use>
  </g>
</defs>
<script type="application/ecmascript">
var viewWidth = 1216;
var viewHeight = 368;
var sectionId = 'dynsection-0';
</script>
<script type="application/ecmascript" xlink:href="svg.min.js"/>
<svg id="graph" class="graph">
<g id="viewport">
<title>libs/ra8_c6link/src/ra8_c6link_mdl.c</title>
<!-- Node1 -->
<g id="Node000001" class="node">
<title>Node1</title>
<g id="a_Node000001"><a xlink:title="Pull&#45;based media download client over generated protobuf codecs.">
<polygon fill="#999999" stroke="#666666" points="376,-360 272,-360 272,-330 376,-330 376,-360"/>
<text text-anchor="start" x="280" y="-348" font-family="Helvetica,sans-Serif" font-size="10.00">libs/ra8_c6link/src</text>
<text text-anchor="middle" x="324" y="-337" font-family="Helvetica,sans-Serif" font-size="10.00">/ra8_c6link_mdl.c</text>
</a>
</g>
</g>
<!-- Node2 -->
<g id="Node000002" class="node">
<title>Node2</title>
<g id="a_Node000002"><a xlink:href="ra8__c6link__mdl_8h.html" target="_top" xlink:title="Pull&#45;based media download client over ESP&#45;hosted CustomRpc.">
<polygon fill="white" stroke="#666666" points="128,-239 28,-239 28,-220 128,-220 128,-239"/>
<text text-anchor="middle" x="78" y="-227" font-family="Helvetica,sans-Serif" font-size="10.00">ra8_c6link_mdl.h</text>
</a>
</g>
</g>
<!-- Node1&#45;&gt;Node2 -->
<g id="edge1_Node000001_Node000002" class="edge">
<title>Node1&#45;&gt;Node2</title>
<g id="a_edge1_Node000001_Node000002"><a xlink:title=" ">
<path fill="none" stroke="#63b8ff" d="M273.51,-329.93C244.84,-321.16 208.67,-308.73 178,-294 148.58,-279.87 117.21,-258.85 97.61,-244.92"/>
<polygon fill="#63b8ff" stroke="#63b8ff" points="99.64,-242.07 89.48,-239.07 95.55,-247.75 99.64,-242.07"/>
</a>
</g>
</g>
<!-- Node3 -->
<g id="Node000003" class="node">
<title>Node3</title>
<g id="a_Node000003"><a xlink:title=" ">
<polygon fill="#e0e0e0" stroke="#999999" points="307.5,-19 254.5,-19 254.5,0 307.5,0 307.5,-19"/>
<text text-anchor="middle" x="281" y="-7" font-family="Helvetica,sans-Serif" font-size="10.00">stdint.h</text>
</a>
</g>
</g>
<!-- Node1&#45;&gt;Node3 -->
<g id="edge19_Node000001_Node000003" class="edge">
<title>Node1&#45;&gt;Node3</title>
<g id="a_edge19_Node000001_Node000003"><a xlink:title=" ">
<path fill="none" stroke="#63b8ff" d="M271.94,-336.77C180.36,-322.58 0,-287.42 0,-230.5 0,-230.5 0,-230.5 0,-118.5 0,-78.43 28.68,-73.92 64,-55 121.9,-23.98 199.14,-14.54 244.14,-11.7"/>
<polygon fill="#63b8ff" stroke="#63b8ff" points="244.52,-15.18 254.31,-11.13 244.13,-8.19 244.52,-15.18"/>
</a>
</g>
</g>
<!-- Node10 -->
<g id="Node000010" class="node">
<title>Node10</title>
<g id="a_Node000010"><a xlink:title=" ">
<polygon fill="#e0e0e0" stroke="#999999" points="202,-239 146,-239 146,-220 202,-220 202,-239"/>
<text text-anchor="middle" x="174" y="-227" font-family="Helvetica,sans-Serif" font-size="10.00">stddef.h</text>
</a>
</g>
</g>
<!-- Node1&#45;&gt;Node10 -->
<g id="edge18_Node000001_Node000010" class="edge">
<title>Node1&#45;&gt;Node10</title>
<g id="a_edge18_Node000001_Node000010"><a xlink:title=" ">
<path fill="none" stroke="#63b8ff" d="M271.69,-335.09C245.18,-328.06 214.37,-315.67 194,-294 182.51,-281.77 177.62,-262.99 175.54,-249.02"/>
<polygon fill="#63b8ff" stroke="#63b8ff" points="179.01,-248.6 174.4,-239.07 172.06,-249.4 179.01,-248.6"/>
</a>
</g>
</g>
<!-- Node11 -->
<g id="Node000011" class="node">
<title>Node11</title>
<g id="a_Node000011"><a xlink:title=" ">
<polygon fill="#e0e0e0" stroke="#999999" points="810.5,-294 757.5,-294 757.5,-275 810.5,-275 810.5,-294"/>
<text text-anchor="middle" x="784" y="-282" font-family="Helvetica,sans-Serif" font-size="10.00">string.h</text>
</a>
</g>
</g>
<!-- Node1&#45;&gt;Node11 -->
<g id="edge20_Node000001_Node000011" class="edge">
<title>Node1&#45;&gt;Node11</title>
<g id="a_edge20_Node000001_Node000011"><a xlink:title=" ">
<path fill="none" stroke="#63b8ff" d="M376.31,-339.9C454.93,-333.29 608.33,-318.64 747.34,-294.12"/>
<polygon fill="#63b8ff" stroke="#63b8ff" points="748.09,-297.54 757.32,-292.33 746.86,-290.65 748.09,-297.54"/>
</a>
</g>
</g>
<!-- Node12 -->
<g id="Node000012" class="node">
<title>Node12</title>
<g id="a_Node000012"><a xlink:href="ra8__attributes_8h.html" target="_top" xlink:title="Annotation&#45;attribute framework macros for ra8&#45;firmware.">
<polygon fill="white" stroke="#666666" points="486,-239 392,-239 392,-220 486,-220 486,-239"/>
<text text-anchor="middle" x="439" y="-227" font-family="Helvetica,sans-Serif" font-size="10.00">ra8_attributes.h</text>
</a>
</g>
</g>
<!-- Node1&#45;&gt;Node12 -->
<g id="edge21_Node000001_Node000012" class="edge">
<title>Node1&#45;&gt;Node12</title>
<g id="a_edge21_Node000001_Node000012"><a xlink:title=" ">
<path fill="none" stroke="#63b8ff" d="M338.56,-329.63C360.1,-308.37 400.29,-268.71 422.75,-246.54"/>
<polygon fill="#63b8ff" stroke="#63b8ff" points="425.5,-248.75 430.16,-239.23 420.58,-243.76 425.5,-248.75"/>
</a>
</g>
</g>
<!-- Node13 -->
<g id="Node000013" class="node">
<title>Node13</title>
<g id="a_Node000013"><a xlink:href="ra8__c6link__internal_8h.html" target="_top" xlink:title="Cross&#45;translation&#45;unit contract inside libs/ra8_c6link.">
<polygon fill="white" stroke="#666666" points="739.5,-294 620.5,-294 620.5,-275 739.5,-275 739.5,-294"/>
<text text-anchor="middle" x="680" y="-282" font-family="Helvetica,sans-Serif" font-size="10.00">ra8_c6link_internal.h</text>
</a>
</g>
</g>
<!-- Node1&#45;&gt;Node13 -->
<g id="edge22_Node000001_Node000013" class="edge">
<title>Node1&#45;&gt;Node13</title>
<g id="a_edge22_Node000001_Node000013"><a xlink:title=" ">
<path fill="none" stroke="#63b8ff" d="M376.15,-335.43C440.35,-324.88 549.28,-306.98 617.78,-295.72"/>
<polygon fill="#63b8ff" stroke="#63b8ff" points="618.7,-299.12 628,-294.04 617.57,-292.21 618.7,-299.12"/>
</a>
</g>
</g>
<!-- Node19 -->
<g id="Node000019" class="node">
<title>Node19</title>
<g id="a_Node000019"><a xlink:href="ra8__c6link__mdl__internal_8h.html" target="_top" xlink:title="Private response&#45;validation seams for the media RPC client.">
<polygon fill="white" stroke="#666666" points="345.5,-294 202.5,-294 202.5,-275 345.5,-275 345.5,-294"/>
<text text-anchor="middle" x="274" y="-282" font-family="Helvetica,sans-Serif" font-size="10.00">ra8_c6link_mdl_internal.h</text>
</a>
</g>
</g>
<!-- Node1&#45;&gt;Node19 -->
<g id="edge33_Node000001_Node000019" class="edge">
<title>Node1&#45;&gt;Node19</title>
<g id="a_edge33_Node000001_Node000019"><a xlink:title=" ">
<path fill="none" stroke="#63b8ff" d="M311.9,-329.84C304.71,-321.43 295.57,-310.74 288.07,-301.96"/>
<polygon fill="#63b8ff" stroke="#63b8ff" points="290.65,-299.59 281.49,-294.27 285.33,-304.14 290.65,-299.59"/>
</a>
</g>
</g>
<!-- Node20 -->
<g id="Node000020" class="node">
<title>Node20</title>
<g id="a_Node000020"><a xlink:href="ra8__media__download_8pb-c_8h.html" target="_top" xlink:title="Generated protobuf&#45;C declarations for the media&#45;download protocol.">
<polygon fill="white" stroke="#666666" points="374,-239 220,-239 220,-220 374,-220 374,-239"/>
<text text-anchor="middle" x="297" y="-227" font-family="Helvetica,sans-Serif" font-size="10.00">ra8_media_download.pb&#45;c.h</text>
</a>
</g>
</g>
<!-- Node1&#45;&gt;Node20 -->
<g id="edge39_Node000001_Node000020" class="edge">
<title>Node1&#45;&gt;Node20</title>
<g id="a_edge39_Node000001_Node000020"><a xlink:title=" ">
<path fill="none" stroke="#63b8ff" d="M337.96,-329.85C350.04,-315.81 364.24,-293.73 355,-275 348.51,-261.85 336.07,-251.5 324.36,-244.11"/>
<polygon fill="#63b8ff" stroke="#63b8ff" points="326.07,-241.05 315.67,-239.03 322.54,-247.1 326.07,-241.05"/>
</a>
</g>
</g>
<!-- Node2&#45;&gt;Node3 -->
<g id="edge2_Node000002_Node000003" class="edge">
<title>Node2&#45;&gt;Node3</title>
<g id="a_edge2_Node000002_Node000003"><a xlink:title=" ">
<path fill="none" stroke="#63b8ff" d="M74.6,-219.69C64.49,-191.9 37.78,-104.99 78,-55 98.46,-29.57 191.41,-17.86 244.15,-13.17"/>
<polygon fill="#63b8ff" stroke="#63b8ff" points="244.46,-16.66 254.13,-12.33 243.87,-9.69 244.46,-16.66"/>
</a>
</g>
</g>
<!-- Node4 -->
<g id="Node000004" class="node">
<title>Node4</title>
<g id="a_Node000004"><a xlink:href="ra8__c6link_8h.html" target="_top" xlink:title="The single integration boundary between this firmware and the ESP32&#45;C6.">
<polygon fill="white" stroke="#666666" points="447,-184 371,-184 371,-165 447,-165 447,-184"/>
<text text-anchor="middle" x="409" y="-172" font-family="Helvetica,sans-Serif" font-size="10.00">ra8_c6link.h</text>
</a>
</g>
</g>
<!-- Node2&#45;&gt;Node4 -->
<g id="edge3_Node000002_Node000004" class="edge">
<title>Node2&#45;&gt;Node4</title>
<g id="a_edge3_Node000002_Node000004"><a xlink:title=" ">
<path fill="none" stroke="#63b8ff" d="M128.27,-220.45C191.32,-210.36 298.65,-193.17 360.73,-183.23"/>
<polygon fill="#63b8ff" stroke="#63b8ff" points="361.35,-186.68 370.67,-181.64 360.24,-179.76 361.35,-186.68"/>
</a>
</g>
</g>
<!-- Node6 -->
<g id="Node000006" class="node">
<title>Node6</title>
<g id="a_Node000006"><a xlink:href="ra8__err_8h.html" target="_top" xlink:title="Error Code Definitions for ra8&#45;firmware.">
<polygon fill="white" stroke="#666666" points="575.5,-74 516.5,-74 516.5,-55 575.5,-55 575.5,-74"/>
<text text-anchor="middle" x="546" y="-62" font-family="Helvetica,sans-Serif" font-size="10.00">ra8_err.h</text>
</a>
</g>
</g>
<!-- Node2&#45;&gt;Node6 -->
<g id="edge12_Node000002_Node000006" class="edge">
<title>Node2&#45;&gt;Node6</title>
<g id="a_edge12_Node000002_Node000006"><a xlink:title=" ">
<path fill="none" stroke="#63b8ff" d="M128.2,-221.16C131.17,-220.76 134.13,-220.37 137,-220 278.52,-201.83 321.04,-230.3 456,-184 500.34,-168.79 523.07,-169.89 546,-129 553.58,-115.48 552.84,-97.65 550.62,-84.33"/>
<polygon fill="#63b8ff" stroke="#63b8ff" points="554.02,-83.47 548.57,-74.39 547.16,-84.89 554.02,-83.47"/>
</a>
</g>
</g>
<!-- Node8 -->
<g id="Node000008" class="node">
<title>Node8</title>
<g id="a_Node000008"><a xlink:href="ra8__mdl__http_8h.html" target="_top" xlink:title="Wire&#45;neutral media HTTP request and response records.">
<polygon fill="white" stroke="#666666" points="218,-129 128,-129 128,-110 218,-110 218,-129"/>
<text text-anchor="middle" x="173" y="-117" font-family="Helvetica,sans-Serif" font-size="10.00">ra8_mdl_http.h</text>
</a>
</g>
</g>
<!-- Node2&#45;&gt;Node8 -->
<g id="edge13_Node000002_Node000008" class="edge">
<title>Node2&#45;&gt;Node8</title>
<g id="a_edge13_Node000002_Node000008"><a xlink:title=" ">
<path fill="none" stroke="#63b8ff" d="M85.77,-219.66C101.72,-201.54 138.33,-159.91 158.69,-136.77"/>
<polygon fill="#63b8ff" stroke="#63b8ff" points="161.41,-138.98 165.38,-129.16 156.15,-134.36 161.41,-138.98"/>
</a>
</g>
</g>
<!-- Node4&#45;&gt;Node3 -->
<g id="edge4_Node000004_Node000003" class="edge">
<title>Node4&#45;&gt;Node3</title>
<g id="a_edge4_Node000004_Node000003"><a xlink:title=" ">
<path fill="none" stroke="#63b8ff" d="M403.95,-164.67C398.85,-155.72 390.78,-141.45 384,-129 366.23,-96.35 369.63,-82.85 345,-55 334.11,-42.68 319.14,-32.03 306.41,-24.24"/>
<polygon fill="#63b8ff" stroke="#63b8ff" points="308.03,-21.13 297.64,-19.09 304.49,-27.17 308.03,-21.13"/>
</a>
</g>
</g>
<!-- Node5 -->
<g id="Node000005" class="node">
<title>Node5</title>
<g id="a_Node000005"><a xlink:href="ra8__c6link__transport_8h.html" target="_top" xlink:title="The one seam between ra8_c6link and the wire that reaches the C6.">
<polygon fill="white" stroke="#666666" points="517.5,-129 392.5,-129 392.5,-110 517.5,-110 517.5,-129"/>
<text text-anchor="middle" x="455" y="-117" font-family="Helvetica,sans-Serif" font-size="10.00">ra8_c6link_transport.h</text>
</a>
</g>
</g>
<!-- Node4&#45;&gt;Node5 -->
<g id="edge5_Node000004_Node000005" class="edge">
<title>Node4&#45;&gt;Node5</title>
<g id="a_edge5_Node000004_Node000005"><a xlink:title=" ">
<path fill="none" stroke="#63b8ff" d="M416.6,-164.75C423.16,-157.18 432.82,-146.05 440.81,-136.84"/>
<polygon fill="#63b8ff" stroke="#63b8ff" points="443.63,-138.94 447.55,-129.09 438.35,-134.35 443.63,-138.94"/>
</a>
</g>
</g>
<!-- Node4&#45;&gt;Node6 -->
<g id="edge9_Node000004_Node000006" class="edge">
<title>Node4&#45;&gt;Node6</title>
<g id="a_edge9_Node000004_Node000006"><a xlink:title=" ">
<path fill="none" stroke="#63b8ff" d="M447.13,-168.12C473,-162.55 506.17,-151.34 527,-129 538.39,-116.78 542.98,-98 544.81,-84.02"/>
<polygon fill="#63b8ff" stroke="#63b8ff" points="548.29,-84.36 545.76,-74.07 541.32,-83.69 548.29,-84.36"/>
</a>
</g>
</g>
<!-- Node7 -->
<g id="Node000007" class="node">
<title>Node7</title>
<g id="a_Node000007"><a xlink:href="ra8__mdl__protocol_8h.html" target="_top" xlink:title="Allocation&#45;free constants shared by the RA8 and C6 media endpoints.">
<polygon fill="white" stroke="#666666" points="336,-74 226,-74 226,-55 336,-55 336,-74"/>
<text text-anchor="middle" x="281" y="-62" font-family="Helvetica,sans-Serif" font-size="10.00">ra8_mdl_protocol.h</text>
</a>
</g>
</g>
<!-- Node4&#45;&gt;Node7 -->
<g id="edge10_Node000004_Node000007" class="edge">
<title>Node4&#45;&gt;Node7</title>
<g id="a_edge10_Node000004_Node000007"><a xlink:title=" ">
<path fill="none" stroke="#63b8ff" d="M396.98,-164.97C384.87,-156.24 365.77,-142.15 350,-129 331.19,-113.31 310.65,-94.13 296.92,-80.98"/>
<polygon fill="#63b8ff" stroke="#63b8ff" points="299.31,-78.42 289.68,-74 294.45,-83.46 299.31,-78.42"/>
</a>
</g>
</g>
<!-- Node5&#45;&gt;Node3 -->
<g id="edge6_Node000005_Node000003" class="edge">
<title>Node5&#45;&gt;Node3</title>
<g id="a_edge6_Node000005_Node000003"><a xlink:title=" ">
<path fill="none" stroke="#63b8ff" d="M446.12,-109.85C432.37,-96.78 404.72,-71.75 378,-55 357.45,-42.12 332.56,-30.78 313.14,-22.77"/>
<polygon fill="#63b8ff" stroke="#63b8ff" points="314.39,-19.5 303.81,-19 311.77,-25.99 314.39,-19.5"/>
</a>
</g>
</g>
<!-- Node5&#45;&gt;Node6 -->
<g id="edge7_Node000005_Node000006" class="edge">
<title>Node5&#45;&gt;Node6</title>
<g id="a_edge7_Node000005_Node000006"><a xlink:title=" ">
<path fill="none" stroke="#63b8ff" d="M469.62,-109.98C483.86,-101.69 505.75,-88.94 522.45,-79.22"/>
<polygon fill="#63b8ff" stroke="#63b8ff" points="524.23,-82.23 531.11,-74.17 520.71,-76.18 524.23,-82.23"/>
</a>
</g>
</g>
<!-- Node6&#45;&gt;Node3 -->
<g id="edge8_Node000006_Node000003" class="edge">
<title>Node6&#45;&gt;Node3</title>
<g id="a_edge8_Node000006_Node000003"><a xlink:title=" ">
<path fill="none" stroke="#63b8ff" d="M516.37,-57.57C467.62,-47.82 370.64,-28.43 317.65,-17.83"/>
<polygon fill="#63b8ff" stroke="#63b8ff" points="318.16,-14.36 307.66,-15.83 316.78,-21.23 318.16,-14.36"/>
</a>
</g>
</g>
<!-- Node7&#45;&gt;Node3 -->
<g id="edge11_Node000007_Node000003" class="edge">
<title>Node7&#45;&gt;Node3</title>
<g id="a_edge11_Node000007_Node000003"><a xlink:title=" ">
<path fill="none" stroke="#63b8ff" d="M281,-54.75C281,-47.8 281,-37.85 281,-29.13"/>
<polygon fill="#63b8ff" stroke="#63b8ff" points="284.5,-29.09 281,-19.09 277.5,-29.09 284.5,-29.09"/>
</a>
</g>
</g>
<!-- Node8&#45;&gt;Node3 -->
<g id="edge14_Node000008_Node000003" class="edge">
<title>Node8&#45;&gt;Node3</title>
<g id="a_edge14_Node000008_Node000003"><a xlink:title=" ">
<path fill="none" stroke="#63b8ff" d="M177.58,-109.98C184.79,-97.08 199.75,-72.27 217,-55 228.85,-43.13 244.22,-32.33 256.93,-24.34"/>
<polygon fill="#63b8ff" stroke="#63b8ff" points="258.91,-27.23 265.63,-19.04 255.27,-21.25 258.91,-27.23"/>
</a>
</g>
</g>
<!-- Node8&#45;&gt;Node7 -->
<g id="edge17_Node000008_Node000007" class="edge">
<title>Node8&#45;&gt;Node7</title>
<g id="a_edge17_Node000008_Node000007"><a xlink:title=" ">
<path fill="none" stroke="#63b8ff" d="M190.35,-109.98C207.57,-101.54 234.2,-88.47 254.15,-78.68"/>
<polygon fill="#63b8ff" stroke="#63b8ff" points="255.9,-81.72 263.33,-74.17 252.81,-75.43 255.9,-81.72"/>
</a>
</g>
</g>
<!-- Node9 -->
<g id="Node000009" class="node">
<title>Node9</title>
<g id="a_Node000009"><a xlink:href="mdl__format_8h.html" target="_top" xlink:title="Shared media artifact format contract for download and export paths.">
<polygon fill="white" stroke="#666666" points="169.5,-74 86.5,-74 86.5,-55 169.5,-55 169.5,-74"/>
<text text-anchor="middle" x="128" y="-62" font-family="Helvetica,sans-Serif" font-size="10.00">mdl_format.h</text>
</a>
</g>
</g>
<!-- Node8&#45;&gt;Node9 -->
<g id="edge15_Node000008_Node000009" class="edge">
<title>Node8&#45;&gt;Node9</title>
<g id="a_edge15_Node000008_Node000009"><a xlink:title=" ">
<path fill="none" stroke="#63b8ff" d="M165.57,-109.75C159.15,-102.18 149.69,-91.05 141.88,-81.84"/>
<polygon fill="#63b8ff" stroke="#63b8ff" points="144.43,-79.45 135.29,-74.09 139.1,-83.98 144.43,-79.45"/>
</a>
</g>
</g>
<!-- Node9&#45;&gt;Node3 -->
<g id="edge16_Node000009_Node000003" class="edge">
<title>Node9&#45;&gt;Node3</title>
<g id="a_edge16_Node000009_Node000003"><a xlink:title=" ">
<path fill="none" stroke="#63b8ff" d="M152.58,-54.98C178.05,-46.16 218.04,-32.31 246.63,-22.41"/>
<polygon fill="#63b8ff" stroke="#63b8ff" points="247.92,-25.66 256.23,-19.08 245.63,-19.05 247.92,-25.66"/>
</a>
</g>
</g>
<!-- Node13&#45;&gt;Node3 -->
<g id="edge24_Node000013_Node000003" class="edge">
<title>Node13&#45;&gt;Node3</title>
<g id="a_edge24_Node000013_Node000003"><a xlink:title=" ">
<path fill="none" stroke="#63b8ff" d="M739.82,-275.98C742.92,-275.64 746,-275.31 749,-275 797.69,-270.01 1149.97,-269.81 1188,-239 1210.89,-220.46 1207,-204.96 1207,-175.5 1207,-175.5 1207,-175.5 1207,-118.5 1207,-27.34 489.89,-12.99 317.8,-10.85"/>
<polygon fill="#63b8ff" stroke="#63b8ff" points="317.76,-7.35 307.71,-10.74 317.67,-14.35 317.76,-7.35"/>
</a>
</g>
</g>
<!-- Node13&#45;&gt;Node4 -->
<g id="edge26_Node000013_Node000004" class="edge">
<title>Node13&#45;&gt;Node4</title>
<g id="a_edge26_Node000013_Node000004"><a xlink:title=" ">
<path fill="none" stroke="#63b8ff" d="M645.54,-274.95C615.36,-267.01 570.58,-254.17 533,-239 527.99,-236.98 469.55,-206.84 434.72,-188.82"/>
<polygon fill="#63b8ff" stroke="#63b8ff" points="436.07,-185.58 425.58,-184.09 432.86,-191.8 436.07,-185.58"/>
</a>
</g>
</g>
<!-- Node13&#45;&gt;Node6 -->
<g id="edge27_Node000013_Node000006" class="edge">
<title>Node13&#45;&gt;Node6</title>
<g id="a_edge27_Node000013_Node000006"><a xlink:title=" ">
<path fill="none" stroke="#63b8ff" d="M739.72,-275.95C828.89,-264.54 986.9,-243.73 991,-239 996.53,-232.62 995.3,-227.27 991,-220 948.19,-147.59 686.82,-91.79 585.8,-72.66"/>
<polygon fill="#63b8ff" stroke="#63b8ff" points="586.17,-69.17 575.7,-70.77 584.88,-76.05 586.17,-69.17"/>
</a>
</g>
</g>
<!-- Node13&#45;&gt;Node10 -->
<g id="edge23_Node000013_Node000010" class="edge">
<title>Node13&#45;&gt;Node10</title>
<g id="a_edge23_Node000013_Node000010"><a xlink:title=" ">
<path fill="none" stroke="#63b8ff" d="M620.45,-280.36C533,-275.2 364.58,-263.15 212.22,-238.99"/>
<polygon fill="#63b8ff" stroke="#63b8ff" points="212.64,-235.51 202.21,-237.38 211.52,-242.42 212.64,-235.51"/>
</a>
</g>
</g>
<!-- Node13&#45;&gt;Node12 -->
<g id="edge25_Node000013_Node000012" class="edge">
<title>Node13&#45;&gt;Node12</title>
<g id="a_edge25_Node000013_Node000012"><a xlink:title=" ">
<path fill="none" stroke="#63b8ff" d="M641.28,-274.98C599.59,-265.82 533.18,-251.21 487.91,-241.26"/>
<polygon fill="#63b8ff" stroke="#63b8ff" points="488.54,-237.81 478.02,-239.08 487.04,-244.65 488.54,-237.81"/>
</a>
</g>
</g>
<!-- Node14 -->
<g id="Node000014" class="node">
<title>Node14</title>
<g id="a_Node000014"><a xlink:title=" ">
<polygon fill="#e0e0e0" stroke="#999999" points="1178.5,-239 1059.5,-239 1059.5,-220 1178.5,-220 1178.5,-239"/>
<text text-anchor="middle" x="1119" y="-227" font-family="Helvetica,sans-Serif" font-size="10.00">esp_hosted_header.h</text>
</a>
</g>
</g>
<!-- Node13&#45;&gt;Node14 -->
<g id="edge28_Node000013_Node000014" class="edge">
<title>Node13&#45;&gt;Node14</title>
<g id="a_edge28_Node000013_Node000014"><a xlink:title=" ">
<path fill="none" stroke="#63b8ff" d="M739.84,-276.12C742.94,-275.74 746,-275.36 749,-275 853.58,-262.27 974.83,-247.73 1049.22,-238.83"/>
<polygon fill="#63b8ff" stroke="#63b8ff" points="1049.88,-242.28 1059.4,-237.62 1049.05,-235.33 1049.88,-242.28"/>
</a>
</g>
</g>
<!-- Node15 -->
<g id="Node000015" class="node">
<title>Node15</title>
<g id="a_Node000015"><a xlink:title=" ">
<polygon fill="#e0e0e0" stroke="#999999" points="672,-239 542,-239 542,-220 672,-220 672,-239"/>
<text text-anchor="middle" x="607" y="-227" font-family="Helvetica,sans-Serif" font-size="10.00">esp_hosted_interface.h</text>
</a>
</g>
</g>
<!-- Node13&#45;&gt;Node15 -->
<g id="edge29_Node000013_Node000015" class="edge">
<title>Node13&#45;&gt;Node15</title>
<g id="a_edge29_Node000013_Node000015"><a xlink:title=" ">
<path fill="none" stroke="#63b8ff" d="M668.27,-274.98C657.27,-267 640.58,-254.88 627.4,-245.31"/>
<polygon fill="#63b8ff" stroke="#63b8ff" points="629.09,-242.21 618.94,-239.17 624.98,-247.88 629.09,-242.21"/>
</a>
</g>
</g>
<!-- Node16 -->
<g id="Node000016" class="node">
<title>Node16</title>
<g id="a_Node000016"><a xlink:title=" ">
<polygon fill="#e0e0e0" stroke="#999999" points="815.5,-239 690.5,-239 690.5,-220 815.5,-220 815.5,-239"/>
<text text-anchor="middle" x="753" y="-227" font-family="Helvetica,sans-Serif" font-size="10.00">esp_hosted_rpc.pb&#45;c.h</text>
</a>
</g>
</g>
<!-- Node13&#45;&gt;Node16 -->
<g id="edge30_Node000013_Node000016" class="edge">
<title>Node13&#45;&gt;Node16</title>
<g id="a_edge30_Node000013_Node000016"><a xlink:title=" ">
<path fill="none" stroke="#63b8ff" d="M691.73,-274.98C702.73,-267 719.42,-254.88 732.6,-245.31"/>
<polygon fill="#63b8ff" stroke="#63b8ff" points="735.02,-247.88 741.06,-239.17 730.91,-242.21 735.02,-247.88"/>
</a>
</g>
</g>
<!-- Node17 -->
<g id="Node000017" class="node">
<title>Node17</title>
<g id="a_Node000017"><a xlink:title=" ">
<polygon fill="#e0e0e0" stroke="#999999" points="964.5,-239 833.5,-239 833.5,-220 964.5,-220 964.5,-239"/>
<text text-anchor="middle" x="899" y="-227" font-family="Helvetica,sans-Serif" font-size="10.00">esp_hosted_transport.h</text>
</a>
</g>
</g>
<!-- Node13&#45;&gt;Node17 -->
<g id="edge31_Node000013_Node000017" class="edge">
<title>Node13&#45;&gt;Node17</title>
<g id="a_edge31_Node000013_Node000017"><a xlink:title=" ">
<path fill="none" stroke="#63b8ff" d="M715.19,-274.98C752.83,-265.87 812.66,-251.4 853.77,-241.45"/>
<polygon fill="#63b8ff" stroke="#63b8ff" points="854.64,-244.84 863.54,-239.08 853,-238.03 854.64,-244.84"/>
</a>
</g>
</g>
<!-- Node18 -->
<g id="Node000018" class="node">
<title>Node18</title>
<g id="a_Node000018"><a xlink:title=" ">
<polygon fill="#e0e0e0" stroke="#999999" points="882,-184 754,-184 754,-165 882,-165 882,-184"/>
<text text-anchor="middle" x="818" y="-172" font-family="Helvetica,sans-Serif" font-size="10.00">protobuf&#45;c/protobuf&#45;c.h</text>
</a>
</g>
</g>
<!-- Node13&#45;&gt;Node18 -->
<g id="edge32_Node000013_Node000018" class="edge">
<title>Node13&#45;&gt;Node18</title>
<g id="a_edge32_Node000013_Node000018"><a xlink:title=" ">
<path fill="none" stroke="#63b8ff" d="M739.59,-275.47C824.4,-263.9 970.19,-243.43 974,-239 1002.35,-206.04 945.16,-189.95 892.22,-182.25"/>
<polygon fill="#63b8ff" stroke="#63b8ff" points="892.44,-178.74 882.06,-180.86 891.5,-185.68 892.44,-178.74"/>
</a>
</g>
</g>
<!-- Node19&#45;&gt;Node2 -->
<g id="edge36_Node000019_Node000002" class="edge">
<title>Node19&#45;&gt;Node2</title>
<g id="a_edge36_Node000019_Node000002"><a xlink:title=" ">
<path fill="none" stroke="#63b8ff" d="M242.51,-274.98C209.18,-265.97 156.4,-251.7 119.65,-241.76"/>
<polygon fill="#63b8ff" stroke="#63b8ff" points="120.3,-238.31 109.74,-239.08 118.48,-245.07 120.3,-238.31"/>
</a>
</g>
</g>
<!-- Node19&#45;&gt;Node10 -->
<g id="edge34_Node000019_Node000010" class="edge">
<title>Node19&#45;&gt;Node10</title>
<g id="a_edge34_Node000019_Node000010"><a xlink:title=" ">
<path fill="none" stroke="#63b8ff" d="M257.93,-274.98C242.14,-266.61 217.78,-253.7 199.37,-243.95"/>
<polygon fill="#63b8ff" stroke="#63b8ff" points="200.83,-240.76 190.36,-239.17 197.56,-246.95 200.83,-240.76"/>
</a>
</g>
</g>
<!-- Node19&#45;&gt;Node12 -->
<g id="edge35_Node000019_Node000012" class="edge">
<title>Node19&#45;&gt;Node12</title>
<g id="a_edge35_Node000019_Node000012"><a xlink:title=" ">
<path fill="none" stroke="#63b8ff" d="M300.51,-274.98C328.21,-266.09 371.86,-252.07 402.74,-242.15"/>
<polygon fill="#63b8ff" stroke="#63b8ff" points="403.83,-245.47 412.28,-239.08 401.69,-238.81 403.83,-245.47"/>
</a>
</g>
</g>
<!-- Node19&#45;&gt;Node20 -->
<g id="edge37_Node000019_Node000020" class="edge">
<title>Node19&#45;&gt;Node20</title>
<g id="a_edge37_Node000019_Node000020"><a xlink:title=" ">
<path fill="none" stroke="#63b8ff" d="M277.8,-274.75C280.91,-267.57 285.42,-257.18 289.29,-248.27"/>
<polygon fill="#63b8ff" stroke="#63b8ff" points="292.5,-249.66 293.27,-239.09 286.08,-246.87 292.5,-249.66"/>
</a>
</g>
</g>
<!-- Node20&#45;&gt;Node18 -->
<g id="edge38_Node000020_Node000018" class="edge">
<title>Node20&#45;&gt;Node18</title>
<g id="a_edge38_Node000020_Node000018"><a xlink:title=" ">
<path fill="none" stroke="#63b8ff" d="M374.16,-220.65C473.6,-210.53 645.35,-193.06 743.5,-183.08"/>
<polygon fill="#63b8ff" stroke="#63b8ff" points="744.04,-186.54 753.63,-182.05 743.33,-179.58 744.04,-186.54"/>
</a>
</g>
</g>
</g>
</svg>

<g id="navigator" transform="translate(0 0)" fill="#404254">
  <rect fill="#f2f5e9" fill-opacity="0.5" stroke="#606060" stroke-width=".5" x="0" y="0" width="60" height="60"/>
  <use id="zoomplus" xlink:href="#zoomPlus" x="17" y="9" onmousedown="handleZoom(evt,'in')"/>
  <use id="zoomminus" xlink:href="#zoomMin" x="42" y="9" onmousedown="handleZoom(evt,'out')"/>
  <use id="reset" xlink:href="#resetDef" x="30" y="36" onmousedown="handleReset()"/>
   <use id="arrowup" xlink:href="#arrowUp" x="0" y="0" onmousedown="handlePan(0,-1)"/>
  <use id="arrowright" xlink:href="#arrowRight" x="0" y="0" onmousedown="handlePan(1,0)"/>
  <use id="arrowdown" xlink:href="#arrowDown" x="0" y="0" onmousedown="handlePan(0,1)"/>
  <use id="arrowleft" xlink:href="#arrowLeft" x="0" y="0" onmousedown="handlePan(-1,0)"/>
</g>
<svg viewBox="0 0 15 15" width="100%" height="30px" preserveAspectRatio="xMaxYMin meet">
 <g id="arrow_out" transform="scale(0.3 0.3)">
  <a xlink:href="ra8__c6link__mdl_8c__incl_org.svg" target="_base">
   <rect id="button" ry="5" rx="5" y="6" x="6" height="38" width="38"
        fill="#f2f5e9" fill-opacity="0.5" stroke="#606060" stroke-width="1.0"/>
   <path id="arrow"
     d="M 11.500037,31.436501 C 11.940474,20.09759 22.043105,11.32322 32.158766,21.979434 L 37.068811,17.246167 C 37.068811,17.246167 37.088388,32 37.088388,32 L 22.160133,31.978069 C 22.160133,31.978069 26.997745,27.140456 26.997745,27.140456 C 18.528582,18.264221 13.291696,25.230495 11.500037,31.436501 z"
     style="fill:#404040;"/>
  </a>
 </g>
</svg>

<style type='text/css'>
<![CDATA[
[data-mouse-over-selected='false'] { opacity: 0.7; }
[data-mouse-over-selected='true']  { opacity: 1.0; }
]]>
</style>
<script type="application/ecmascript"><![CDATA[
document.addEventListener('DOMContentLoaded', (event) => {
  highlightEdges();
  highlightAdjacentNodes();
});
]]></script>
</svg>
