<?xml version="1.0" encoding="UTF-8" standalone="no"?>
<!DOCTYPE svg PUBLIC "-//W3C//DTD SVG 1.1//EN"
 "http://www.w3.org/Graphics/SVG/1.1/DTD/svg11.dtd">
<!-- Generated by graphviz version 2.43.0 (0)
 -->
<!-- Title: libs/ra8_board_ra8p1/inc/ra8_board_ra8p1.h Pages: 1 -->
<svg width="477pt" height="104pt"
 viewBox="0.00 0.00 477.00 104.00" xmlns="http://www.w3.org/2000/svg" xmlns:xlink="http://www.w3.org/1999/xlink">
<g id="graph0" class="graph" transform="scale(1 1) rotate(0) translate(4 100)">
<title>libs/ra8_board_ra8p1/inc/ra8_board_ra8p1.h</title>
<!-- Node1 -->
<g id="Node000001" class="node">
<title>Node1</title>
<g id="a_Node000001"><a xlink:title="Board&#45;support layer for the Renesas RA8P1 (R7KA8P1KFLCAC) target board.">
<polygon fill="#999999" stroke="#666666" points="311.5,-96 183.5,-96 183.5,-66 311.5,-66 311.5,-96"/>
<text text-anchor="start" x="191.5" y="-84" font-family="Helvetica,sans-Serif" font-size="10.00">libs/ra8_board_ra8p1</text>
<text text-anchor="middle" x="247.5" y="-73" font-family="Helvetica,sans-Serif" font-size="10.00">/inc/ra8_board_ra8p1.h</text>
</a>
</g>
</g>
<!-- Node2 -->
<g id="Node000002" class="node">
<title>Node2</title>
<g id="a_Node000002"><a xlink:href="examples_2ra8p1__foundation_2blink__ra8p1_2main_8c.html" target="_top" xlink:title="RA8P1 build&#45;foundation blink – proves ra8_core + ra8_hal compile and link for the R7KA8P1KFLCAC.">
<polygon fill="white" stroke="#666666" points="153,-30 0,-30 0,0 153,0 153,-30"/>
<text text-anchor="start" x="8" y="-18" font-family="Helvetica,sans-Serif" font-size="10.00">examples/ra8p1_foundation</text>
<text text-anchor="middle" x="76.5" y="-7" font-family="Helvetica,sans-Serif" font-size="10.00">/blink_ra8p1/main.c</text>
</a>
</g>
</g>
<!-- Node1&#45;&gt;Node2 -->
<g id="edge1_Node000001_Node000002" class="edge">
<title>Node1&#45;&gt;Node2</title>
<g id="a_edge1_Node000001_Node000002"><a xlink:title=" ">
<path fill="none" stroke="#63b8ff" d="M200.27,-62.32C173.05,-52.14 139.31,-39.51 113.94,-30.01"/>
<polygon fill="#63b8ff" stroke="#63b8ff" points="199.38,-65.73 209.97,-65.95 201.83,-59.17 199.38,-65.73"/>
</a>
</g>
</g>
<!-- Node3 -->
<g id="Node000003" class="node">
<title>Node3</title>
<g id="a_Node000003"><a xlink:href="examples_2ra8p1__foundation_2npu__smoke_2main_8c.html" target="_top" xlink:title="RA8P1 Arm Ethos&#45;U55 NPU foundation smoke – runs a checkable stand&#45;in job.">
<polygon fill="white" stroke="#666666" points="324,-30 171,-30 171,0 324,0 324,-30"/>
<text text-anchor="start" x="179" y="-18" font-family="Helvetica,sans-Serif" font-size="10.00">examples/ra8p1_foundation</text>
<text text-anchor="middle" x="247.5" y="-7" font-family="Helvetica,sans-Serif" font-size="10.00">/npu_smoke/main.c</text>
</a>
</g>
</g>
<!-- Node1&#45;&gt;Node3 -->
<g id="edge2_Node000001_Node000003" class="edge">
<title>Node1&#45;&gt;Node3</title>
<g id="a_edge2_Node000001_Node000003"><a xlink:title=" ">
<path fill="none" stroke="#63b8ff" d="M247.5,-55.54C247.5,-46.96 247.5,-37.61 247.5,-30.16"/>
<polygon fill="#63b8ff" stroke="#63b8ff" points="244,-55.8 247.5,-65.8 251,-55.8 244,-55.8"/>
</a>
</g>
</g>
<!-- Node4 -->
<g id="Node000004" class="node">
<title>Node4</title>
<g id="a_Node000004"><a xlink:href="ra8__board__ra8p1_8c.html" target="_top" xlink:title="Board&#45;support implementation for the RA8P1 foundation board.">
<polygon fill="white" stroke="#666666" points="469,-30 342,-30 342,0 469,0 469,-30"/>
<text text-anchor="start" x="350" y="-18" font-family="Helvetica,sans-Serif" font-size="10.00">libs/ra8_board_ra8p1</text>
<text text-anchor="middle" x="405.5" y="-7" font-family="Helvetica,sans-Serif" font-size="10.00">/src/ra8_board_ra8p1.c</text>
</a>
</g>
</g>
<!-- Node1&#45;&gt;Node4 -->
<g id="edge3_Node000001_Node000004" class="edge">
<title>Node1&#45;&gt;Node4</title>
<g id="a_edge3_Node000001_Node000004"><a xlink:title=" ">
<path fill="none" stroke="#63b8ff" d="M291.47,-62.19C316.56,-52.02 347.57,-39.47 370.91,-30.01"/>
<polygon fill="#63b8ff" stroke="#63b8ff" points="290.13,-58.96 282.17,-65.95 292.76,-65.44 290.13,-58.96"/>
</a>
</g>
</g>
</g>
</svg>
