<?xml version="1.0" encoding="UTF-8" standalone="no"?>
<!DOCTYPE svg PUBLIC "-//W3C//DTD SVG 1.1//EN"
 "http://www.w3.org/Graphics/SVG/1.1/DTD/svg11.dtd">
<!-- Generated by graphviz version 2.43.0 (0)
 -->
<!-- Title: libs/ra8_reflow/inc/ra8_img_arena.h Pages: 1 -->
<svg width="187pt" height="203pt"
 viewBox="0.00 0.00 186.50 203.00" xmlns="http://www.w3.org/2000/svg" xmlns:xlink="http://www.w3.org/1999/xlink">
<g id="graph0" class="graph" transform="scale(1 1) rotate(0) translate(4 199)">
<title>libs/ra8_reflow/inc/ra8_img_arena.h</title>
<!-- Node1 -->
<g id="Node000001" class="node">
<title>Node1</title>
<g id="a_Node000001"><a xlink:title="Heap&#45;free scratch allocator hooks for the stb_image single&#45;TU build.">
<polygon fill="#999999" stroke="#666666" points="108.5,-195 3.5,-195 3.5,-165 108.5,-165 108.5,-195"/>
<text text-anchor="start" x="11.5" y="-183" font-family="Helvetica,sans-Serif" font-size="10.00">libs/ra8_reflow/inc</text>
<text text-anchor="middle" x="56" y="-172" font-family="Helvetica,sans-Serif" font-size="10.00">/ra8_img_arena.h</text>
</a>
</g>
</g>
<!-- Node2 -->
<g id="Node000002" class="node">
<title>Node2</title>
<g id="a_Node000002"><a xlink:title=" ">
<polygon fill="#e0e0e0" stroke="#999999" points="56,-74 0,-74 0,-55 56,-55 56,-74"/>
<text text-anchor="middle" x="28" y="-62" font-family="Helvetica,sans-Serif" font-size="10.00">stddef.h</text>
</a>
</g>
</g>
<!-- Node1&#45;&gt;Node2 -->
<g id="edge1_Node000001_Node000002" class="edge">
<title>Node1&#45;&gt;Node2</title>
<g id="a_edge1_Node000001_Node000002"><a xlink:title=" ">
<path fill="none" stroke="#63b8ff" d="M47.74,-164.63C42.56,-154.9 36.28,-141.57 33,-129 29.2,-114.42 28.03,-97.36 27.76,-84.6"/>
<polygon fill="#63b8ff" stroke="#63b8ff" points="31.26,-84.27 27.73,-74.29 24.26,-84.3 31.26,-84.27"/>
</a>
</g>
</g>
<!-- Node3 -->
<g id="Node000003" class="node">
<title>Node3</title>
<g id="a_Node000003"><a xlink:href="ra8__reflow__image_8h.html" target="_top" xlink:title="Zero&#45;heap raster image decode + scale + blit for ra8_reflow (#106).">
<polygon fill="white" stroke="#666666" points="155.5,-129 42.5,-129 42.5,-110 155.5,-110 155.5,-129"/>
<text text-anchor="middle" x="99" y="-117" font-family="Helvetica,sans-Serif" font-size="10.00">ra8_reflow_image.h</text>
</a>
</g>
</g>
<!-- Node1&#45;&gt;Node3 -->
<g id="edge2_Node000001_Node000003" class="edge">
<title>Node1&#45;&gt;Node3</title>
<g id="a_edge2_Node000001_Node000003"><a xlink:title=" ">
<path fill="none" stroke="#63b8ff" d="M66.41,-164.84C72.46,-156.61 80.12,-146.18 86.5,-137.51"/>
<polygon fill="#63b8ff" stroke="#63b8ff" points="89.45,-139.4 92.56,-129.27 83.81,-135.25 89.45,-139.4"/>
</a>
</g>
</g>
<!-- Node3&#45;&gt;Node2 -->
<g id="edge3_Node000003_Node000002" class="edge">
<title>Node3&#45;&gt;Node2</title>
<g id="a_edge3_Node000003_Node000002"><a xlink:title=" ">
<path fill="none" stroke="#63b8ff" d="M87.59,-109.98C76.89,-102 60.66,-89.88 47.84,-80.31"/>
<polygon fill="#63b8ff" stroke="#63b8ff" points="49.72,-77.35 39.61,-74.17 45.53,-82.96 49.72,-77.35"/>
</a>
</g>
</g>
<!-- Node4 -->
<g id="Node000004" class="node">
<title>Node4</title>
<g id="a_Node000004"><a xlink:title=" ">
<polygon fill="#e0e0e0" stroke="#999999" points="146.5,-19 93.5,-19 93.5,0 146.5,0 146.5,-19"/>
<text text-anchor="middle" x="120" y="-7" font-family="Helvetica,sans-Serif" font-size="10.00">stdint.h</text>
</a>
</g>
</g>
<!-- Node3&#45;&gt;Node4 -->
<g id="edge4_Node000003_Node000004" class="edge">
<title>Node3&#45;&gt;Node4</title>
<g id="a_edge4_Node000003_Node000004"><a xlink:title=" ">
<path fill="none" stroke="#63b8ff" d="M100.36,-109.85C102.32,-97.6 106.12,-74.53 110,-55 111.72,-46.35 113.84,-36.8 115.68,-28.78"/>
<polygon fill="#63b8ff" stroke="#63b8ff" points="119.09,-29.54 117.96,-19 112.28,-27.95 119.09,-29.54"/>
</a>
</g>
</g>
<!-- Node5 -->
<g id="Node000005" class="node">
<title>Node5</title>
<g id="a_Node000005"><a xlink:href="ra8__err_8h.html" target="_top" xlink:title="Error Code Definitions for ra8&#45;firmware.">
<polygon fill="white" stroke="#666666" points="178.5,-74 119.5,-74 119.5,-55 178.5,-55 178.5,-74"/>
<text text-anchor="middle" x="149" y="-62" font-family="Helvetica,sans-Serif" font-size="10.00">ra8_err.h</text>
</a>
</g>
</g>
<!-- Node3&#45;&gt;Node5 -->
<g id="edge5_Node000003_Node000005" class="edge">
<title>Node3&#45;&gt;Node5</title>
<g id="a_edge5_Node000003_Node000005"><a xlink:title=" ">
<path fill="none" stroke="#63b8ff" d="M107.26,-109.75C114.46,-102.11 125.11,-90.82 133.85,-81.56"/>
<polygon fill="#63b8ff" stroke="#63b8ff" points="136.58,-83.76 140.9,-74.09 131.49,-78.96 136.58,-83.76"/>
</a>
</g>
</g>
<!-- Node5&#45;&gt;Node4 -->
<g id="edge6_Node000005_Node000004" class="edge">
<title>Node5&#45;&gt;Node4</title>
<g id="a_edge6_Node000005_Node000004"><a xlink:title=" ">
<path fill="none" stroke="#63b8ff" d="M144.21,-54.75C140.24,-47.49 134.47,-36.95 129.57,-27.98"/>
<polygon fill="#63b8ff" stroke="#63b8ff" points="132.57,-26.18 124.7,-19.09 126.43,-29.54 132.57,-26.18"/>
</a>
</g>
</g>
</g>
</svg>
