<?xml version="1.0" encoding="UTF-8" standalone="no"?>
<!DOCTYPE svg PUBLIC "-//W3C//DTD SVG 1.1//EN"
 "http://www.w3.org/Graphics/SVG/1.1/DTD/svg11.dtd">
<!-- Generated by graphviz version 2.43.0 (0)
 -->
<!-- Title: libs/ra8_rabook_compile/src/ra8_rabook_xml_shim.cpp Pages: 1 -->
<!--zoomable 313 -->

<svg id="main" version="1.1" xmlns="http://www.w3.org/2000/svg" xmlns:xlink="http://www.w3.org/1999/xlink" xml:space="preserve" onload="init(evt)">

<style type="text/css"><![CDATA[
.node, .edge {opacity: 0.7;}
.node.selected, .edge.selected {opacity: 1;}
.edge:hover path { stroke: red; }
.edge:hover polygon { stroke: red; fill: red; }
]]></style>

<defs>
  <circle id="rim" cx="0" cy="0" r="7"/>
  <circle id="rim2" cx="0" cy="0" r="3.5"/>
  <g id="zoomPlus">
    <use xlink:href="#rim" fill="#404040"><set attributeName="fill" to="#808080" begin="zoomplus.mouseover" end="zoomplus.mouseout"/></use>
    <path d="M-4,0h8M0,-4v8" fill="none" stroke="white" stroke-width="1.5" pointer-events="none"/>
  </g>
  <g id="zoomMin">
    <use xlink:href="#rim" fill="#404040"><set attributeName="fill" to="#808080" begin="zoomminus.mouseover" end="zoomminus.mouseout"/></use>
    <path d="M-4,0h8" fill="none" stroke="white" stroke-width="1.5" pointer-events="none"/>
  </g>
  <g id="arrowUp" transform="translate(30 24)">
    <use xlink:href="#rim"/>
    <path pointer-events="none" fill="none" stroke="white" stroke-width="1.5" d="M0,-3.0v7 M-2.5,-0.5L0,-3.0L2.5,-0.5"/>
  </g>
  <g id="arrowRight" transform="rotate(90) translate(36 -43)">
    <use xlink:href="#rim"/>
    <path pointer-events="none" fill="none" stroke="white" stroke-width="1.5" d="M0,-3.0v7 M-2.5,-0.5L0,-3.0L2.5,-0.5"/>
  </g>
  <g id="arrowDown" transform="rotate(180) translate(-30 -48)">
    <use xlink:href="#rim"/>
    <path pointer-events="none" fill="none" stroke="white" stroke-width="1.5" d="M0,-3.0v7 M-2.5,-0.5L0,-3.0L2.5,-0.5"/>
  </g>
  <g id="arrowLeft" transform="rotate(270) translate(-36 17)">
    <use xlink:href="#rim"/>
    <path pointer-events="none" fill="none" stroke="white" stroke-width="1.5" d="M0,-3.0v7 M-2.5,-0.5L0,-3.0L2.5,-0.5"/>
  </g>
  <g id="resetDef">
    <use xlink:href="#rim2" fill="#404040"><set attributeName="fill" to="#808080" begin="reset.mouseover" end="reset.mouseout"/></use>
  </g>
</defs>
<script type="application/ecmascript">
var viewWidth = 716;
var viewHeight = 313;
var sectionId = 'dynsection-0';
</script>
<script type="application/ecmascript" xlink:href="svg.min.js"/>
<svg id="graph" class="graph">
<g id="viewport">
<title>libs/ra8_rabook_compile/src/ra8_rabook_xml_shim.cpp</title>
<!-- Node1 -->
<g id="Node000001" class="node">
<title>Node1</title>
<g id="a_Node000001"><a xlink:title="C++ &#45;&gt; C shim: tinyxml2 XHTML parser &#45;&gt; ra8_rabook DOM builder (#149).">
<polygon fill="#999999" stroke="#666666" points="490,-305 325,-305 325,-275 490,-275 490,-305"/>
<text text-anchor="start" x="333" y="-293" font-family="Helvetica,sans-Serif" font-size="10.00">libs/ra8_rabook_compile</text>
<text text-anchor="middle" x="407.5" y="-282" font-family="Helvetica,sans-Serif" font-size="10.00">/src/ra8_rabook_xml_shim.cpp</text>
</a>
</g>
</g>
<!-- Node2 -->
<g id="Node000002" class="node">
<title>Node2</title>
<g id="a_Node000002"><a xlink:href="ra8__rabook__xml__shim_8h.html" target="_top" xlink:title="C&#45;callable interface to the XHTML &#45;&gt; ra8_rabook DOM parser (#149).">
<polygon fill="white" stroke="#666666" points="224.5,-239 90.5,-239 90.5,-220 224.5,-220 224.5,-239"/>
<text text-anchor="middle" x="157.5" y="-227" font-family="Helvetica,sans-Serif" font-size="10.00">ra8_rabook_xml_shim.h</text>
</a>
</g>
</g>
<!-- Node1&#45;&gt;Node2 -->
<g id="edge1_Node000001_Node000002" class="edge">
<title>Node1&#45;&gt;Node2</title>
<g id="a_edge1_Node000001_Node000002"><a xlink:title=" ">
<path fill="none" stroke="#63b8ff" d="M347.62,-274.99C303.54,-264.67 244.47,-250.85 203.94,-241.37"/>
<polygon fill="#63b8ff" stroke="#63b8ff" points="204.59,-237.92 194.05,-239.05 202.99,-244.74 204.59,-237.92"/>
</a>
</g>
</g>
<!-- Node6 -->
<g id="Node000006" class="node">
<title>Node6</title>
<g id="a_Node000006"><a xlink:href="ra8__rabook__compile_8h.html" target="_top" xlink:title="Zero&#45;heap builder that emits a RABOOK1 blob (the #149 compiler back&#45;end).">
<polygon fill="white" stroke="#666666" points="125,-184 0,-184 0,-165 125,-165 125,-184"/>
<text text-anchor="middle" x="62.5" y="-172" font-family="Helvetica,sans-Serif" font-size="10.00">ra8_rabook_compile.h</text>
</a>
</g>
</g>
<!-- Node1&#45;&gt;Node6 -->
<g id="edge25_Node000001_Node000006" class="edge">
<title>Node1&#45;&gt;Node6</title>
<g id="a_edge25_Node000001_Node000006"><a xlink:title=" ">
<path fill="none" stroke="#63b8ff" d="M324.79,-286.19C240.37,-281.64 116.86,-269.78 81.5,-239 68.9,-228.03 64.48,-209.08 63.01,-194.73"/>
<polygon fill="#63b8ff" stroke="#63b8ff" points="66.49,-194.21 62.37,-184.45 59.5,-194.64 66.49,-194.21"/>
</a>
</g>
</g>
<!-- Node8 -->
<g id="Node000008" class="node">
<title>Node8</title>
<g id="a_Node000008"><a xlink:title=" ">
<polygon fill="#e0e0e0" stroke="#999999" points="296,-239 243,-239 243,-220 296,-220 296,-239"/>
<text text-anchor="middle" x="269.5" y="-227" font-family="Helvetica,sans-Serif" font-size="10.00">cstddef</text>
</a>
</g>
</g>
<!-- Node1&#45;&gt;Node8 -->
<g id="edge13_Node000001_Node000008" class="edge">
<title>Node1&#45;&gt;Node8</title>
<g id="a_edge13_Node000001_Node000008"><a xlink:title=" ">
<path fill="none" stroke="#63b8ff" d="M374.45,-274.99C351.52,-265.27 321.26,-252.44 299.12,-243.06"/>
<polygon fill="#63b8ff" stroke="#63b8ff" points="300.45,-239.82 289.88,-239.14 297.72,-246.26 300.45,-239.82"/>
</a>
</g>
</g>
<!-- Node9 -->
<g id="Node000009" class="node">
<title>Node9</title>
<g id="a_Node000009"><a xlink:title=" ">
<polygon fill="#e0e0e0" stroke="#999999" points="364.5,-239 314.5,-239 314.5,-220 364.5,-220 364.5,-239"/>
<text text-anchor="middle" x="339.5" y="-227" font-family="Helvetica,sans-Serif" font-size="10.00">cstdint</text>
</a>
</g>
</g>
<!-- Node1&#45;&gt;Node9 -->
<g id="edge14_Node000001_Node000009" class="edge">
<title>Node1&#45;&gt;Node9</title>
<g id="a_edge14_Node000001_Node000009"><a xlink:title=" ">
<path fill="none" stroke="#63b8ff" d="M391.04,-274.84C380.87,-266.09 367.81,-254.85 357.38,-245.88"/>
<polygon fill="#63b8ff" stroke="#63b8ff" points="359.55,-243.13 349.69,-239.27 354.99,-248.44 359.55,-243.13"/>
</a>
</g>
</g>
<!-- Node10 -->
<g id="Node000010" class="node">
<title>Node10</title>
<g id="a_Node000010"><a xlink:title=" ">
<polygon fill="#e0e0e0" stroke="#999999" points="432.5,-239 382.5,-239 382.5,-220 432.5,-220 432.5,-239"/>
<text text-anchor="middle" x="407.5" y="-227" font-family="Helvetica,sans-Serif" font-size="10.00">cstring</text>
</a>
</g>
</g>
<!-- Node1&#45;&gt;Node10 -->
<g id="edge15_Node000001_Node000010" class="edge">
<title>Node1&#45;&gt;Node10</title>
<g id="a_edge15_Node000001_Node000010"><a xlink:title=" ">
<path fill="none" stroke="#63b8ff" d="M407.5,-274.84C407.5,-267.21 407.5,-257.7 407.5,-249.45"/>
<polygon fill="#63b8ff" stroke="#63b8ff" points="411,-249.27 407.5,-239.27 404,-249.27 411,-249.27"/>
</a>
</g>
</g>
<!-- Node11 -->
<g id="Node000011" class="node">
<title>Node11</title>
<g id="a_Node000011"><a xlink:href="ra8__attributes_8h.html" target="_top" xlink:title="Annotation&#45;attribute framework macros for ra8&#45;firmware.">
<polygon fill="white" stroke="#666666" points="544.5,-239 450.5,-239 450.5,-220 544.5,-220 544.5,-239"/>
<text text-anchor="middle" x="497.5" y="-227" font-family="Helvetica,sans-Serif" font-size="10.00">ra8_attributes.h</text>
</a>
</g>
</g>
<!-- Node1&#45;&gt;Node11 -->
<g id="edge16_Node000001_Node000011" class="edge">
<title>Node1&#45;&gt;Node11</title>
<g id="a_edge16_Node000001_Node000011"><a xlink:title=" ">
<path fill="none" stroke="#63b8ff" d="M429.29,-274.84C443.37,-265.68 461.63,-253.82 475.71,-244.66"/>
<polygon fill="#63b8ff" stroke="#63b8ff" points="477.8,-247.48 484.28,-239.09 473.99,-241.61 477.8,-247.48"/>
</a>
</g>
</g>
<!-- Node12 -->
<g id="Node000012" class="node">
<title>Node12</title>
<g id="a_Node000012"><a xlink:href="ra8__check_8h.html" target="_top" xlink:title="Validation and Error&#45;Checking Macros for ra8&#45;firmware.">
<polygon fill="white" stroke="#666666" points="403,-129 328,-129 328,-110 403,-110 403,-129"/>
<text text-anchor="middle" x="365.5" y="-117" font-family="Helvetica,sans-Serif" font-size="10.00">ra8_check.h</text>
</a>
</g>
</g>
<!-- Node1&#45;&gt;Node12 -->
<g id="edge17_Node000001_Node000012" class="edge">
<title>Node1&#45;&gt;Node12</title>
<g id="a_edge17_Node000001_Node000012"><a xlink:title=" ">
<path fill="none" stroke="#63b8ff" d="M490.03,-278.54C532.88,-269.19 572.66,-251.82 553.5,-220 523.22,-169.71 458.04,-143.51 412.99,-130.87"/>
<polygon fill="#63b8ff" stroke="#63b8ff" points="413.71,-127.44 403.14,-128.23 411.9,-134.2 413.71,-127.44"/>
</a>
</g>
</g>
<!-- Node13 -->
<g id="Node000013" class="node">
<title>Node13</title>
<g id="a_Node000013"><a xlink:href="ra8__log_8h.html" target="_top" xlink:title="Lightweight Logging Interface for ra8&#45;firmware.">
<polygon fill="white" stroke="#666666" points="501.5,-74 439.5,-74 439.5,-55 501.5,-55 501.5,-74"/>
<text text-anchor="middle" x="470.5" y="-62" font-family="Helvetica,sans-Serif" font-size="10.00">ra8_log.h</text>
</a>
</g>
</g>
<!-- Node1&#45;&gt;Node13 -->
<g id="edge24_Node000001_Node000013" class="edge">
<title>Node1&#45;&gt;Node13</title>
<g id="a_edge24_Node000001_Node000013"><a xlink:title=" ">
<path fill="none" stroke="#63b8ff" d="M490.17,-283.7C520.4,-277.26 551.76,-264.35 570.5,-239 611.14,-184.03 530.35,-111.15 490.7,-80.3"/>
<polygon fill="#63b8ff" stroke="#63b8ff" points="492.56,-77.31 482.48,-74.04 488.32,-82.88 492.56,-77.31"/>
</a>
</g>
</g>
<!-- Node15 -->
<g id="Node000015" class="node">
<title>Node15</title>
<g id="a_Node000015"><a xlink:title=" ">
<polygon fill="#e0e0e0" stroke="#999999" points="708,-239 639,-239 639,-220 708,-220 708,-239"/>
<text text-anchor="middle" x="673.5" y="-227" font-family="Helvetica,sans-Serif" font-size="10.00">tinyxml2.h</text>
</a>
</g>
</g>
<!-- Node1&#45;&gt;Node15 -->
<g id="edge26_Node000001_Node000015" class="edge">
<title>Node1&#45;&gt;Node15</title>
<g id="a_edge26_Node000001_Node000015"><a xlink:title=" ">
<path fill="none" stroke="#63b8ff" d="M471.21,-274.99C519.88,-264.29 585.71,-249.81 628.87,-240.32"/>
<polygon fill="#63b8ff" stroke="#63b8ff" points="629.78,-243.7 638.79,-238.13 628.27,-236.86 629.78,-243.7"/>
</a>
</g>
</g>
<!-- Node3 -->
<g id="Node000003" class="node">
<title>Node3</title>
<g id="a_Node000003"><a xlink:title=" ">
<polygon fill="#e0e0e0" stroke="#999999" points="137.5,-74 81.5,-74 81.5,-55 137.5,-55 137.5,-74"/>
<text text-anchor="middle" x="109.5" y="-62" font-family="Helvetica,sans-Serif" font-size="10.00">stddef.h</text>
</a>
</g>
</g>
<!-- Node2&#45;&gt;Node3 -->
<g id="edge2_Node000002_Node000003" class="edge">
<title>Node2&#45;&gt;Node3</title>
<g id="a_edge2_Node000002_Node000003"><a xlink:title=" ">
<path fill="none" stroke="#63b8ff" d="M154.92,-219.74C147.4,-194.2 125.38,-119.43 115.02,-84.23"/>
<polygon fill="#63b8ff" stroke="#63b8ff" points="118.28,-82.91 112.09,-74.31 111.56,-84.89 118.28,-82.91"/>
</a>
</g>
</g>
<!-- Node4 -->
<g id="Node000004" class="node">
<title>Node4</title>
<g id="a_Node000004"><a xlink:title=" ">
<polygon fill="#e0e0e0" stroke="#999999" points="270,-19 217,-19 217,0 270,0 270,-19"/>
<text text-anchor="middle" x="243.5" y="-7" font-family="Helvetica,sans-Serif" font-size="10.00">stdint.h</text>
</a>
</g>
</g>
<!-- Node2&#45;&gt;Node4 -->
<g id="edge3_Node000002_Node000004" class="edge">
<title>Node2&#45;&gt;Node4</title>
<g id="a_edge3_Node000002_Node000004"><a xlink:title=" ">
<path fill="none" stroke="#63b8ff" d="M165.56,-219.94C173.2,-211.43 184.52,-197.68 191.5,-184 218.48,-131.13 233.94,-61.91 240.2,-29.19"/>
<polygon fill="#63b8ff" stroke="#63b8ff" points="243.67,-29.69 242.04,-19.22 236.79,-28.42 243.67,-29.69"/>
</a>
</g>
</g>
<!-- Node5 -->
<g id="Node000005" class="node">
<title>Node5</title>
<g id="a_Node000005"><a xlink:href="ra8__err_8h.html" target="_top" xlink:title="Error Code Definitions for ra8&#45;firmware.">
<polygon fill="white" stroke="#666666" points="215,-74 156,-74 156,-55 215,-55 215,-74"/>
<text text-anchor="middle" x="185.5" y="-62" font-family="Helvetica,sans-Serif" font-size="10.00">ra8_err.h</text>
</a>
</g>
</g>
<!-- Node2&#45;&gt;Node5 -->
<g id="edge4_Node000002_Node000005" class="edge">
<title>Node2&#45;&gt;Node5</title>
<g id="a_edge4_Node000002_Node000005"><a xlink:title=" ">
<path fill="none" stroke="#63b8ff" d="M161.89,-219.89C166.15,-211.11 172.4,-196.97 175.5,-184 183.74,-149.48 185.42,-107.9 185.64,-84.3"/>
<polygon fill="#63b8ff" stroke="#63b8ff" points="189.14,-84.27 185.65,-74.26 182.14,-84.26 189.14,-84.27"/>
</a>
</g>
</g>
<!-- Node2&#45;&gt;Node6 -->
<g id="edge6_Node000002_Node000006" class="edge">
<title>Node2&#45;&gt;Node6</title>
<g id="a_edge6_Node000002_Node000006"><a xlink:title=" ">
<path fill="none" stroke="#63b8ff" d="M142.24,-219.98C127.37,-211.69 104.52,-198.94 87.08,-189.22"/>
<polygon fill="#63b8ff" stroke="#63b8ff" points="88.48,-185.99 78.04,-184.17 85.07,-192.1 88.48,-185.99"/>
</a>
</g>
</g>
<!-- Node5&#45;&gt;Node4 -->
<g id="edge5_Node000005_Node000004" class="edge">
<title>Node5&#45;&gt;Node4</title>
<g id="a_edge5_Node000005_Node000004"><a xlink:title=" ">
<path fill="none" stroke="#63b8ff" d="M194.82,-54.98C203.31,-47.23 216.06,-35.58 226.38,-26.14"/>
<polygon fill="#63b8ff" stroke="#63b8ff" points="228.99,-28.5 234.01,-19.17 224.27,-23.33 228.99,-28.5"/>
</a>
</g>
</g>
<!-- Node6&#45;&gt;Node4 -->
<g id="edge7_Node000006_Node000004" class="edge">
<title>Node6&#45;&gt;Node4</title>
<g id="a_edge7_Node000006_Node000004"><a xlink:title=" ">
<path fill="none" stroke="#63b8ff" d="M48.13,-164.96C36.63,-157.21 21.32,-144.62 14.5,-129 -0.81,-93.93 26.2,-75.52 58.5,-55 104.22,-25.95 167.26,-15.86 206.69,-12.36"/>
<polygon fill="#63b8ff" stroke="#63b8ff" points="207.21,-15.83 216.9,-11.55 206.66,-8.85 207.21,-15.83"/>
</a>
</g>
</g>
<!-- Node6&#45;&gt;Node5 -->
<g id="edge12_Node000006_Node000005" class="edge">
<title>Node6&#45;&gt;Node5</title>
<g id="a_edge12_Node000006_Node000005"><a xlink:title=" ">
<path fill="none" stroke="#63b8ff" d="M72.57,-164.66C93.48,-146.3 141.87,-103.81 168,-80.87"/>
<polygon fill="#63b8ff" stroke="#63b8ff" points="170.43,-83.39 175.64,-74.16 165.82,-78.13 170.43,-83.39"/>
</a>
</g>
</g>
<!-- Node7 -->
<g id="Node000007" class="node">
<title>Node7</title>
<g id="a_Node000007"><a xlink:href="ra8__book_8h.html" target="_top" xlink:title="Flat, execute&#45;in&#45;place container for a build&#45;time &quot;compiled&quot; e&#45;book.">
<polygon fill="white" stroke="#666666" points="95,-129 24,-129 24,-110 95,-110 95,-129"/>
<text text-anchor="middle" x="59.5" y="-117" font-family="Helvetica,sans-Serif" font-size="10.00">ra8_book.h</text>
</a>
</g>
</g>
<!-- Node6&#45;&gt;Node7 -->
<g id="edge8_Node000006_Node000007" class="edge">
<title>Node6&#45;&gt;Node7</title>
<g id="a_edge8_Node000006_Node000007"><a xlink:title=" ">
<path fill="none" stroke="#63b8ff" d="M62,-164.75C61.61,-157.8 61.05,-147.85 60.55,-139.13"/>
<polygon fill="#63b8ff" stroke="#63b8ff" points="64.05,-138.88 59.99,-129.09 57.06,-139.27 64.05,-138.88"/>
</a>
</g>
</g>
<!-- Node7&#45;&gt;Node3 -->
<g id="edge9_Node000007_Node000003" class="edge">
<title>Node7&#45;&gt;Node3</title>
<g id="a_edge9_Node000007_Node000003"><a xlink:title=" ">
<path fill="none" stroke="#63b8ff" d="M67.76,-109.75C74.96,-102.11 85.61,-90.82 94.35,-81.56"/>
<polygon fill="#63b8ff" stroke="#63b8ff" points="97.08,-83.76 101.4,-74.09 91.99,-78.96 97.08,-83.76"/>
</a>
</g>
</g>
<!-- Node7&#45;&gt;Node4 -->
<g id="edge10_Node000007_Node000004" class="edge">
<title>Node7&#45;&gt;Node4</title>
<g id="a_edge10_Node000007_Node000004"><a xlink:title=" ">
<path fill="none" stroke="#63b8ff" d="M58.62,-109.82C57.77,-96.25 58.25,-70.02 72.5,-55 90.73,-35.79 162.15,-22.25 206.73,-15.47"/>
<polygon fill="#63b8ff" stroke="#63b8ff" points="207.5,-18.89 216.89,-13.97 206.48,-11.97 207.5,-18.89"/>
</a>
</g>
</g>
<!-- Node7&#45;&gt;Node5 -->
<g id="edge11_Node000007_Node000005" class="edge">
<title>Node7&#45;&gt;Node5</title>
<g id="a_edge11_Node000007_Node000005"><a xlink:title=" ">
<path fill="none" stroke="#63b8ff" d="M79.74,-109.98C100.2,-101.38 132.03,-87.99 155.43,-78.15"/>
<polygon fill="#63b8ff" stroke="#63b8ff" points="157.03,-81.27 164.89,-74.17 154.31,-74.82 157.03,-81.27"/>
</a>
</g>
</g>
<!-- Node12&#45;&gt;Node4 -->
<g id="edge18_Node000012_Node000004" class="edge">
<title>Node12&#45;&gt;Node4</title>
<g id="a_edge18_Node000012_Node000004"><a xlink:title=" ">
<path fill="none" stroke="#63b8ff" d="M350.84,-109.87C337.17,-101.51 316.54,-88.06 300.5,-74 284.05,-59.58 267.62,-40.67 256.65,-27.25"/>
<polygon fill="#63b8ff" stroke="#63b8ff" points="259.28,-24.93 250.29,-19.32 253.82,-29.31 259.28,-24.93"/>
</a>
</g>
</g>
<!-- Node12&#45;&gt;Node5 -->
<g id="edge19_Node000012_Node000005" class="edge">
<title>Node12&#45;&gt;Node5</title>
<g id="a_edge19_Node000012_Node000005"><a xlink:title=" ">
<path fill="none" stroke="#63b8ff" d="M336.58,-109.98C306.23,-101.05 258.33,-86.94 224.62,-77.02"/>
<polygon fill="#63b8ff" stroke="#63b8ff" points="225.23,-73.55 214.65,-74.08 223.25,-80.26 225.23,-73.55"/>
</a>
</g>
</g>
<!-- Node12&#45;&gt;Node13 -->
<g id="edge20_Node000012_Node000013" class="edge">
<title>Node12&#45;&gt;Node13</title>
<g id="a_edge20_Node000012_Node000013"><a xlink:title=" ">
<path fill="none" stroke="#63b8ff" d="M382.37,-109.98C399.11,-101.54 425,-88.47 444.39,-78.68"/>
<polygon fill="#63b8ff" stroke="#63b8ff" points="445.97,-81.8 453.32,-74.17 442.82,-75.55 445.97,-81.8"/>
</a>
</g>
</g>
<!-- Node14 -->
<g id="Node000014" class="node">
<title>Node14</title>
<g id="a_Node000014"><a xlink:href="ra8__error__handler_8h.html" target="_top" xlink:title="Centralised fatal&#45;error sink.">
<polygon fill="white" stroke="#666666" points="421,-74 310,-74 310,-55 421,-55 421,-74"/>
<text text-anchor="middle" x="365.5" y="-62" font-family="Helvetica,sans-Serif" font-size="10.00">ra8_error_handler.h</text>
</a>
</g>
</g>
<!-- Node12&#45;&gt;Node14 -->
<g id="edge22_Node000012_Node000014" class="edge">
<title>Node12&#45;&gt;Node14</title>
<g id="a_edge22_Node000012_Node000014"><a xlink:title=" ">
<path fill="none" stroke="#63b8ff" d="M365.5,-109.75C365.5,-102.8 365.5,-92.85 365.5,-84.13"/>
<polygon fill="#63b8ff" stroke="#63b8ff" points="369,-84.09 365.5,-74.09 362,-84.09 369,-84.09"/>
</a>
</g>
</g>
<!-- Node13&#45;&gt;Node4 -->
<g id="edge21_Node000013_Node000004" class="edge">
<title>Node13&#45;&gt;Node4</title>
<g id="a_edge21_Node000013_Node000004"><a xlink:title=" ">
<path fill="none" stroke="#63b8ff" d="M439.41,-56.24C397.84,-46.54 324.28,-29.36 280.09,-19.04"/>
<polygon fill="#63b8ff" stroke="#63b8ff" points="280.86,-15.63 270.33,-16.76 279.27,-22.45 280.86,-15.63"/>
</a>
</g>
</g>
<!-- Node14&#45;&gt;Node4 -->
<g id="edge23_Node000014_Node000004" class="edge">
<title>Node14&#45;&gt;Node4</title>
<g id="a_edge23_Node000014_Node000004"><a xlink:title=" ">
<path fill="none" stroke="#63b8ff" d="M345.9,-54.98C326.18,-46.42 295.55,-33.11 272.92,-23.28"/>
<polygon fill="#63b8ff" stroke="#63b8ff" points="274.02,-19.94 263.46,-19.17 271.24,-26.37 274.02,-19.94"/>
</a>
</g>
</g>
</g>
</svg>

<g id="navigator" transform="translate(0 0)" fill="#404254">
  <rect fill="#f2f5e9" fill-opacity="0.5" stroke="#606060" stroke-width=".5" x="0" y="0" width="60" height="60"/>
  <use id="zoomplus" xlink:href="#zoomPlus" x="17" y="9" onmousedown="handleZoom(evt,'in')"/>
  <use id="zoomminus" xlink:href="#zoomMin" x="42" y="9" onmousedown="handleZoom(evt,'out')"/>
  <use id="reset" xlink:href="#resetDef" x="30" y="36" onmousedown="handleReset()"/>
   <use id="arrowup" xlink:href="#arrowUp" x="0" y="0" onmousedown="handlePan(0,-1)"/>
  <use id="arrowright" xlink:href="#arrowRight" x="0" y="0" onmousedown="handlePan(1,0)"/>
  <use id="arrowdown" xlink:href="#arrowDown" x="0" y="0" onmousedown="handlePan(0,1)"/>
  <use id="arrowleft" xlink:href="#arrowLeft" x="0" y="0" onmousedown="handlePan(-1,0)"/>
</g>
<svg viewBox="0 0 15 15" width="100%" height="30px" preserveAspectRatio="xMaxYMin meet">
 <g id="arrow_out" transform="scale(0.3 0.3)">
  <a xlink:href="ra8__rabook__xml__shim_8cpp__incl_org.svg" target="_base">
   <rect id="button" ry="5" rx="5" y="6" x="6" height="38" width="38"
        fill="#f2f5e9" fill-opacity="0.5" stroke="#606060" stroke-width="1.0"/>
   <path id="arrow"
     d="M 11.500037,31.436501 C 11.940474,20.09759 22.043105,11.32322 32.158766,21.979434 L 37.068811,17.246167 C 37.068811,17.246167 37.088388,32 37.088388,32 L 22.160133,31.978069 C 22.160133,31.978069 26.997745,27.140456 26.997745,27.140456 C 18.528582,18.264221 13.291696,25.230495 11.500037,31.436501 z"
     style="fill:#404040;"/>
  </a>
 </g>
</svg>

<style type='text/css'>
<![CDATA[
[data-mouse-over-selected='false'] { opacity: 0.7; }
[data-mouse-over-selected='true']  { opacity: 1.0; }
]]>
</style>
<script type="application/ecmascript"><![CDATA[
document.addEventListener('DOMContentLoaded', (event) => {
  highlightEdges();
  highlightAdjacentNodes();
});
]]></script>
</svg>
