<?xml version="1.0" encoding="UTF-8" standalone="no"?>
<!DOCTYPE svg PUBLIC "-//W3C//DTD SVG 1.1//EN"
 "http://www.w3.org/Graphics/SVG/1.1/DTD/svg11.dtd">
<!-- Generated by graphviz version 2.43.0 (0)
 -->
<!-- Title: libs/ra8_mpu/inc/ra8_mpu.h Pages: 1 -->
<svg width="775pt" height="115pt"
 viewBox="0.00 0.00 775.00 115.00" xmlns="http://www.w3.org/2000/svg" xmlns:xlink="http://www.w3.org/1999/xlink">
<g id="graph0" class="graph" transform="scale(1 1) rotate(0) translate(4 111)">
<title>libs/ra8_mpu/inc/ra8_mpu.h</title>
<!-- Node1 -->
<g id="Node000001" class="node">
<title>Node1</title>
<g id="a_Node000001"><a xlink:title="Cortex&#45;M85 Memory Protection Unit (MPU) configuration helper.">
<polygon fill="#999999" stroke="#666666" points="444,-107 328,-107 328,-77 444,-77 444,-107"/>
<text text-anchor="start" x="336" y="-95" font-family="Helvetica,sans-Serif" font-size="10.00">libs/ra8_mpu/inc/ra8</text>
<text text-anchor="middle" x="386" y="-84" font-family="Helvetica,sans-Serif" font-size="10.00">_mpu.h</text>
</a>
</g>
</g>
<!-- Node2 -->
<g id="Node000002" class="node">
<title>Node2</title>
<g id="a_Node000002"><a xlink:href="examples_2ek__ra8d2_2hil__needs__revalidation_2mpu__partition__simple_2main_8c.html" target="_top" xlink:title="Single&#45;region MPU read&#45;only partition demo with fault recovery.">
<polygon fill="white" stroke="#666666" points="140,-41 0,-41 0,0 140,0 140,-41"/>
<text text-anchor="start" x="8" y="-29" font-family="Helvetica,sans-Serif" font-size="10.00">examples/ek_ra8d2/hil</text>
<text text-anchor="start" x="8" y="-18" font-family="Helvetica,sans-Serif" font-size="10.00">_needs_revalidation/mpu</text>
<text text-anchor="middle" x="70" y="-7" font-family="Helvetica,sans-Serif" font-size="10.00">_partition_simple/main.c</text>
</a>
</g>
</g>
<!-- Node1&#45;&gt;Node2 -->
<g id="edge1_Node000001_Node000002" class="edge">
<title>Node1&#45;&gt;Node2</title>
<g id="a_edge1_Node000001_Node000002"><a xlink:title=" ">
<path fill="none" stroke="#63b8ff" d="M318.07,-77.31C270.62,-67.59 205.83,-54 149,-41 146.11,-40.34 143.16,-39.65 140.18,-38.95"/>
<polygon fill="#63b8ff" stroke="#63b8ff" points="317.43,-80.75 327.93,-79.32 318.83,-73.89 317.43,-80.75"/>
</a>
</g>
</g>
<!-- Node3 -->
<g id="Node000003" class="node">
<title>Node3</title>
<g id="a_Node000003"><a xlink:href="examples_2ek__ra8d2_2hw__pending_2mpu__boot__map__hal_2main_8c.html" target="_top" xlink:title="&quot;MPU boot map brought up through the ra8_mpu HAL&quot; self&#45;test (#576)">
<polygon fill="white" stroke="#666666" points="298,-41 158,-41 158,0 298,0 298,-41"/>
<text text-anchor="start" x="166" y="-29" font-family="Helvetica,sans-Serif" font-size="10.00">examples/ek_ra8d2/hw</text>
<text text-anchor="start" x="166" y="-18" font-family="Helvetica,sans-Serif" font-size="10.00">_pending/mpu_boot_map</text>
<text text-anchor="middle" x="228" y="-7" font-family="Helvetica,sans-Serif" font-size="10.00">_hal/main.c</text>
</a>
</g>
</g>
<!-- Node1&#45;&gt;Node3 -->
<g id="edge2_Node000001_Node000003" class="edge">
<title>Node1&#45;&gt;Node3</title>
<g id="a_edge2_Node000001_Node000003"><a xlink:title=" ">
<path fill="none" stroke="#63b8ff" d="M344.86,-72.9C322.65,-63.13 295.21,-51.06 272.5,-41.07"/>
<polygon fill="#63b8ff" stroke="#63b8ff" points="343.46,-76.11 354.03,-76.94 346.28,-69.71 343.46,-76.11"/>
</a>
</g>
</g>
<!-- Node4 -->
<g id="Node000004" class="node">
<title>Node4</title>
<g id="a_Node000004"><a xlink:href="examples_2ek__ra8d2_2hw__pending_2mpu__boot__map__hal_2system__init_8c.html" target="_top" xlink:title="Cortex&#45;M85 / RA8D2 core bring&#45;up – MPU map via the ra8_mpu HAL (#576).">
<polygon fill="white" stroke="#666666" points="456,-41 316,-41 316,0 456,0 456,-41"/>
<text text-anchor="start" x="324" y="-29" font-family="Helvetica,sans-Serif" font-size="10.00">examples/ek_ra8d2/hw</text>
<text text-anchor="start" x="324" y="-18" font-family="Helvetica,sans-Serif" font-size="10.00">_pending/mpu_boot_map</text>
<text text-anchor="middle" x="386" y="-7" font-family="Helvetica,sans-Serif" font-size="10.00">_hal/system_init.c</text>
</a>
</g>
</g>
<!-- Node1&#45;&gt;Node4 -->
<g id="edge3_Node000001_Node000004" class="edge">
<title>Node1&#45;&gt;Node4</title>
<g id="a_edge3_Node000001_Node000004"><a xlink:title=" ">
<path fill="none" stroke="#63b8ff" d="M386,-66.91C386,-58.47 386,-49.1 386,-41.07"/>
<polygon fill="#63b8ff" stroke="#63b8ff" points="382.5,-66.94 386,-76.94 389.5,-66.94 382.5,-66.94"/>
</a>
</g>
</g>
<!-- Node5 -->
<g id="Node000005" class="node">
<title>Node5</title>
<g id="a_Node000005"><a xlink:href="examples_2ek__ra8d2_2hw__validated_2hil_2threadx__mpu__partition__demo_2main_8c.html" target="_top" xlink:title="Eclipse ThreadX + Arm v8&#45;M MPU partition demo for RA8D2.">
<polygon fill="white" stroke="#666666" points="633.5,-41 474.5,-41 474.5,0 633.5,0 633.5,-41"/>
<text text-anchor="start" x="482.5" y="-29" font-family="Helvetica,sans-Serif" font-size="10.00">examples/ek_ra8d2/hw</text>
<text text-anchor="start" x="482.5" y="-18" font-family="Helvetica,sans-Serif" font-size="10.00">_validated/hil/threadx</text>
<text text-anchor="middle" x="554" y="-7" font-family="Helvetica,sans-Serif" font-size="10.00">_mpu_partition_demo/main.c</text>
</a>
</g>
</g>
<!-- Node1&#45;&gt;Node5 -->
<g id="edge4_Node000001_Node000005" class="edge">
<title>Node1&#45;&gt;Node5</title>
<g id="a_edge4_Node000001_Node000005"><a xlink:title=" ">
<path fill="none" stroke="#63b8ff" d="M429.43,-73.03C453.1,-63.24 482.43,-51.11 506.69,-41.07"/>
<polygon fill="#63b8ff" stroke="#63b8ff" points="427.9,-69.88 420,-76.94 430.58,-76.35 427.9,-69.88"/>
</a>
</g>
</g>
<!-- Node6 -->
<g id="Node000006" class="node">
<title>Node6</title>
<g id="a_Node000006"><a xlink:href="ra8__mpu_8c.html" target="_top" xlink:title="Cortex&#45;M85 Memory Protection Unit configuration helper.">
<polygon fill="white" stroke="#666666" points="767,-35.5 651,-35.5 651,-5.5 767,-5.5 767,-35.5"/>
<text text-anchor="start" x="659" y="-23.5" font-family="Helvetica,sans-Serif" font-size="10.00">libs/ra8_mpu/src/ra8</text>
<text text-anchor="middle" x="709" y="-12.5" font-family="Helvetica,sans-Serif" font-size="10.00">_mpu.c</text>
</a>
</g>
</g>
<!-- Node1&#45;&gt;Node6 -->
<g id="edge5_Node000001_Node000006" class="edge">
<title>Node1&#45;&gt;Node6</title>
<g id="a_edge5_Node000001_Node000006"><a xlink:title=" ">
<path fill="none" stroke="#63b8ff" d="M454.12,-79.57C506.14,-70.4 579.46,-56.53 643,-41 649.62,-39.38 656.56,-37.52 663.35,-35.6"/>
<polygon fill="#63b8ff" stroke="#63b8ff" points="453.26,-76.17 444.01,-81.34 454.47,-83.06 453.26,-76.17"/>
</a>
</g>
</g>
</g>
</svg>
