<?xml version="1.0" encoding="UTF-8" standalone="no"?>
<!DOCTYPE svg PUBLIC "-//W3C//DTD SVG 1.1//EN"
 "http://www.w3.org/Graphics/SVG/1.1/DTD/svg11.dtd">
<!-- Generated by graphviz version 2.43.0 (0)
 -->
<!-- Title: apps/shared_libs/unarch/inc/unarch_xz.h Pages: 1 -->
<svg width="1384pt" height="247pt"
 viewBox="0.00 0.00 1384.00 247.00" xmlns="http://www.w3.org/2000/svg" xmlns:xlink="http://www.w3.org/1999/xlink">
<g id="graph0" class="graph" transform="scale(1 1) rotate(0) translate(4 243)">
<title>apps/shared_libs/unarch/inc/unarch_xz.h</title>
<!-- Node1 -->
<g id="Node000001" class="node">
<title>Node1</title>
<g id="a_Node000001"><a xlink:title="Bounded, fail&#45;closed XZ/LZMA2 decoding over the vendored xz&#45;embedded.">
<polygon fill="#999999" stroke="#666666" points="683.5,-239 549.5,-239 549.5,-209 683.5,-209 683.5,-239"/>
<text text-anchor="start" x="557.5" y="-227" font-family="Helvetica,sans-Serif" font-size="10.00">apps/shared_libs/unarch</text>
<text text-anchor="middle" x="616.5" y="-216" font-family="Helvetica,sans-Serif" font-size="10.00">/inc/unarch_xz.h</text>
</a>
</g>
</g>
<!-- Node2 -->
<g id="Node000002" class="node">
<title>Node2</title>
<g id="a_Node000002"><a xlink:href="comic_8h.html" target="_top" xlink:title="Unified demand&#45;paged reader for comic&#45;book archives – CBZ (ZIP) and CBR (RAR).">
<polygon fill="white" stroke="#666666" points="682,-173 551,-173 551,-143 682,-143 682,-173"/>
<text text-anchor="start" x="559" y="-161" font-family="Helvetica,sans-Serif" font-size="10.00">apps/shared_libs/comic</text>
<text text-anchor="middle" x="616.5" y="-150" font-family="Helvetica,sans-Serif" font-size="10.00">/inc/comic.h</text>
</a>
</g>
</g>
<!-- Node1&#45;&gt;Node2 -->
<g id="edge1_Node000001_Node000002" class="edge">
<title>Node1&#45;&gt;Node2</title>
<g id="a_edge1_Node000001_Node000002"><a xlink:title=" ">
<path fill="none" stroke="#63b8ff" d="M616.5,-198.54C616.5,-189.96 616.5,-180.61 616.5,-173.16"/>
<polygon fill="#63b8ff" stroke="#63b8ff" points="613,-198.8 616.5,-208.8 620,-198.8 613,-198.8"/>
</a>
</g>
</g>
<!-- Node8 -->
<g id="Node000008" class="node">
<title>Node8</title>
<g id="a_Node000008"><a xlink:href="comic__wrapped_8c.html" target="_top" xlink:title="Wrapped comic open: gzip / XZ unwrap in front of the container detect.">
<polygon fill="white" stroke="#666666" points="131,-30 0,-30 0,0 131,0 131,-30"/>
<text text-anchor="start" x="8" y="-18" font-family="Helvetica,sans-Serif" font-size="10.00">apps/shared_libs/comic</text>
<text text-anchor="middle" x="65.5" y="-7" font-family="Helvetica,sans-Serif" font-size="10.00">/src/comic_wrapped.c</text>
</a>
</g>
</g>
<!-- Node1&#45;&gt;Node8 -->
<g id="edge22_Node000001_Node000008" class="edge">
<title>Node1&#45;&gt;Node8</title>
<g id="a_edge22_Node000001_Node000008"><a xlink:title=" ">
<path fill="none" stroke="#63b8ff" d="M539.25,-216.15C408.05,-202.93 149.74,-169.53 86.5,-107 65.86,-86.59 63.82,-50.23 64.46,-30.21"/>
<polygon fill="#63b8ff" stroke="#63b8ff" points="538.94,-219.63 549.24,-217.14 539.63,-212.67 538.94,-219.63"/>
</a>
</g>
</g>
<!-- Node17 -->
<g id="Node000017" class="node">
<title>Node17</title>
<g id="a_Node000017"><a xlink:href="unarch__xz_8c.html" target="_top" xlink:title="Bounded XZ/LZMA2 decode wrapper over the vendored xz&#45;embedded.">
<polygon fill="white" stroke="#666666" points="834.5,-173 700.5,-173 700.5,-143 834.5,-143 834.5,-173"/>
<text text-anchor="start" x="708.5" y="-161" font-family="Helvetica,sans-Serif" font-size="10.00">apps/shared_libs/unarch</text>
<text text-anchor="middle" x="767.5" y="-150" font-family="Helvetica,sans-Serif" font-size="10.00">/src/unarch_xz.c</text>
</a>
</g>
</g>
<!-- Node1&#45;&gt;Node17 -->
<g id="edge23_Node000001_Node000017" class="edge">
<title>Node1&#45;&gt;Node17</title>
<g id="a_edge23_Node000001_Node000017"><a xlink:title=" ">
<path fill="none" stroke="#63b8ff" d="M659.16,-204.92C683.03,-194.8 712.33,-182.38 734.44,-173.01"/>
<polygon fill="#63b8ff" stroke="#63b8ff" points="657.48,-201.83 649.64,-208.95 660.21,-208.28 657.48,-201.83"/>
</a>
</g>
</g>
<!-- Node3 -->
<g id="Node000003" class="node">
<title>Node3</title>
<g id="a_Node000003"><a xlink:href="comic_8c.html" target="_top" xlink:title="Facade for the comic&#45;archive reader: magic detect, page index, dispatch.">
<polygon fill="white" stroke="#666666" points="784,-30 653,-30 653,0 784,0 784,-30"/>
<text text-anchor="start" x="661" y="-18" font-family="Helvetica,sans-Serif" font-size="10.00">apps/shared_libs/comic</text>
<text text-anchor="middle" x="718.5" y="-7" font-family="Helvetica,sans-Serif" font-size="10.00">/src/comic.c</text>
</a>
</g>
</g>
<!-- Node2&#45;&gt;Node3 -->
<g id="edge2_Node000002_Node000003" class="edge">
<title>Node2&#45;&gt;Node3</title>
<g id="a_edge2_Node000002_Node000003"><a xlink:title=" ">
<path fill="none" stroke="#63b8ff" d="M692.37,-140.87C749.35,-128.4 818.27,-112.38 822.5,-107 833.76,-92.68 832.2,-81.43 822.5,-66 811.78,-48.96 793.45,-37.59 775.14,-30.07"/>
<polygon fill="#63b8ff" stroke="#63b8ff" points="691.28,-137.53 682.26,-143.08 692.77,-144.37 691.28,-137.53"/>
</a>
</g>
</g>
<!-- Node4 -->
<g id="Node000004" class="node">
<title>Node4</title>
<g id="a_Node000004"><a xlink:href="comic__cbr_8c.html" target="_top" xlink:title="CBR backend: walk a RAR archive (ra8_rar.h) and index its page images.">
<polygon fill="white" stroke="#666666" points="280,-30 149,-30 149,0 280,0 280,-30"/>
<text text-anchor="start" x="157" y="-18" font-family="Helvetica,sans-Serif" font-size="10.00">apps/shared_libs/comic</text>
<text text-anchor="middle" x="214.5" y="-7" font-family="Helvetica,sans-Serif" font-size="10.00">/src/comic_cbr.c</text>
</a>
</g>
</g>
<!-- Node2&#45;&gt;Node4 -->
<g id="edge3_Node000002_Node000004" class="edge">
<title>Node2&#45;&gt;Node4</title>
<g id="a_edge3_Node000002_Node000004"><a xlink:title=" ">
<path fill="none" stroke="#63b8ff" d="M540.76,-154.52C412.97,-149.54 165.81,-136.22 139.5,-107 127.31,-93.46 130.9,-82.07 139.5,-66 148.07,-50 164.27,-38.23 179.43,-30.15"/>
<polygon fill="#63b8ff" stroke="#63b8ff" points="540.75,-158.02 550.87,-154.9 541.01,-151.02 540.75,-158.02"/>
</a>
</g>
</g>
<!-- Node5 -->
<g id="Node000005" class="node">
<title>Node5</title>
<g id="a_Node000005"><a xlink:href="comic__cbt_8c.html" target="_top" xlink:title="CBT backend: walk a tar archive (unarch_tar.h) and index its pages.">
<polygon fill="white" stroke="#666666" points="438,-30 307,-30 307,0 438,0 438,-30"/>
<text text-anchor="start" x="315" y="-18" font-family="Helvetica,sans-Serif" font-size="10.00">apps/shared_libs/comic</text>
<text text-anchor="middle" x="372.5" y="-7" font-family="Helvetica,sans-Serif" font-size="10.00">/src/comic_cbt.c</text>
</a>
</g>
</g>
<!-- Node2&#45;&gt;Node5 -->
<g id="edge4_Node000002_Node000005" class="edge">
<title>Node2&#45;&gt;Node5</title>
<g id="a_edge4_Node000002_Node000005"><a xlink:title=" ">
<path fill="none" stroke="#63b8ff" d="M692.2,-141.24C726.05,-132.51 760.57,-120.66 770.5,-107 781.21,-92.26 782.57,-79.65 770.5,-66 727.19,-17.02 543.35,-38.28 478.5,-30 465.43,-28.33 451.45,-26.51 438.08,-24.75"/>
<polygon fill="#63b8ff" stroke="#63b8ff" points="691.07,-137.92 682.22,-143.74 692.77,-144.71 691.07,-137.92"/>
</a>
</g>
</g>
<!-- Node6 -->
<g id="Node000006" class="node">
<title>Node6</title>
<g id="a_Node000006"><a xlink:href="comic__cbz_8c.html" target="_top" xlink:title="CBZ backend: a streaming miniz ZIP reader that indexes page images.">
<polygon fill="white" stroke="#666666" points="619,-30 488,-30 488,0 619,0 619,-30"/>
<text text-anchor="start" x="496" y="-18" font-family="Helvetica,sans-Serif" font-size="10.00">apps/shared_libs/comic</text>
<text text-anchor="middle" x="553.5" y="-7" font-family="Helvetica,sans-Serif" font-size="10.00">/src/comic_cbz.c</text>
</a>
</g>
</g>
<!-- Node2&#45;&gt;Node6 -->
<g id="edge5_Node000002_Node000006" class="edge">
<title>Node2&#45;&gt;Node6</title>
<g id="a_edge5_Node000002_Node000006"><a xlink:title=" ">
<path fill="none" stroke="#63b8ff" d="M692.13,-141.33C740.82,-130.48 796.32,-116.35 803.5,-107 814.6,-92.55 815.05,-80.09 803.5,-66 797.59,-58.79 691.15,-39.41 619.08,-27"/>
<polygon fill="#63b8ff" stroke="#63b8ff" points="691.2,-137.95 682.18,-143.52 692.7,-144.79 691.2,-137.95"/>
</a>
</g>
</g>
<!-- Node7 -->
<g id="Node000007" class="node">
<title>Node7</title>
<g id="a_Node000007"><a xlink:href="comic__internal_8h.html" target="_top" xlink:title="Cross&#45;TU seams between the comic facade and its CBZ / CBR backends.">
<polygon fill="white" stroke="#666666" points="280,-101.5 149,-101.5 149,-71.5 280,-71.5 280,-101.5"/>
<text text-anchor="start" x="157" y="-89.5" font-family="Helvetica,sans-Serif" font-size="10.00">apps/shared_libs/comic</text>
<text text-anchor="middle" x="214.5" y="-78.5" font-family="Helvetica,sans-Serif" font-size="10.00">/src/comic_internal.h</text>
</a>
</g>
</g>
<!-- Node2&#45;&gt;Node7 -->
<g id="edge6_Node000002_Node000007" class="edge">
<title>Node2&#45;&gt;Node7</title>
<g id="a_edge6_Node000002_Node000007"><a xlink:title=" ">
<path fill="none" stroke="#63b8ff" d="M540.78,-147.78C474.04,-139.11 374.34,-124.8 288.5,-107 280.82,-105.41 272.76,-103.51 264.88,-101.54"/>
<polygon fill="#63b8ff" stroke="#63b8ff" points="540.42,-151.27 550.79,-149.07 541.32,-144.32 540.42,-151.27"/>
</a>
</g>
</g>
<!-- Node2&#45;&gt;Node8 -->
<g id="edge12_Node000002_Node000008" class="edge">
<title>Node2&#45;&gt;Node8</title>
<g id="a_edge12_Node000002_Node000008"><a xlink:title=" ">
<path fill="none" stroke="#63b8ff" d="M540.56,-156.85C421.23,-155.35 196.36,-147.1 128.5,-107 98.56,-89.31 79.46,-51.14 70.84,-30.3"/>
<polygon fill="#63b8ff" stroke="#63b8ff" points="540.69,-160.35 550.72,-156.96 540.76,-153.35 540.69,-160.35"/>
</a>
</g>
</g>
<!-- Node9 -->
<g id="Node000009" class="node">
<title>Node9</title>
<g id="a_Node000009"><a xlink:href="sh__comic_8c.html" target="_top" xlink:title="Full&#45;page image reader for CBZ / CBR comic archives (#236).">
<polygon fill="white" stroke="#666666" points="453,-107 298,-107 298,-66 453,-66 453,-107"/>
<text text-anchor="start" x="306" y="-95" font-family="Helvetica,sans-Serif" font-size="10.00">examples/ek_ra8d2/hil</text>
<text text-anchor="start" x="306" y="-84" font-family="Helvetica,sans-Serif" font-size="10.00">_needs_revalidation/ereader</text>
<text text-anchor="middle" x="375.5" y="-73" font-family="Helvetica,sans-Serif" font-size="10.00">_shelf/src/sh_comic.c</text>
</a>
</g>
</g>
<!-- Node2&#45;&gt;Node9 -->
<g id="edge13_Node000002_Node000009" class="edge">
<title>Node2&#45;&gt;Node9</title>
<g id="a_edge13_Node000002_Node000009"><a xlink:title=" ">
<path fill="none" stroke="#63b8ff" d="M557.79,-140.07C523.24,-130.11 479.4,-117.46 443.37,-107.07"/>
<polygon fill="#63b8ff" stroke="#63b8ff" points="557.15,-143.53 567.73,-142.94 559.09,-136.8 557.15,-143.53"/>
</a>
</g>
</g>
<!-- Node10 -->
<g id="Node000010" class="node">
<title>Node10</title>
<g id="a_Node000010"><a xlink:href="cm__tiled__check_8c.html" target="_top" xlink:title="Oversized&#45;page tile self&#45;check for ereader_comic (#344).">
<polygon fill="white" stroke="#666666" points="607.5,-107 471.5,-107 471.5,-66 607.5,-66 607.5,-107"/>
<text text-anchor="start" x="479.5" y="-95" font-family="Helvetica,sans-Serif" font-size="10.00">examples/ek_ra8d2/hw</text>
<text text-anchor="start" x="479.5" y="-84" font-family="Helvetica,sans-Serif" font-size="10.00">_pending/ereader_comic</text>
<text text-anchor="middle" x="539.5" y="-73" font-family="Helvetica,sans-Serif" font-size="10.00">/src/cm_tiled_check.c</text>
</a>
</g>
</g>
<!-- Node2&#45;&gt;Node10 -->
<g id="edge14_Node000002_Node000010" class="edge">
<title>Node2&#45;&gt;Node10</title>
<g id="a_edge14_Node000002_Node000010"><a xlink:title=" ">
<path fill="none" stroke="#63b8ff" d="M593.49,-136.23C583.25,-126.99 571.26,-116.17 561.19,-107.07"/>
<polygon fill="#63b8ff" stroke="#63b8ff" points="591.15,-138.83 600.92,-142.94 595.84,-133.64 591.15,-138.83"/>
</a>
</g>
</g>
<!-- Node11 -->
<g id="Node000011" class="node">
<title>Node11</title>
<g id="a_Node000011"><a xlink:href="examples_2ek__ra8d2_2hw__pending_2ereader__comic_2src_2main_8c.html" target="_top" xlink:title="Viewable page&#45;turn comic reader – baked CBZ decoded to the 1024x600 GLCDC panel, tap&#45;zone navigation ...">
<polygon fill="white" stroke="#666666" points="761.5,-107 625.5,-107 625.5,-66 761.5,-66 761.5,-107"/>
<text text-anchor="start" x="633.5" y="-95" font-family="Helvetica,sans-Serif" font-size="10.00">examples/ek_ra8d2/hw</text>
<text text-anchor="start" x="633.5" y="-84" font-family="Helvetica,sans-Serif" font-size="10.00">_pending/ereader_comic</text>
<text text-anchor="middle" x="693.5" y="-73" font-family="Helvetica,sans-Serif" font-size="10.00">/src/main.c</text>
</a>
</g>
</g>
<!-- Node2&#45;&gt;Node11 -->
<g id="edge15_Node000002_Node000011" class="edge">
<title>Node2&#45;&gt;Node11</title>
<g id="a_edge15_Node000002_Node000011"><a xlink:title=" ">
<path fill="none" stroke="#63b8ff" d="M639.51,-136.23C649.75,-126.99 661.74,-116.17 671.81,-107.07"/>
<polygon fill="#63b8ff" stroke="#63b8ff" points="637.16,-133.64 632.08,-142.94 641.85,-138.83 637.16,-133.64"/>
</a>
</g>
</g>
<!-- Node12 -->
<g id="Node000012" class="node">
<title>Node12</title>
<g id="a_Node000012"><a xlink:href="ra8__viewer__reader__internal_8h.html" target="_top" xlink:title="Cross&#45;translation&#45;unit state for the bounded JOF/comic viewer.">
<polygon fill="white" stroke="#666666" points="1084.5,-107 956.5,-107 956.5,-66 1084.5,-66 1084.5,-107"/>
<text text-anchor="start" x="964.5" y="-95" font-family="Helvetica,sans-Serif" font-size="10.00">tools/rabook_viewer</text>
<text text-anchor="start" x="964.5" y="-84" font-family="Helvetica,sans-Serif" font-size="10.00">/inc/ra8_viewer_reader</text>
<text text-anchor="middle" x="1020.5" y="-73" font-family="Helvetica,sans-Serif" font-size="10.00">_internal.h</text>
</a>
</g>
</g>
<!-- Node2&#45;&gt;Node12 -->
<g id="edge16_Node000002_Node000012" class="edge">
<title>Node2&#45;&gt;Node12</title>
<g id="a_edge16_Node000002_Node000012"><a xlink:title=" ">
<path fill="none" stroke="#63b8ff" d="M692.35,-142.88C793.39,-125.58 820.43,-123.92 917.5,-107 930.05,-104.81 943.44,-102.36 956.27,-99.96"/>
<polygon fill="#63b8ff" stroke="#63b8ff" points="691.59,-139.46 682.33,-144.61 692.78,-146.36 691.59,-139.46"/>
</a>
</g>
</g>
<!-- Node13 -->
<g id="Node000013" class="node">
<title>Node13</title>
<g id="a_Node000013"><a xlink:href="ra8__viewer__comic_8c.html" target="_top" xlink:title="Caller&#45;workspace CBZ, CBR, and CBT reader engine.">
<polygon fill="white" stroke="#666666" points="944.5,-30 810.5,-30 810.5,0 944.5,0 944.5,-30"/>
<text text-anchor="start" x="818.5" y="-18" font-family="Helvetica,sans-Serif" font-size="10.00">tools/rabook_viewer</text>
<text text-anchor="middle" x="877.5" y="-7" font-family="Helvetica,sans-Serif" font-size="10.00">/src/ra8_viewer_comic.c</text>
</a>
</g>
</g>
<!-- Node2&#45;&gt;Node13 -->
<g id="edge21_Node000002_Node000013" class="edge">
<title>Node2&#45;&gt;Node13</title>
<g id="a_edge21_Node000002_Node000013"><a xlink:title=" ">
<path fill="none" stroke="#63b8ff" d="M692.04,-141.87C754.76,-129.04 834.64,-111.95 840.5,-107 863.94,-87.17 872.71,-50.24 875.85,-30.06"/>
<polygon fill="#63b8ff" stroke="#63b8ff" points="691.24,-138.47 682.14,-143.89 692.64,-145.33 691.24,-138.47"/>
</a>
</g>
</g>
<!-- Node7&#45;&gt;Node3 -->
<g id="edge7_Node000007_Node000003" class="edge">
<title>Node7&#45;&gt;Node3</title>
<g id="a_edge7_Node000007_Node000003"><a xlink:title=" ">
<path fill="none" stroke="#63b8ff" d="M273.38,-69.13C278.47,-67.97 283.56,-66.91 288.5,-66 437.52,-38.62 477.25,-49.52 627.5,-30 635.74,-28.93 644.39,-27.72 652.94,-26.46"/>
<polygon fill="#63b8ff" stroke="#63b8ff" points="272.54,-65.73 263.62,-71.44 274.16,-72.54 272.54,-65.73"/>
</a>
</g>
</g>
<!-- Node7&#45;&gt;Node4 -->
<g id="edge8_Node000007_Node000004" class="edge">
<title>Node7&#45;&gt;Node4</title>
<g id="a_edge8_Node000007_Node000004"><a xlink:title=" ">
<path fill="none" stroke="#63b8ff" d="M214.5,-61.25C214.5,-50.81 214.5,-38.99 214.5,-30.04"/>
<polygon fill="#63b8ff" stroke="#63b8ff" points="211,-61.44 214.5,-71.44 218,-61.44 211,-61.44"/>
</a>
</g>
</g>
<!-- Node7&#45;&gt;Node5 -->
<g id="edge9_Node000007_Node000005" class="edge">
<title>Node7&#45;&gt;Node5</title>
<g id="a_edge9_Node000007_Node000005"><a xlink:title=" ">
<path fill="none" stroke="#63b8ff" d="M255.86,-67.31C282.34,-55.66 316.17,-40.78 340.57,-30.04"/>
<polygon fill="#63b8ff" stroke="#63b8ff" points="254.22,-64.21 246.47,-71.44 257.04,-70.61 254.22,-64.21"/>
</a>
</g>
</g>
<!-- Node7&#45;&gt;Node6 -->
<g id="edge10_Node000007_Node000006" class="edge">
<title>Node7&#45;&gt;Node6</title>
<g id="a_edge10_Node000007_Node000006"><a xlink:title=" ">
<path fill="none" stroke="#63b8ff" d="M275.77,-68.99C280.07,-67.95 284.34,-66.94 288.5,-66 356.09,-50.74 434.1,-36.41 487.89,-27.04"/>
<polygon fill="#63b8ff" stroke="#63b8ff" points="274.59,-65.68 265.74,-71.49 276.29,-72.47 274.59,-65.68"/>
</a>
</g>
</g>
<!-- Node7&#45;&gt;Node8 -->
<g id="edge11_Node000007_Node000008" class="edge">
<title>Node7&#45;&gt;Node8</title>
<g id="a_edge11_Node000007_Node000008"><a xlink:title=" ">
<path fill="none" stroke="#63b8ff" d="M175.16,-67.15C150.25,-55.53 118.52,-40.73 95.61,-30.04"/>
<polygon fill="#63b8ff" stroke="#63b8ff" points="173.81,-70.38 184.35,-71.44 176.76,-64.04 173.81,-70.38"/>
</a>
</g>
</g>
<!-- Node12&#45;&gt;Node13 -->
<g id="edge17_Node000012_Node000013" class="edge">
<title>Node12&#45;&gt;Node13</title>
<g id="a_edge17_Node000012_Node000013"><a xlink:title=" ">
<path fill="none" stroke="#63b8ff" d="M971.25,-61.56C949.68,-51.08 925.11,-39.14 906.54,-30.11"/>
<polygon fill="#63b8ff" stroke="#63b8ff" points="969.76,-64.73 980.29,-65.96 972.82,-58.44 969.76,-64.73"/>
</a>
</g>
</g>
<!-- Node14 -->
<g id="Node000014" class="node">
<title>Node14</title>
<g id="a_Node000014"><a xlink:href="ra8__viewer__jof_8c.html" target="_top" xlink:title="Streamed JOF long&#45;strip rendering over a one&#45;band caller cache.">
<polygon fill="white" stroke="#666666" points="1078.5,-30 962.5,-30 962.5,0 1078.5,0 1078.5,-30"/>
<text text-anchor="start" x="970.5" y="-18" font-family="Helvetica,sans-Serif" font-size="10.00">tools/rabook_viewer</text>
<text text-anchor="middle" x="1020.5" y="-7" font-family="Helvetica,sans-Serif" font-size="10.00">/src/ra8_viewer_jof.c</text>
</a>
</g>
</g>
<!-- Node12&#45;&gt;Node14 -->
<g id="edge18_Node000012_Node000014" class="edge">
<title>Node12&#45;&gt;Node14</title>
<g id="a_edge18_Node000012_Node000014"><a xlink:title=" ">
<path fill="none" stroke="#63b8ff" d="M1020.5,-55.66C1020.5,-46.76 1020.5,-37.42 1020.5,-30.04"/>
<polygon fill="#63b8ff" stroke="#63b8ff" points="1017,-55.77 1020.5,-65.77 1024,-55.77 1017,-55.77"/>
</a>
</g>
</g>
<!-- Node15 -->
<g id="Node000015" class="node">
<title>Node15</title>
<g id="a_Node000015"><a xlink:href="ra8__viewer__ppm_8c.html" target="_top" xlink:title="RGB565 &lt;&#45;&gt; 8&#45;bit RGB conversion and the shared binary&#45;PPM (P6) writer.">
<polygon fill="white" stroke="#666666" points="1222.5,-30 1096.5,-30 1096.5,0 1222.5,0 1222.5,-30"/>
<text text-anchor="start" x="1104.5" y="-18" font-family="Helvetica,sans-Serif" font-size="10.00">tools/rabook_viewer</text>
<text text-anchor="middle" x="1159.5" y="-7" font-family="Helvetica,sans-Serif" font-size="10.00">/src/ra8_viewer_ppm.c</text>
</a>
</g>
</g>
<!-- Node12&#45;&gt;Node15 -->
<g id="edge19_Node000012_Node000015" class="edge">
<title>Node12&#45;&gt;Node15</title>
<g id="a_edge19_Node000012_Node000015"><a xlink:title=" ">
<path fill="none" stroke="#63b8ff" d="M1068.65,-61.42C1089.55,-50.98 1113.3,-39.1 1131.27,-30.11"/>
<polygon fill="#63b8ff" stroke="#63b8ff" points="1066.97,-58.35 1059.59,-65.96 1070.1,-64.61 1066.97,-58.35"/>
</a>
</g>
</g>
<!-- Node16 -->
<g id="Node000016" class="node">
<title>Node16</title>
<g id="a_Node000016"><a xlink:href="ra8__viewer__reader_8c.html" target="_top" xlink:title="Requirements, workspace binding, descriptor lifecycle, and dispatch.">
<polygon fill="white" stroke="#666666" points="1376,-30 1241,-30 1241,0 1376,0 1376,-30"/>
<text text-anchor="start" x="1249" y="-18" font-family="Helvetica,sans-Serif" font-size="10.00">tools/rabook_viewer</text>
<text text-anchor="middle" x="1308.5" y="-7" font-family="Helvetica,sans-Serif" font-size="10.00">/src/ra8_viewer_reader.c</text>
</a>
</g>
</g>
<!-- Node12&#45;&gt;Node16 -->
<g id="edge20_Node000012_Node000016" class="edge">
<title>Node12&#45;&gt;Node16</title>
<g id="a_edge20_Node000012_Node000016"><a xlink:title=" ">
<path fill="none" stroke="#63b8ff" d="M1094.58,-67.62C1143.02,-55.93 1205.41,-40.88 1250.29,-30.05"/>
<polygon fill="#63b8ff" stroke="#63b8ff" points="1093.67,-64.24 1084.77,-69.99 1095.32,-71.05 1093.67,-64.24"/>
</a>
</g>
</g>
</g>
</svg>
